<svg xmlns="http://www.w3.org/2000/svg" width="66" height="90" viewBox="0 0 66 90"><g><g><path fill="#28b446" d="M65.195 24.56V84.01c0 3.197-2.583 5.788-5.766 5.788H6.14c-3.185 0-5.766-2.59-5.766-5.788V5.738C.373 2.541 2.953-.05 6.14-.05H40.68z"/></g><g><path fill="#fff" d="M34.625 69.463v-4.49h10.497v4.49zm-14.18-4.49h10.497v4.49H20.445zm10.497-16.585v4.49H20.445v-4.49zm14.18 4.49H34.625v-4.49h10.497zm-10.497 3.699h10.497v4.698H34.625zm-14.18 0h10.497v4.698H20.445zM46.963 44.69h-28.36a1.845 1.845 0 0 0-1.842 1.849v24.773c0 1.021.825 1.849 1.842 1.849h28.36a1.845 1.845 0 0 0 1.842-1.849V46.539a1.845 1.845 0 0 0-1.842-1.85z"/></g></g></svg>