<svg xmlns="http://www.w3.org/2000/svg" width="100%" height="100%" viewBox="0 0 26 35"><defs><clipPath id="8hlka"><path fill="#fff" d="M7.697 7.237h5.61c.093 0 .169.075.169.168v6.693a.169.169 0 0 1-.17.168h-5.61a.169.169 0 0 1-.168-.168V7.405c0-.093.075-.168.169-.168z"/></clipPath></defs><g><g><g><path fill="#fff" d="M7.697 7.237h5.61c.093 0 .169.075.169.168v6.693a.169.169 0 0 1-.17.168h-5.61a.169.169 0 0 1-.168-.168V7.405c0-.093.075-.168.169-.168z"/><path fill="none" stroke="#a5b1c2" stroke-miterlimit="50" stroke-width="2" d="M7.697 7.237h5.61c.093 0 .169.075.169.168v6.693a.169.169 0 0 1-.17.168h-5.61a.169.169 0 0 1-.168-.168V7.405c0-.093.075-.168.169-.168z" clip-path="url(&quot;#8hlka&quot;)"/></g><g><path fill="#a5b1c2" d="M13.476 8.312a.234.234 0 0 0-.075-.163c-.048-.047-.114-.048-.182-.048h-3.021c-.23-.006-.27-.045-.323-.133 0 0-.298-.603-.339-.653a.255.255 0 0 0-.167-.078h3.937c.094 0 .17.075.17.168z"/></g><g><path fill="#fbbb00" d="M25.36 9.483V32.38a2.23 2.23 0 0 1-2.23 2.23H2.525a2.23 2.23 0 0 1-2.23-2.23V2.234c0-1.232.998-2.23 2.23-2.23H15.88z"/></g><g><path fill="#e2a203" d="M17.174 9.277l8.186 3.372V9.483l-4.641-1.37z"/></g><g><path fill="#f4d37d" d="M25.36 9.483h-7.25a2.229 2.229 0 0 1-2.229-2.23V.005z"/></g><g><g><path fill="#fff" d="M17.372 15.785h-9.09c-.842 0-1.525.683-1.525 1.525v9.09c0 .843.683 1.526 1.525 1.526h9.09c.843 0 1.526-.683 1.526-1.526v-9.09c0-.842-.683-1.525-1.526-1.525z"/></g><g><path fill="#fbbb00" d="M16.776 16.582H8.879c-.732 0-1.325.593-1.325 1.325v7.897c0 .732.593 1.325 1.325 1.325h7.897c.731 0 1.325-.594 1.325-1.325v-7.897c0-.732-.594-1.325-1.325-1.325z"/></g><g><path fill="#fff" d="M9.035 20.095c0-.5.5-1 1-1h5.584c.5 0 1 .5 1 1v3.52c0 .5-.5 1-1 1h-5.584c-.5 0-1-.5-1-1z"/></g><g><path fill="#fbbb00" d="M9.644 24.006v-4.302h6.367v4.302z"/></g></g></g></g></svg>