<svg enable-background="new 0 0 76.1 104" viewBox="0 0 76.1 104" xmlns="http://www.w3.org/2000/svg"><path d="m76.1 28.5v68.8c0 3.7-3 6.7-6.8 6.7h-62.5c-3.8 0-6.8-3-6.8-6.7v-90.6c0-3.7 3-6.7 6.8-6.7h40.5z" fill="#4ec1b5"/><path d="m51.2 27.9 24.9 10.1v-9.5l-14.1-4.1z" fill="#48b2a7"/><path d="m76.1 28.5h-22c-3.7 0-6.7-3-6.8-6.7v-21.8z" fill="#b4def7"/><g fill="#fff"><path d="m52.8 54.6c-.2 0-.5 0-.7 0-1.4 0-2.7.2-4 .6l-.5.2.2-.2.1-.1s0 0 .1-.1.1-.1.1-.1 0 0 .1-.1c0 0 0 0 .1-.1.6-.6 1.7-2 2.7-3.9.9-1.9 1.4-4 1.4-6.2 0-8-6.5-14.4-14.4-14.4s-14.4 6.5-14.4 14.4c0 4 1.6 7.6 4.2 10.2.1.2.2.2.2.3-.6-.2-1.3-.3-2-.4s-1.3-.1-2-.1c-3.1 0-6 1-8.4 2.7-.1.1-.2.1-.2.2-.1.1-.2.1-.2.2-.1 0-.1.1-.2.1-6.2 5-7 14.3-1.9 20.4 5 6 13.8 6.9 19.9 2.1.1 0 .1-.1.2-.1 2.3-1.9 4.1-4.5 4.8-7.5v.1c1.7 6.1 7.3 10.6 13.9 10.6h1.1.3c7.3-.7 12.9-6.9 12.9-14.3s-5.8-14.1-13.4-14.5zm8.6 20.1s-4.6 8-12.5 4c0 0-6.9-3.7-3.3-10.2 0 0 3-5.7 8.7-2.7 0 0 2.3 1.2 2.3 3.5 0 .5-.1 1-.3 1.6 0 0-.8 1.4-2.4 1.4-.5 0-1-.1-1.7-.4 0 0-1.9-1-1.4-2.9-.2 0-1.1.1-1.9 1.5-.8 1.5-.9 3.3 1.6 5.2 0 0 4.6 3.4 7.8-2.5 0 0 3.7-6.2-3.8-10.5 0 0-4.4-2.8-8.8 0 0 0-.2.1-.4.3-1.2.8-2.2 1.7-3.2 2.7 0 .1-.1.1-.1.2l-.1.1c-.7.6-1.6 1-2.5 1.2-.2 0-.4.1-.6.1-.1 0-.3 0-.4 0-.2 0-.5 0-.7 0-.7 0-1.2-.1-1.2-.1s.9 4.8-5.3 9.4c0 0-8.3 7-15.8-.9 0 0-5.8-7.2.9-13.1 0 0 6-5.1 10.7.8 0 0 4.2 4.9-.7 9.1 0 0-2.9 2.5-5.4 0 0 0-1.7-2 .6-4.1 0 0 1.7-1.4 3.2-.2 0 0 .4-1-.6-2.3-1.1-1.3-2.7-2.1-5.4-.4 0 0-4.9 3-.6 8.2 0 0 4.4 5.7 11.2.4 0 0 4.2-3 3.3-8.1 0 0-.2-1.1-.6-2.6-.3-1-.3-2-.2-3 .1-.6.3-1.3.6-1.9.3-.5.7-.9 1.2-1.2 0 0-.1 0-.1-.1-.9-.6-6.1-4.2-5.8-11.2 0 0-.2-10.8 10.7-11.7 0 0 9.2.1 9.6 9 0 0 .2 7.8-7.4 7.8 0 0-6.4.2-6.6-6.3 0 0-.2-3.8 3.4-4.2 0 0 2.7 0 2.8 3.1 0 0 0 2.2-1.9 2.7 0 0 .5 1 2.2 1s3.3-.8 3.8-3.9c0 0 .8-5.7-6-5.6 0 0-7.2-.2-7.4 8.4 0 0-.3 5.2 4.2 7.7 0 0 .3.2.9.5 1.1.5 2.2.9 3.4 1.2 1.1.2 2.6.9 3.5 2.4 0 0 0 .1.1.1.1.1.1.2.2.3 0 .1.1.2.1.3.2.3.2.4.2.8v.3c.5-.3 6.5-3.5 12.7.3 0 0 6.3 3.3 6.3 9.9.1 1-.2 2.7-1.1 4.6z"/><path d="m7.8 94.5c.5.3 1.3.6 2.1.6.7 0 1.4-.3 1.4-1 0-.5-.4-.8-1.2-1.3-.9-.5-1.8-1.2-1.8-2.4 0-1.8 1.6-2.9 3.5-2.9 1.1 0 1.7.2 2.1.4l-.6 1.6c-.3-.2-.9-.4-1.7-.4-.9 0-1.3.4-1.3.9s.5.8 1.3 1.3c1.1.6 1.8 1.3 1.8 2.3 0 2-1.6 3-3.6 3-1.2 0-2.1-.3-2.5-.6z"/><path d="m9.7 96.9c-1.1 0-2.1-.3-2.7-.7l-.1-.1.8-2 .2.1c.6.3 1.3.5 2 .5.5 0 1.2-.2 1.2-.8 0-.4-.3-.6-1.1-1-.9-.5-2-1.2-2-2.6 0-1.8 1.5-3.1 3.7-3.1.9 0 1.6.2 2.2.5l.2.1-.8 2-.2-.1c-.1-.1-.7-.4-1.5-.4 0 0 0 0-.1 0-.8 0-1.1.4-1.1.7 0 .4.4.6 1.2 1 1.3.7 1.9 1.5 1.9 2.5.1 2.1-1.5 3.4-3.8 3.4zm-2.2-.9c.4.3 1.2.5 2.3.5 1.6 0 3.4-.7 3.4-2.8 0-.9-.5-1.5-1.6-2.1-.8-.4-1.4-.8-1.4-1.5 0-.6.5-1.2 1.6-1.2.6 0 1.1.1 1.5.3l.4-1.1c-.5-.2-1.1-.3-1.8-.3-1.9 0-3.3 1.1-3.3 2.6 0 1.1.9 1.7 1.7 2.1s1.3.8 1.3 1.5c0 .8-.7 1.3-1.6 1.3-.7 0-1.4-.2-2-.5z"/><path d="m17.7 87.7-1.7 8.8h-1.9l1.7-8.9h1.9z"/><path d="m16.2 96.8h-2.4l1.8-9.3h2.4zm-1.8-.5h1.4l1.6-8.4h-1.4z"/><path d="m25.2 96.5.5-3.7c.1-1 .3-2.2.6-3.5-.5 1.1-1 2.4-1.5 3.3l-1.8 3.6h-1.5l-.3-3.6c-.1-1-.1-2.2-.2-3.4-.3 1.2-.5 2.5-.7 3.5l-.9 3.7h-1.7l2.2-8.9h2.5l.3 3.4c.1.8.1 1.8.2 2.8h.1c.3-1 .8-2 1.2-2.8l1.6-3.4h2.6l-1.4 9z"/><path d="m27.2 96.8h-2.3l.6-3.9c.1-.6.2-1.1.3-1.7-.3.6-.6 1.2-.8 1.7l-1.9 3.8h-1.8l-.3-3.8c0-.5-.1-1-.1-1.7-.1.7-.3 1.3-.4 1.8l-.9 3.8h-2.2l2.3-9.3h2.9l.3 3.6v.7c0 .4.1.7.1 1.1.3-.7.6-1.4.8-1.9l1.7-3.5h3zm-1.8-.5h1.4l1.1-8.4h-2.2l-1.6 3.2c-.3.7-.8 1.8-1.2 2.8l.1.2h-.5v-.2c0-.7-.1-1.5-.1-2.2 0-.2 0-.5 0-.7l-.3-3.1h-2.1l-2.1 8.4h1.3l.8-3.5c.1-.6.3-1.4.5-2.2.1-.4.2-.8.3-1.3v-.2h.4v.2c.1 1.4.1 2.5.2 3.4l.3 3.4h1.1l1.8-3.5c.5-.9 1-2.1 1.5-3.3l.1-.1h.5l-.1.3c-.2 1-.4 2.2-.6 3.5z"/><path d="m30.2 87.8c.6-.1 1.5-.2 2.3-.2s1.7.1 2.4.6c.6.4 1 1 1 1.9 0 1.1-.5 2-1.2 2.5-.7.6-1.8.8-2.8.8-.3 0-.6 0-.8-.1l-.6 3.2h-1.9zm1.1 4c.2 0 .4.1.7.1 1.1 0 1.9-.7 1.9-1.6s-.6-1.1-1.4-1.1c-.4 0-.6 0-.8.1z"/><path d="m30.6 96.8h-2.3l1.7-9.1h.1c.6-.2 1.5-.2 2.4-.2.7 0 1.8.1 2.5.6s1.1 1.2 1.1 2.1c0 1.1-.5 2-1.3 2.7-.7.6-1.8.9-3 .9-.2 0-.4 0-.6 0zm-1.8-.5h1.4l.6-3.2h.2c.3 0 .5.1.7.1 1.1 0 2.1-.3 2.7-.8.7-.6 1.1-1.4 1.1-2.3 0-.7-.3-1.3-.9-1.7-.6-.5-1.6-.6-2.2-.6-.8 0-1.6.1-2.1.2zm3.2-4.2c-.3 0-.5 0-.8-.1h-.2l.6-3h.1c.2 0 .5-.1.8-.1 1 0 1.6.5 1.6 1.4.1 1-.9 1.8-2.1 1.8zm-.4-.5h.4c1 0 1.7-.6 1.7-1.4 0-.2 0-.9-1.1-.9-.3 0-.4 0-.6 0z"/><path d="m37.6 94.2-1.1 2.3h-2l4.3-8.9h2.4l1 8.9h-2l-.2-2.3zm2.5-1.4-.2-1.9c0-.5-.1-1.2-.1-1.7-.2.5-.5 1.2-.7 1.7l-.9 1.9z"/><path d="m42.6 96.8h-2.5l-.2-2.3h-2.2l-1.1 2.3h-2.5l4.5-9.3h2.8zm-2-.5h1.5l-1-8.4h-2.1l-4.1 8.4h1.5l1.1-2.3h2.9zm-.3-3.3h-2.5l1-2.2c.1-.3.3-.7.5-1.1.1-.2.2-.4.3-.6l.1-.1h.3v.2c0 .5.1 1.2.1 1.7zm-1.8-.4h1.3l-.1-1.7c0-.2 0-.5-.1-.8-.1.3-.2.6-.4.9z"/><path d="m43.3 96.5 1.7-8.9h2.2l1.2 3.4c.4 1.1.6 2.1.8 3 0-.9.2-1.9.4-3.2l.6-3.2h1.8l-1.7 8.9h-2l-1.2-3.5c-.4-1.2-.6-2-.9-3.1-.1.9-.3 2.1-.6 3.5l-.6 3.1z"/><path d="m50.5 96.8h-2.3l-1.3-3.7c-.2-.7-.4-1.4-.6-2-.1.7-.3 1.5-.4 2.4l-.6 3.3h-2.3l1.8-9.3h2.6l1.2 3.5c.2.6.4 1.2.5 1.7.1-.6.2-1.2.3-1.9l.6-3.4h2.2zm-2-.5h1.6l1.6-8.4h-1.3l-.6 3c-.2 1.2-.4 2.2-.4 3.2v.2h-.4v-.2c-.2-1.1-.5-2-.8-3l-1.2-3.2h-1.9l-1.6 8.4h1.3l.5-2.9c.3-1.4.5-2.7.6-3.5v-.1l.4-.1.1.3c.2 1.1.5 1.9.9 3.1z"/><path d="m54.5 94.2-1.1 2.3h-2l4.3-8.9h2.4l1 8.9h-2l-.2-2.3zm2.5-1.4-.2-1.9c0-.5-.1-1.2-.1-1.7-.2.5-.5 1.2-.7 1.7l-.9 1.9z"/><path d="m59.5 96.8h-2.5l-.2-2.3h-2.2l-1.1 2.3h-2.5l4.5-9.3h2.8zm-2-.5h1.5l-1-8.4h-2.1l-4.1 8.4h1.5l1.1-2.3h2.9zm-.3-3.3h-2.5l1-2.2c.1-.3.3-.7.5-1.1.1-.2.2-.4.3-.6l.1-.1h.4v.2c0 .5.1 1.2.1 1.7zm-1.8-.4h1.3l-.1-1.7c0-.2 0-.5-.1-.8-.1.3-.2.6-.4.9z"/><path d="m60.2 96.5 1.7-8.9h2.2l1.2 3.4c.4 1.1.6 2.1.8 3 0-.9.2-1.9.4-3.2l.6-3.2h1.8l-1.7 8.9h-2l-1.2-3.5c-.4-1.2-.6-2-.9-3.1-.1.9-.3 2.1-.6 3.5l-.6 3.1z"/><path d="m67.4 96.8h-2.3l-1.3-3.7c-.2-.7-.4-1.4-.6-2-.1.7-.3 1.5-.4 2.4l-.6 3.3h-2.2l1.8-9.3h2.6l1.2 3.5c.2.6.4 1.2.5 1.7.1-.6.2-1.2.3-1.9l.6-3.4h2.2zm-2-.5h1.6l1.6-8.4h-1.3l-.6 3c-.2 1.2-.4 2.2-.4 3.2v.2h-.5v-.2c-.2-1.1-.5-1.9-.8-3l-1.1-3.2h-1.9l-1.6 8.4h1.3l.5-2.9c.3-1.4.5-2.7.6-3.5v-.1l.4-.1.1.3c.2 1.1.5 1.9.9 3.1z"/></g></svg>