<svg xmlns="http://www.w3.org/2000/svg" xmlns:xlink="http://www.w3.org/1999/xlink" version="1.1" x="0px" y="0px" viewBox="0 0 1000 1000" enable-background="new 0 0 1000 1000" xml:space="preserve">
<g><path xmlns="http://www.w3.org/2000/svg" fill="#a5b1c2" d="M738.8,539L543.2,425.3L347.7,311.5v454.9l195.6-113.7L738.8,539z M931.2,71.2H68.8C36.3,71.2,10,97.4,10,129.7v740.7c0,32.3,26.3,58.5,58.8,58.5h862.3c32.5,0,58.8-26.2,58.8-58.5V129.7C990,97.4,963.7,71.2,931.2,71.2z M784.2,110.2c21.6,0,39.2,17.5,39.2,39c0,21.5-17.6,39-39.2,39c-21.6,0-39.2-17.5-39.2-39C745,127.7,762.6,110.2,784.2,110.2z M676.4,110.2c21.6,0,39.2,17.5,39.2,39c0,21.5-17.5,39-39.2,39c-21.6,0-39.2-17.5-39.2-39C637.2,127.7,654.8,110.2,676.4,110.2z M931.2,870.3H68.8V227.1h862.3V870.3z M892.1,188.1c-21.6,0-39.3-17.5-39.3-39c0-21.5,17.6-39,39.3-39c21.5,0,39.1,17.5,39.1,39C931.2,170.6,913.6,188.1,892.1,188.1z"/></g>
</svg>