<?xml version="1.0" encoding="UTF-8"?>
<svg id="Layer_1" data-name="Layer 1" xmlns="http://www.w3.org/2000/svg" xmlns:xlink="http://www.w3.org/1999/xlink" viewBox="0 0 220 157">
  <defs>
    <clipPath id="clippath">
      <polygon points="133 30.02 158.3 24.02 164.84 49.19 139.54 55.18 133 30.02" fill="none"/>
    </clipPath>
    <clipPath id="clippath-1">
      <polygon points="153.27 8.8 177.74 0 187.06 24.27 162.59 33.07 153.27 8.8" fill="none"/>
    </clipPath>
  </defs>
  <path d="M59.44,32.04h117.27c4.37,0,7.9,3.54,7.9,7.9h0c0,4.37-3.54,7.9-7.9,7.9H59.44c-4.37,0-7.9-3.54-7.9-7.9h0c0-4.37,3.54-7.9,7.9-7.9Z" fill="#b961ff"/>
  <rect x="63.85" y="20" width="107.69" height="12.04" rx="6.02" ry="6.02" fill="#b961ff"/>
  <path d="M47.13,47.85H185.94c4.37,0,7.9,3.54,7.9,7.9h0c0,4.37-3.54,7.9-7.9,7.9H47.13c-4.37,0-7.9-3.54-7.9-7.9h0c0-4.37,3.54-7.9,7.9-7.9Z" fill="#d766ff"/>
  <rect y="63.66" width="154.62" height="15.81" rx="7.9" ry="7.9" fill="#b961ff"/>
  <path d="M24.45,79.47H164.78c4.16,0,7.53,3.37,7.53,7.53h0c0,4.16-3.37,7.53-7.53,7.53H24.45c-4.16,0-7.53-3.37-7.53-7.53h0c0-4.16,3.37-7.53,7.53-7.53Z" fill="#b961ff"/>
  <path d="M8.53,95H148.86c4.16,0,7.53,3.37,7.53,7.53h0c0,4.16-3.37,7.53-7.53,7.53H8.53c-4.16,0-7.53-3.37-7.53-7.53h0c0-4.16,3.37-7.53,7.53-7.53Z" fill="#d766ff"/>
  <rect x="65.38" y="94.52" width="154.62" height="15.81" rx="7.9" ry="7.9" fill="#b961ff"/>
  <rect x="56.15" y="110.33" width="156.15" height="15.81" rx="7.9" ry="7.9" fill="#d766ff"/>
  <path d="M24.83,126.14H164.4c4.37,0,7.9,3.54,7.9,7.9h0c0,4.37-3.54,7.9-7.9,7.9H24.83c-4.37,0-7.9-3.54-7.9-7.9h0c0-4.37,3.54-7.9,7.9-7.9Z" fill="#b961ff"/>
  <path d="M7.53,141.95H147.09c4.16,0,7.53,3.37,7.53,7.53h0c0,4.16-3.37,7.53-7.53,7.53H7.53c-4.16,0-7.53-3.37-7.53-7.53H0c0-4.16,3.37-7.53,7.53-7.53Z" fill="#b961ff"/>
  <g clip-path="url(#clippath)">
    <g>
      <path d="M145.15,28.01c-4.51,1.36-6.25,4.53-5.23,9.25l4.62-1.1c-.38-1.62,.25-3.07,1.86-3.66,1.62-.55,3.3-.53,4.06,.46,.83,1.1,.05,2.78-.35,3.51-.74,1.34-2.19,2.56-2.75,3.95-.52,1.38-.28,2.95,.13,4.85l4.07-.96c-.28-1.23-.5-2.39-.14-3.27,.59-1.43,1.79-2.3,2.64-3.55,.83-1.16,1.69-2.53,1.4-4.3-.65-5.23-5.47-6.68-10.33-5.19Z" fill="#7a008d"/>
      <path d="M151.39,51.54c1.42-.34,2.28-1.74,1.92-3.13-.36-1.39-1.8-2.24-3.22-1.91-1.42,.34-2.28,1.74-1.91,3.13,.36,1.39,1.8,2.24,3.22,1.91Z" fill="#7a008d"/>
    </g>
  </g>
  <g clip-path="url(#clippath-1)">
    <g>
      <path d="M165.12,5.44c-4.33,1.86-5.7,5.2-4.16,9.78l4.47-1.61c-.56-1.57-.09-3.07,1.44-3.84,1.55-.73,3.22-.9,4.09,0,.95,1,.36,2.76,.05,3.52-.59,1.42-1.89,2.79-2.29,4.23-.37,1.43,.05,2.96,.67,4.81l3.94-1.42c-.41-1.19-.76-2.32-.5-3.23,.43-1.49,1.52-2.49,2.23-3.82,.7-1.24,1.4-2.7,.91-4.43-1.23-5.13-6.18-6.02-10.85-4Z" fill="#7a008d"/>
      <path d="M173.96,28.12c1.37-.49,2.07-1.98,1.55-3.32-.51-1.34-2.04-2.03-3.42-1.53-1.37,.49-2.07,1.98-1.55,3.32,.51,1.34,2.04,2.03,3.42,1.53Z" fill="#7a008d"/>
    </g>
  </g>
  <rect x="48.5" y="55.5" width="118" height="80" rx="5.5" ry="5.5" fill="#fff" stroke="#000"/>
  <rect x="58.5" y="71.5" width="98" height="26" rx="10.5" ry="10.5" fill="#e8e8e8" stroke="#2d2b2b" stroke-dasharray="0 0 3 3"/>
  <rect x="58.5" y="102.5" width="98" height="26" rx="10.5" ry="10.5" fill="#e8e8e8" stroke="#2d2b2b" stroke-dasharray="0 0 3 3"/>
  <path d="M110.88,84.5h-2.38v-2.38c0-.07-.06-.12-.12-.12h-.75c-.07,0-.12,.06-.12,.12v2.38h-2.38c-.07,0-.12,.06-.12,.12v.75c0,.07,.06,.12,.12,.12h2.38v2.38c0,.07,.06,.12,.12,.12h.75c.07,0,.12-.06,.12-.12v-2.38h2.38c.07,0,.12-.06,.12-.12v-.75c0-.07-.06-.12-.12-.12Z"/>
  <path d="M108,78c-3.87,0-7,3.13-7,7s3.13,7,7,7,7-3.13,7-7-3.13-7-7-7Zm0,12.81c-3.21,0-5.81-2.6-5.81-5.81s2.6-5.81,5.81-5.81,5.81,2.6,5.81,5.81-2.6,5.81-5.81,5.81Z"/>
  <path d="M110.88,115.5h-2.38v-2.38c0-.07-.06-.12-.12-.12h-.75c-.07,0-.12,.06-.12,.12v2.38h-2.38c-.07,0-.12,.06-.12,.12v.75c0,.07,.06,.12,.12,.12h2.38v2.38c0,.07,.06,.12,.12,.12h.75c.07,0,.12-.06,.12-.12v-2.38h2.38c.07,0,.12-.06,.12-.12v-.75c0-.07-.06-.12-.12-.12Z"/>
  <path d="M108,109c-3.87,0-7,3.13-7,7s3.13,7,7,7,7-3.13,7-7-3.13-7-7-7Zm0,12.81c-3.21,0-5.81-2.6-5.81-5.81s2.6-5.81,5.81-5.81,5.81,2.6,5.81,5.81-2.6,5.81-5.81,5.81Z"/>
  <path d="M49,61c0-2.76,2.24-5,5-5h107c2.76,0,5,2.24,5,5v6H49v-6Z" fill="#7a008d"/>
  <circle cx="161" cy="61" r="2" fill="#14ff00" stroke="#000"/>
  <circle cx="155" cy="61" r="2" fill="#faff00" stroke="#000"/>
  <circle cx="149" cy="61" r="2" fill="#fd0000" stroke="#000"/>
  <circle cx="55" cy="61" r="2" fill="#f5f5f5" stroke="#000"/>
</svg>