<?xml version="1.0" encoding="UTF-8"?>
<svg id="Layer_1" data-name="Layer 1" xmlns="http://www.w3.org/2000/svg" viewBox="0 0 219.99 153.49">
  <path d="M152,151.24c-.66,.67-1.31,1.34-1.97,2.02H5.23c-1.92-.85-4.17-1.47-3.16-4.43,1.39-3.88,4.36-5.06,8.23-5.06,44.71,.02,89.42,0,134.13,.03,2.38,0,4.65,.33,6.41,2.17,1.49,1.51,1.22,3.41,1.17,5.27Z" fill="#d6c7eb"/>
  <path d="M6.24,75.48c-2.81-.17-3.79-3.02-6-4.07v-2c1.99-4.77,5.83-6.5,10.73-6.51,17.25-.06,34.51-.05,51.76,0,1.98,0,4.02,0,5.6,1.53,1.25,4.67-1.04,8.21-3.72,11.63-1.85,.92-3.85,.86-5.84,.87-12.08,.07-24.15-.12-36.23,.24-3.29-2.1-6.97-1.04-10.49-1.3-1.94-.14-3.92,.4-5.81-.4Z" fill="#d6c7ea"/>
  <path d="M151.03,147.27c-1.88-1.51-3.95-2.05-6.42-2.05-44.98,.07-89.95,.14-134.93-.1-4.39-.02-5.49,2.76-7.5,5.17-1.87,.5-1.08-1.57-1.95-2.03v-1c2.56-5.63,7.46-6.41,12.89-6.41,43.06,.03,86.12,0,129.17,.02,1.5,0,3.01-.08,4.47,.25,3.8,.86,6.87,2.52,7.11,7.01-.33,.68-.65,1.36-.98,2.04-2.52,.24-.55-2.39-1.88-2.92Z" fill="#cabcdd"/>
  <path d="M68.22,65.43c-1.46-1.62-3.4-.99-5.14-.99-16.03-.05-32.07,.16-48.1-.13-5.74-.1-10.8,.55-14.74,5.1v-4.99c2.34-.9,3.16-3.99,6.01-4.13,7.2-.78,14.44-.41,21.64-.25,5.15,.12,10.05-.73,14.98-1.89,7.21,1.15,14.49,.66,21.74,.77,1.81,.03,3.64-.06,5.39,.56,1.84,.74,1.6,2.11,1.08,3.56-.65,1.15-1.1,2.55-2.86,2.39Z" fill="#a89db9"/>
  <path d="M153.88,148.14c-1.75-4.16-5.1-5.84-9.39-5.85-44.51-.02-89.01,.02-133.52-.07-4.56-.01-7.5,2.65-10.74,5.04v-3.99c.25-.21,.53-.27,.85-.2,2.5-2.52,5.54-3.24,9.05-3.24,44.72,.06,89.45,.04,134.17,.03,3.21,0,6.33,.19,8.96,2.33,.49,.39,.94,.82,1.37,1.28,.39,.53,.49,1.12,.32,1.76-1.19,.66-.84,1.89-1.08,2.91Z" fill="#b6aac7"/>
  <path d="M.24,148.26c.65,.68,1.3,1.35,1.95,2.03,1.01,.99,2.03,1.98,3.04,2.96-4.23,.9-5.89-.77-4.99-4.99Z" fill="#faf9fb"/>
  <path d="M71.03,60.28c-9.29-.29-18.63,1.16-27.85-.94-4.49-2.13-5.19-3.69-4.01-8.9,0-2.05,1.58-2.94,2.94-4,.74-1.15,1.17-2.78,3.14-2.01h11.02c-1.2-2.35-4.23-3.16-4.02-6.03,.47-3.84,3.05-5.68,6.43-6.74,1.92-.6,3.91-.72,5.9-.72,22.05-.05,44.1-.04,66.16,0,2.47,0,5.02-.1,7.03,1.8,1.66,1.86,2.21,4.47,4.1,6.19,.89,1.09,1.86,2.16,1.64,3.74-1.48,2.8-4.2,2.06-6.56,2.21-2.46,.15-4.93-.05-7.39-.11-5.1-.86-9.87-3.2-15.13-3.32-3.04-1.17-6.04-.38-9.05,.19-2.21,.14-4.41,.4-6.56,.97-1.85,.29-3.6,.91-5.36,1.51-1.05,.35-2.13,.64-3.14,1.11-2.72,1.42-5.19,3.22-7.67,5-3.42,2.94-6.34,6.39-9.7,9.38-.56,.44-1.18,.73-1.92,.67Z" fill="#bb8cfd"/>
  <path d="M170.95,24.43c.3,2.22-1.81,2.66-2.85,3.9-1.47,1.83-3.56,1.53-5.51,1.55-29.5,.2-59.01,.34-88.51,.21-2.43-.01-5.04,.37-7-1.73-.6-1.56-2.58-2.19-2.73-4.06,1.54-3.77,4.7-4.98,8.39-5.02,29.49-.28,58.98-.16,88.47-.18,4.28,0,7.9,.98,9.74,5.33Z" fill="#d4c5e8"/>
  <path d="M183.82,39.36c-.35,1.75-1.69,2.74-2.97,3.73-2.67,2.05,.8,1.44,.95,2.26,1.15-.55,1.9,.22,2.7,.82,1.89,2.72,4.43,5.02,5.41,8.33,.28,3.71-1.93,5-5.16,5.26-3.68,.29-7.29-.17-10.83-1.17-1.24-.34-2.44-.84-3.66-1.24-1.77-.69-3.6-1.25-5.31-2.1-4.42-2.31-8.91-4.5-13.31-6.88-.41-.2-.78-.46-1.13-.74-1.78-1.66-3.56-3.32-5.8-4.38-.62-.38-.99-.95-1.17-1.65-.54-1.4-1.73-2.32-2.61-3.49-1.42-2.91-.28-4.67,2.53-5.7,3.07-.51,6.16-.22,9.25-.29,1.86,.17,3.9-.05,4.81,2.19,.13,2.98-3.41,4.5-3.04,7.58,.32,1.98,1.43,3.34,3.26,4.09,1.39-.14,.92-1.28,1.09-2.07-.04-2.18,.77-4.06,1.95-5.82,.49-.85,1.01-1.68,1.59-2.47,1.17-1.43,2.43-2.75,4.32-3.21,2.93-.44,5.89-.41,8.82-.23,5.34,.33,7.02,1.84,8.29,7.19Z" fill="#bc8cfd"/>
  <path d="M218.83,102.22c-.9,2.25-2.49,3.7-4.89,4.21-2.13,1.29-4.56,1.45-6.93,1.83-16.19-.76-32.39-.14-48.58-.37-2.6-.04-5.34,.42-7.57-1.55-1.18-4.41,.68-7.78,3.69-10.77,1.57-.68,3.23-.69,4.89-.69,16.75,0,33.5-.05,50.25,.02,6.32,.03,8.05,1.52,9.13,7.32Z" fill="#d6c7eb"/>
  <path d="M67.07,28.36c33.67-.01,67.35-.02,101.02-.03,3.97,.25,8-.06,11.87,1.22-.35,2.62-2.55,2-4.14,2.21-2.39,.32-4.88-.1-7.16,1-1.28-.16-2.56-.31-3.84-.43-3.72-.84-7.46-.69-11.2-.17-.49,.13-.99,.19-1.5,.19-.5,.01-.99-.04-1.48-.15-4.53-.7-9.04-1.26-12.78,2.37-1.16-2.06-3.06-2.11-5.14-2.1-23.08,.04-46.17,.09-69.25-.02-4.96-.02-8.58,1.89-11.21,5.96-1.36-4.93,1.66-9.34,6.92-9.85,2.61-.26,5.26-.14,7.9-.19Z" fill="#916cc4"/>
  <path d="M170.95,24.43c-3.28-3.22-7.18-4.04-11.77-4.01-24.41,.19-48.83,.16-73.24,.03-4.56-.02-9.01,1.36-13.72,.26-2.93-.68-5.51,1.76-7.86,3.59-.21-6,1.28-7.54,7.66-7.86,.53-.69,1.05-1.43,2.1-.84,1.16,1.96,3.12-.93,4.34,.7,1.72,1.94,4.03,1.17,6.08,1.17,25.68,.06,51.36,.05,77.04,.02,3.03,0,5.98,.05,8.52,1.99,1.77,1.39,.89,3.24,.87,4.95Z" fill="#ab9ac3"/>
  <path d="M155.25,75.42c2.33,.05,4.65,.18,6.98,.13,4.55-.11,8.13,1.32,9.94,5.84,1.78,4.29,.4,7.46-3.44,9.78-4.42,.88-8.83,1.17-13.22-.14-.54-.31-.87-.77-1-1.38,.76-4.71-.85-9.56,.75-14.23Z" fill="#bd8dfe"/>
  <path d="M194.04,51.42c3.66,2.68,1.97,6.11,.7,8.92-1.61,3.55-4.54,6.07-8.86,6.07-8.42,.01-16.84,.19-25.25-.08-3.37-.11-5.57,.66-6.47,4.03-.23-.21-.45-.42-.68-.63-.44-.72-.64-1.51-.75-2.34-.86-6.52-.26-7.28,6.23-7.34,7.29-.07,14.58-.02,21.86-.02,1.76-.04,3.52,.04,5.29,.02,3.15-.02,5.23-1.32,5.77-4.59,.47-1.49,.76-3.06,2.17-4.04Z" fill="#e8e8e8"/>
  <path d="M218.83,102.22c-1.78-4.59-5-6.07-9.98-5.98-18.18,.31-36.37,.16-54.56,.18-.79-1.42,.11-2.31,1.02-3.2,2.2-1.52,4.74-1.33,7.21-1.32,14.6,.05,29.2,.2,43.8,.02,4.63-.06,8.91,.49,12.63,3.45,2.21,2.32,.31,4.58-.12,6.86Z" fill="#b7acc8"/>
  <path d="M170.07,19.49c-2.72-.78-5.48-1.02-8.32-1.01-26.38,.05-52.76,.07-79.14-.08-1.34,0-4.53,1.96-4.18-2.09,27.92,.07,55.84,.15,83.76,.19,3.04,0,6.02-.03,7.88,2.99Z" fill="#a69bb7"/>
  <path d="M154.96,145.23c.04-.32,.06-.64,.04-.96,.19-.19,.39-.38,.58-.58,1.84-1.02,3.88-.64,5.84-.84,7.37-.76,9.91-2.67,11.05-9.74,.66-4.08,2.69-5.21,6.36-5.17,6.46,.07,12.93,.04,19.4,0,1.65,0,3.3,.02,4.95-.32,8.4-1.73,10.61-5.81,7.8-14.5-.44-1.71-2.47-3.29-.43-5.2,4.64,1.15,6.32,4.84,6.55,8.9,.29,5.09-.85,9.98-5.92,12.76-3.08,1.69-6.31,2.74-9.94,2.76-6.96,.04-13.91-.37-20.87-.08-2.9,.12-5.13,.23-5.1,4.24,.02,2.07-.81,4.63-3.27,5.78-5.05,4.62-11.26,2.6-17.05,2.96Z" fill="#f4f3f4"/>
  <path d="M172,142.27c1.45-1.85,2.72-3.97,2.8-6.23,.14-4.22,2.65-4.77,5.96-4.76,7.29,.04,14.59,.1,21.88-.02,5.56-.09,10.4-2.77,12.64-7.45,2.17-4.54,1-9.71-2.53-13.89-.82-.97-1.66-1.57-2.92-1.52-1.11,.54-1.89,.48-1.91-1.02,1.78-1.77,4-.74,6.02-.95,.04,2.95,3.44,3.7,4.03,6.48,2.11,9.99-3.17,20.17-15.75,20.36-7.42,.11-14.83,.09-22.25-.02-2.57-.04-3.84,.52-4.17,3.45-.24,2.18-.27,5.28-3.79,5.57Z" fill="#fafafa"/>
  <path d="M218.94,95.36c-19.86-4.29-39.97-.93-59.94-2-1.38-.07-2.62,.27-3.76,1.02-1.4-1.3-1.37-2.62-.05-3.96,4.59-.06,9.19-.12,13.78-.18,.91-.39,1.88-1.07,2.81-.84,13.49,3.27,27.19,.65,40.76,1.48,.82,.05,1.65,0,2.4,.43,1.64,1.05,3.27,2.11,4,4.06Z" fill="#ada1bf"/>
  <path d="M214.94,91.31c-9.9-.02-19.81-.15-29.71-.02-5.46,.07-10.86-.32-16.25-1.04,2.46-2.45,3.39-5.44,3.18-8.85,1.96,.92,2.42,3.03,2.44,4.61,.07,4.36,2.63,4.42,5.88,4.38,9.76-.12,19.53-.07,29.29-.02,1.75,.01,3.68-.6,5.18,.94Z" fill="#edebef"/>
  <path d="M155.25,75.42c.57,4.7,2,9.41-.17,14.08-1.41-1.17-1.56-2.89-1.73-4.48-.71-6.98-2.8-13.47-6.54-19.42-.52-.84-.74-1.82-.8-2.83-.01-.83,.18-1.6,.64-2.3,.63-.59,1.38-.73,2.2-.56,3.89,2.45,4.02,6.72,5.1,10.54l.2-.09c.36,1.69,.73,3.38,1.09,5.06Z" fill="#4f248a"/>
  <path d="M60.32,8.55c.28-4.55,3.14-6.97,7.12-8.23,3.09-.98,5.35,.35,6.75,3.2,.51,1.37,1.12,3.25-.35,3.87-2.11,.89-2.43-2.19-4.11-2.71-1.8-.16-3.05,.87-4.27,1.95-1.72,.61-1.93,5.28-5.14,1.92Z" fill="#8553cc"/>
  <path d="M167.76,32.36c1.88-1.87,4.2-1.96,6.68-1.93,1.85,.02,3.91,.75,5.53-.88,4.43,2.04,5.42,5.42,3.85,9.81-2.27-5.7-6.95-6.37-12.23-5.9-1.81,.16-3.64,.07-5.47,.09-.4-1.69,.47-1.64,1.63-1.19Z" fill="#9973cf"/>
  <path d="M39.17,50.44c-.04,3.58,1.14,6.62,4.01,8.9-12.27,2.05-24.62,.61-36.93,.95,5.13-1.97,10.46-.39,15.68-.86,1.48-.13,2.98-.01,4.48-.02,2.98-.02,6.1,.48,8.92-.22,3.78-.93,.63-5.16,2.62-7.22,.45-.47,.82-1.01,1.22-1.52Z" fill="#eeedef"/>
  <path d="M50.98,11.51c-.15,2.39-1.07,4.72,.59,7.12,1.21,1.74-.84,2.6-1.96,3.3-1.46,.91-1.92-.64-2.55-1.5-1.17-1.59-.99-3.43-.84-5.25,.19-2.3,.61-4.64-1.23-6.56,3.29-1.71,4.33,1.24,6,2.89Z" fill="#9b62eb"/>
  <path d="M194.04,51.42c-.08,1.46-.28,2.88-1.18,4.11-1.97,.09-2.38-1.78-3.5-2.77-1.69-2.13-3.75-3.95-5.25-6.24-.77-.39-1.54-.78-2.32-1.17,6.45-2.19,9.75-.55,12.24,6.08Z" fill="#bc8efc"/>
  <path d="M36.09,8.36c5.1-6.28,9.94-6.8,14.05-1.53,.89,1.19,.25,1.78-.85,2.19-4.38-3.09-8.28,.02-12.34,.98-.76-.31-1.34-.7-.85-1.65Z" fill="#804ec4"/>
  <path d="M69.74,4.68c1.36-.88,4.68,5.77,4.46-1.16,1.04,4.03,.65,8.06-.09,12.08-.7,.28-1.4,.56-2.1,.84-1.18-2.28-2.31-4.49-1.15-7.23,.67-1.59-.45-3.08-1.12-4.52Z" fill="#9a61e8"/>
  <path d="M31.16,37.48c.81-4.39,3.74-6.69,7.9-6.84,2.79-.1,5.13,1.41,5.13,4.84-4.73-1.83-8.84,.3-13.03,2Z" fill="#8657c6"/>
  <path d="M45.25,44.44c-1.05,.67-2.1,1.34-3.14,2.01-3-3.24-.92-7.38-1.95-10.97,2.49-.6,2.96,1.46,3.87,2.93-.24,2.14,.61,4.06,1.22,6.03Z" fill="#9e69e8"/>
  <path d="M41.39,9.62c-.63,1.16-1.56,2.25-1.25,3.68,.58,2.65-.76,4.7-3.01,4.76-2.21,.05-2.55-2.56-2.8-4.54,.27-.31,.62-.48,1.02-.52,1.85-1.4,2.45-5.07,6.04-3.37Z" fill="#9d62ef"/>
  <path d="M41.39,9.62c-3.21-.5-3.6,3.47-6.21,3.91-1.17-2.25,.69-2.99,2-4,3.79-2.82,7.7-4.11,11.99-1,.88,.42,1.45,1.12,1.88,1.96-.02,.34-.04,.67-.07,1.01-2.5,.08-3.31-3.35-6-2.89-1.2,.33-2.39,.67-3.59,1Z" fill="#8e55dd"/>
  <path d="M44.04,38.41c-1.29-.98-2.58-1.96-3.87-2.93-2.22-.77-3.61,.5-4.91,2-1.14,1.17-1.41,3.49-3.87,2.91-.07-.97-.15-1.94-.22-2.92,3.94-3.28,8.03-5.62,13.03-2-.05,.98-.1,1.96-.15,2.93Z" fill="#8a55d2"/>
  <path d="M60.32,8.55c2.55,1.6,3.13-2.07,5.14-1.92-.08,.49-.34,1.04-.2,1.45,.83,2.34-.27,4.42-2.2,4.66-2.44,.3-2.49-2.31-2.75-4.19Z" fill="#9f65ee"/>
  <path d="M56.13,22.77c1.78,1.47,1.19,2.96-.2,4.15-1.07,.92-2.58,.98-3.66,0-1.38-1.26-1.78-2.78,0-4.17,1.29,.55,2.57,1.47,3.86,.02Z" fill="#8f5dd5"/>
  <path d="M31.38,40.39c1.29-.97,2.58-1.94,3.87-2.91,.39,1.75,.98,3.55-1.21,4.63-1.84,.9-2.28-.36-2.66-1.72Z" fill="#9b61ec"/>
  <path d="M56.13,22.77c-.15,.88,.35,2.27-1.03,2.33-1.43,.07-2.12-1.27-2.84-2.35,1.29-.64,2.58-.73,3.86,.02Z" fill="#7b49bf"/>
  <path d="M37.19,9.54c-.57,1.38-2.15,2.26-2,4-.28,0-.56-.01-.84-.02-.35-2.03,.16-3.78,1.75-5.16,.36,.39,.73,.79,1.09,1.18Z" fill="#8957cf"/>
  <path d="M151.03,147.27c.63,.97,1.25,1.95,1.88,2.92-.3,.35-.6,.7-.9,1.05-1.43-1.05-.83-2.6-.97-3.97Z" fill="#cfc2e1"/>
  <path d="M51.05,10.5c-.63-.65-1.25-1.31-1.88-1.96,.72-.34,.94-.97,.97-1.7,1.52,.92,1.05,2.34,.91,3.67Z" fill="#8a58cf"/>
  <path d="M207.92,107.38c.64,.34,1.27,.68,1.91,1.02,.74,1.32,1.48,2.64,2.21,3.96,.56,1.95,.66,3.95,.53,5.96-2.16,4.2-5.8,5.46-10.29,5.44-9.9-.05-19.81-.07-30.27,.02,.75,2.99,1.41,5.66,.97,8.4-.03,.88-.08,1.75-.55,2.54-2.26,3.55-5.62,4.94-9.7,5-4.14,.06-8.28,0-12.43-.03-39.57,0-79.14,0-118.7,0-2.66,0-5.32,.13-7.97-.2-3.55-.79-5.93-2.94-7.23-6.31-.4-2.05-.35-4.04,.83-5.87,1.83-3.76,5.06-4.94,8.98-4.96,7.98-.02,15.95-.09,23.93-.13,.7-.84,1.7-.99,2.69-1.11,1.3-.14,2.63,.09,4.41-.28-1.66-2.89-2.87-5.76-1.87-8.97,2.78-5.42,7.32-7.3,13.16-6.54,1.93,.44,3.01,1.92,3.96,3.44,3.17,5.08,7.42,9.08,12.26,12.51,2.49,1.83,5.17,3.3,8.09,4.35,3.97,1.57,8.11,2.3,12.34,2.63,9.85,1.46,18.9-1.09,27.55-5.54,1.23-.68,2.52-1.25,3.66-2.09,2.64-2,5.59-3.66,7.16-6.8,2.67-2.61,3.27-7.08,7.48-8.29,1.56,1.43,3.48,.81,5.24,.82,14.61,.05,29.21,.06,43.82,0,2.68-.01,5.28,.21,7.82,1.04Z" fill="#bc8cfe"/>
  <path d="M22.06,76.28c10.47-1.74,21.02-.44,31.52-.81,3.78-.13,7.58-.06,11.37-.08,.19,.18,.38,.36,.58,.54,.21,.5,.3,1.01,.28,1.55-.42,3.17-.35,6.36-.3,9.55-.06,1.8-.06,3.61-1.63,4.9-1.34,.78-2.83,.92-4.32,.93-11.09,.07-22.19,.28-33.27-.07-8.14-.26-11.49-5.11-9.07-12.42,.98-1.33,1.97-2.66,2.95-3.99,.6-.56,1.23-.53,1.89-.12Z" fill="#bc8dfd"/>
  <path d="M17.23,80.39c-.07,8.79,2.2,11.07,11.09,11.05,11.89-.03,23.77-.11,35.66-.17,1.06,.44,1.56,1.34,1.98,2.33,.57,2.5,1.92,4.95,.57,7.6-.41,.45-.87,.5-1.38,.17,.22-3.44-2.22-3-4.37-3-11.27,0-22.54,.1-33.8-.03-9.97-.12-15.39-7.9-11.47-16.25,.32-.68,1.13-1.13,1.72-1.69Z" fill="#f3f3f3"/>
  <path d="M154.12,144.24c-2.98-2.4-6.35-3.04-10.17-3.03-39.49,.1-78.98-.02-118.46,.13-8.15,.03-16.46-1.43-24.41,1.73,.21-1.94,1.62-2.94,3.08-3.9,42.83-1.02,85.66-.02,128.5-.4,6.32-.05,12.62,.15,18.91,.73,2.51,.68,3.9,1.97,2.55,4.73Z" fill="#b0a4c0"/>
  <path d="M152.07,140.21c-43.97-2.04-87.96-.42-131.93-.9-4.12-.04-8.29-.58-12.37,.82-1.2,.42-2.68,.37-3.6-.96,3.51-1.9,7.36-.3,10.98-1.07,.87-.88,1.96-1.03,3.12-.98,1.33,.35,2.72,.51,3.99,1.09,42.94,.04,85.89,.08,128.83,.12,.54,.52,1.47,.83,.98,1.88Z" fill="#a79bb7"/>
  <path d="M65.14,101.36c.33,0,.65,0,.98,0,2.92,.5,3.97,2.17,3.13,5.01-5.46-.42-10.26,.61-13.1,5.95-1.93,3.02-.4,7.09-3,9.91-1,0-2.01-.02-3.02-.03-1.56-8.51,3.61-16.27,12.75-18.18,2.19-.46,2.24-1.16,2.26-2.67Z" fill="#faf9fa"/>
  <path d="M18.11,138.18c-.99-.02-1.98-.04-2.96-.07-1.67-4.06-1.25-7.72,2.08-10.81,.03,1.98,.05,3.96,.08,5.94,.06,1.68,2.19,3.02,.81,4.93Z" fill="#f4f4f5"/>
  <path d="M22.06,76.28c-.63,.04-1.26,.08-1.89,.12-4.64-.44-9.4,1.03-13.94-.92,5.27,.35,10.63-1,15.83,.8Z" fill="#f3f3f3"/>
  <path d="M68.22,65.43c.63-.67,1.27-1.33,1.9-2,.22,0,.43-.01,.65-.02,1.4,.47,3.18,.06,4.08,1.73-.21,5.21-3.87,9.11-9.63,10.28,0,0-.26-.02-.26-.02,1.09-3.32,2.17-6.64,3.26-9.96Z" fill="#9b7ac8"/>
  <path d="M71.03,60.28c.37-.3,.74-.59,1.1-.89,1.41-.43,2.5-.03,3.27,1.24-.68,2.88-2.5,3.66-5.2,2.81,0,0-.09-.01-.09-.01,.3-1.05,.61-2.1,.91-3.15Z" fill="#876ea8"/>
  <path d="M152.07,140.21c-.33-.63-.65-1.26-.98-1.88,3.29,0,6.6-.25,9.85,.06,4.47,.42,8.03-1.01,10.98-4.28,.59,4.72-1.54,7.47-6.23,8.68-3.5,.9-7.29-.55-10.58,1.5,0,0-.11-.02-.11-.02-.29-.02-.58-.03-.87-.03-.07-1.66-.28-3.24-2.06-4.03Z" fill="#dedede"/>
  <path d="M148.99,60.38c-.59,0-1.18,.01-1.77,.02-.6-1.23,.42-1.44,1.12-1.84,1.6-1.25-.73-.9-.65-1.52-1.06-1.46-2.56-2-4.3-2.05-4.79-3.83-10.23-6.86-14.35-11.52,3.48,0,6.97,.01,10.45-.02,1.44-.01,3.12,.35,3.55-1.75,.21-.46,.53-.56,.97-.32,.38,.38,.76,.75,1.14,1.13,1.68,2,3.99,3.25,5.91,4.97l-.06-.05c3.86,3.57,5.99,8.59,10.07,11.98,.35,.29-.04,.91-.38,1.29-3.9-.26-7.85,1.59-11.7-.32Z" fill="#bb8cfc"/>
  <path d="M129.04,43.47c5.76,2.72,10.4,6.97,15.17,11.04,0,1.8-1.05,2.44-2.67,2.47-4.18-1.97-7.52-5.25-11.72-7.26-4.86-2.33-9.78-3.89-15.16-3.94-.33,0-.66-.01-.99-.04-2.24-.21-4.67-.56-4.31-3.52,.4-3.35,2.98-2.15,5-1.84,5.23-.55,9.83,1.88,14.68,3.1Z" fill="#492081"/>
  <path d="M98.1,41.56c2.27-.74,4.53-1.51,6.97-1.12,1.19,1.34,1.33,2.85,.75,4.48-2.92,2.62-7.01,4.36-6.97,9.22-.69,1.58-1.98,2.67-3.1,3.9-2.22,1.58-2.13,4.39-3.44,6.45-.75,.31-1.27-.02-1.7-.59-.52-2.38-2.87-.08-3.79-1.47-.34-.65-.35-1.31-.08-1.98,3.22-2.89,5.81-6.29,8.18-9.89,1.24-1.89,1.65-3.93,1.33-6.15,.02-1.34,.69-2.26,1.86-2.84Z" fill="#6a31b6"/>
  <path d="M105.14,45.32c-.02-1.63-.04-3.26-.06-4.89,3.09-.61,6.17-1.51,9.28-.07-1.54,.44-4.17-.74-4.06,2.23,.09,2.54,2.37,1.85,3.86,1.83,11.14-.15,19.81,5.37,27.99,12.05,.06,1.42-.86,1.49-1.91,1.4-3.18-1.92-6-4.45-9.49-5.87-2.7-1.88-5.54-3.42-8.95-3.53-.5-.06-.98-.17-1.47-.3-4.04-1.04-8.15-1.51-12.32-1.44-1.11-.15-2.17-.39-2.86-1.4Z" fill="#4c2089"/>
  <path d="M75.14,60.42c-1-.34-2-.69-3-1.03,2.92-3.73,6.2-7.1,9.96-9.99,1.29,.28,2.08,1.06,2.38,2.34-.39,2.26-2.28,3.5-3.72,4.89-1.37,1.33-1.01,2.38-.43,3.7-.29,.4-.66,.69-1.1,.88-.71,.24-1.43,.3-2.17,.23-.76-.11-1.4-.45-1.91-1.02Z" fill="#9261d5"/>
  <path d="M137.86,34.57c.08-2.63,1.63-4.03,4.08-4.02,3.06,.02,6.27-.96,9.14,.94-.01,2.27-1.77,1.25-2.82,1.45-1.7,.33-3.54-.54-5.15,.58-2.34,1.17-2.67,2.72-.89,4.67,.27,1.14-.18,1.58-1.31,1.36-1.85-1.15-2.58-2.99-3.05-4.98Z" fill="#4d3aad"/>
  <path d="M98.1,41.56c-.34,.97-.67,1.94-1.01,2.91-1.51,5.94-4.07,11.18-9.59,14.47-.78-.02-1.38-.34-1.66-1.11,.07-1.27,.96-2.09,1.67-3,1.56-1.69,2.01-3.93,2.91-5.95,.8-1.9,1.19-3.99,2.6-5.6,1.52-1.09,3.24-1.56,5.08-1.72Z" fill="#7a41c8"/>
  <path d="M84.12,51.45c-.97-.39-1.63-1.08-2.02-2.05,2.49-1.95,4.88-4.06,8.02-4.95,.73,1.41,.11,2.66-.47,3.91-1.2,1.37-2.66,2.4-4.25,3.26-.45,.14-.88,.07-1.28-.17Z" fill="#8a57cd"/>
  <path d="M89.11,48.45c-.15-1.45,.33-2.75,1-4,.7-1.06,1.86-.97,2.91-1.16,.09,2.28-.44,4.37-1.91,6.16-1.11,.55-1.61-.12-2-1Z" fill="#834fc8"/>
  <path d="M45.16,46.43c1.07-1.39,2.24-1.1,3.3-.06,1.15,1.12,.11,2.06-.41,3.02-2.8,.81-3.55-.38-2.89-2.96Z" fill="#7f4ec5"/>
  <path d="M45.16,46.43c.13,1.8,.96,2.91,2.89,2.96-.8,1.35-1.88,1.16-2.84,.33-1.14-.99-1.39-2.17-.06-3.28Z" fill="#905bd9"/>
  <path d="M140.9,39.55c.44-.45,.87-.9,1.31-1.36,1.08,.79,1.85,1.75,1.79,3.18-.32,.11-.65,.21-.97,.32-.71-.71-1.42-1.43-2.14-2.14Z" fill="#543fb7"/>
  <path d="M160.88,59.62c-5.47-2.31-7.46-7.42-9.87-12.19,5.15,1.43,9.57,4.28,13.95,7.2,.28,.41,.26,.79-.09,1.13-2.62,1.23,1.16,3.63-.9,4.97-1.31,.42-2.27-.14-3.09-1.1Z" fill="#503cba"/>
  <path d="M190.13,52.36c.91,1.06,1.82,2.11,2.73,3.17,.93,4.16-1.48,5.59-4.99,5.89-1.92,.17-3.87-.02-5.81-.05-1.96-.98-4.2-.06-6.19-.91-1.2-.1-2.45-.08-3.15-1.34-.11-.49-.04-.95,.22-1.38,3.76,.3,7.51,.63,11.27,.87,3.5,.23,5.44-1.1,4.64-4.95-.29-1.13,.14-1.55,1.27-1.3Z" fill="#513fb2"/>
  <path d="M157.98,47.48c-2.48-.86-4.33-2.31-4.84-5.05,3.21-5.19,4.18-5.63,8.76-3.97-1.2,1.84-2.05,3.79-2.02,6.04-1.12,.69,.79,3.3-1.91,2.98Z" fill="#503cba"/>
  <path d="M161.91,38.46c-3.98-1-6.15,1.98-8.76,3.97-.37-3.22,1.31-5.32,3.79-6.99,.41-.33,.85-.6,1.32-.82,1.91-.35,3.69-.34,4.62,1.81-.32,.68-.65,1.36-.97,2.03Z" fill="#4e3ab4"/>
  <path d="M162.88,36.43c-1.49-.97-3.15-1.03-4.85-.96-.61-.6-.5-1.32-.34-2.05,.99-1.21,2.32-1.72,3.82-1.91,1.15,.03,2.25-.93,3.43-.14,.98,.21,2.19-.23,2.82,.99-.73,.14-1.39,.38-1.64,1.19-1.08,.96-2.16,1.92-3.25,2.88Z" fill="#4937ab"/>
  <path d="M190.13,52.36c-.42,.43-.85,.87-1.27,1.3-1.55-2.4-4.51-3.87-4.74-7.15,2.38,1.57,4.31,3.59,6.01,5.84Z" fill="#5540b2"/>
  <path d="M151.06,47.47c-2.73-.75-5.29-1.71-5.91-4.97,2.73,.75,4.84,2.24,5.91,4.97Z" fill="#5d46bc"/>
  <path d="M143.1,33.52c2.21-2.45,5.72,.2,7.98-2.04,.3,0,.6,0,.9-.02,.6,.52,1.61,.8,1.11,1.94-3.33,.04-6.66,.07-9.99,.11Z" fill="#9973cf"/>
  <path d="M153.09,33.41c-.37-.65-.74-1.29-1.11-1.94,.37-.03,.75-.06,1.12-.09,1.17-.81,2.25,.13,3.38,.17,.93,.29,1.86,.58,1.55,1.88,0,.68,0,1.36,0,2.04-.37-.01-.73-.02-1.1-.04-.21-2.71-2.43-1.6-3.84-2.02Z" fill="#5640b3"/>
  <path d="M165.04,55.19c-.03-.19-.06-.38-.09-.56,1.94-.07,3.66,.55,5.21,1.7-.23,.82-.75,1.33-1.58,1.54-1.63-.3-3.79,.11-3.54-2.67Z" fill="#5a43b7"/>
  <path d="M169.05,57.29c.37-.32,.74-.65,1.11-.97,1.06,.21,2.35-.03,2.78,1.42,0,0,.08,.25,.08,.25-1.72,2.01-2.94,1.21-3.97-.69Z" fill="#4534a7"/>
  <path d="M157.98,47.48c.64-.99,1.27-1.99,1.91-2.98-.47,1.1,1.54,3.79-1.91,2.98Z" fill="#533ebf"/>
  <path d="M151.03,105.52c-2.44,2.84-3.87,6.46-6.87,8.86-.36,.33-.76,.38-1.19,.14-.26-.39-.37-.82-.34-1.29,.18-.92,.59-1.73,1.1-2.5,1.74-2.19,3.37-4.44,4.38-7.74-2.25,.93-3.88,2.23-5.76,2.97-.47,.19-.94,.33-1.43,.44-2.62,.3-5.23,.44-7.81-.27-4.35-2.06-7.67-5.09-8.81-9.92-.57-2.42-.89-5,2.33-6.1,2.18,1.3,2.13,3.77,3,5.75,.36,4.61,3.35,6.11,7.46,6.26,5.28,.2,7.76-1.63,9.31-6.85,.15-1.17,.53-2.25,1.08-3.29,5.35-4.65,2.64-10.21,1.75-15.55-.69-2.7-1.86-5.19-3.09-7.68-.84-1.7-2.06-3.43-.96-5.51,.42-.65,.96-1.09,1.79-1.02,.4,3.73,3.19,6.35,4.57,9.67,2.38,5.73,2.95,11.63,3.56,17.62-.03,.31,0,.62,.12,.92,.02,1.32,.03,2.64,.05,3.96-.32,.68-.64,1.35-.96,2.03-1.08,3.04-2.16,6.07-3.25,9.11Z" fill="#4f218f"/>
  <path d="M156.14,32.24c-1.01-.29-2.03-.58-3.04-.87,3.95-1.44,7.89-1.42,11.84,0-1.01,.3-2.01,.6-3.02,.9-1.93-.23-3.86-.17-5.78-.03Z" fill="#9973cf"/>
  <path d="M175.88,59.67c1.97,.88,4.38,.2,6.18,1.7-7.92,.02-15.83,.14-23.75,0-3.46-.06-5.92,.1-4.32,4.66,.46,1.31,0,2.94-.02,4.42-1.66-3.36-3.31-6.72-4.97-10.07,3.95-.38,8.01,.88,11.88-.76,.96,.22,1.93,.44,2.9,.66,3.9-2.83,8.1,.28,12.1-.6Z" fill="#ab9ebc"/>
  <path d="M155.1,144.29c1.75-3.94,5.2-1.7,7.8-1.9,5.93-.46,8.28-2.32,9.02-8.28,.07-.62,.14-1.25,.21-1.87,.94-5.85,1.42-6.28,7.68-6.37,6.28-.09,12.57,.17,18.85-.11,5.64-.25,10.93-1.4,13.22-7.6,.06-1.94,.11-3.88,.17-5.81,4.9,8.79-.45,16.78-11.59,16.92-7.32,.09-14.64,.11-21.95-.03-2.95-.06-4.3,.49-4.66,3.96-.79,7.63-4.57,10.58-12.75,11.03-1.99,.11-3.99,.04-5.99,.05Z" fill="#e7e6e8"/>
  <path d="M146.95,62.22c-.32,.33-.65,.66-.97,.99-1.78,.28-1.61-1.1-1.83-2.16,1.8-3.87,2.51-4.12,4.81-1.67-.72,.1-1.51,.08-1.74,1.02-.09,.6-.18,1.21-.27,1.81Z" fill="#dbd8df"/>
  <path d="M211.87,118.17c.04,6.63-4.71,8.57-12.4,9.04-6.62,.41-13.3,.35-19.93,0-4.09-.22-6.59,.93-7.41,5.04,.15-3.54-.14-6.93-3.24-9.88,10.68,0,21.36-.21,32.03,.1,4.48,.13,8.11-.8,10.96-4.3Z" fill="#dedede"/>
  <path d="M69.25,106.37c-1.04-1.67-2.08-3.34-3.13-5.01-.36-2.58-.72-5.16-1.08-7.74-.53-1.08-.43-2.01,.64-2.71,3.35-.9,3.35,2.36,4.79,3.84,.67,1.02,1.12,2.12,1.25,3.34,.11,1.08,0,2.53,1.61,2.34,2.01-.24,1.36-2.19,1.77-3.45,.17-.74,.49-1.39,1.14-1.83,1.31,.07,1.65,1.04,1.95,2.06,.27,1.56,.22,3.1-.23,4.63-.25,.71-.66,1.33-1.16,1.89-2.95,1.81-2.88,4.04-.92,6.56,1.29,1.65,2.32,3.57,4.48,4.35,1.41-.93,1.21-2.71,2.19-3.82,.54-.58,1.13-.92,1.9-.38,1.16,1.79,1.17,3.82,1.29,5.84-.45,1.93,.05,4.14-1.6,5.74-6.48-3.78-10.75-9.65-14.89-15.65Z" fill="#532493"/>
  <path d="M134.01,123.24c-8.93,5.38-18.47,7.88-28.92,6.09-.69-1.95,.95-2.93,1.8-4.22,2.08-3.13,4.18-6.25,3.86-10.27,.05-1.76-.11-3.55,.82-5.16,2.44-1.08,2.62,1.05,3.09,2.37,1.16,3.24,.66,6.53-.46,9.66-1.25,3.48,.12,3.82,3.2,3.48,4.36-.49,8-2.91,12.14-3.98,1.77,.07,3.91-.67,4.48,2.03Z" fill="#532495"/>
  <path d="M111.94,114.95c.58,6.16-3.62,10.04-6.85,14.38-4.65,.36-8.97-.72-13.03-2.95-.35-1.48,.78-1.72,1.74-2.11,7.1,.34,12.81-2.02,16.47-8.43,.33-.58,.99-.82,1.67-.9Z" fill="#461f7b"/>
  <path d="M53.15,122.24c.19-3.55-.05-7.23,3-9.91-.29,3.61,.76,6.78,3.86,9.35-2.68,1.02-4.78,.58-6.86,.56Z" fill="#ebe9ec"/>
  <path d="M94.31,125.2c-.9,.12-1.78,.26-2.25,1.19-2.98-.85-5.75-2.05-7.92-4.36,.23-1.9-.67-3.96,.79-5.69,2.6,3.52,6.84,5.29,9.38,8.87Z" fill="#4f2785"/>
  <path d="M142.97,114.31c.4,.03,.8,.05,1.2,.08-1.27,3.44-4.27,5.08-7.13,6.86-.67-.11-1.11-.5-1.36-1.12-.05-.43,0-.84,.14-1.24,.26-.6,.55-1.18,.81-1.78,.54-1.54,.9-3.23,2.84-3.7,1.32-.29,2.51-.04,3.51,.9Z" fill="#5d2e9f"/>
  <path d="M135.86,120.27c.39,.33,.78,.65,1.17,.98-.73,1.09-1.81,1.64-3.02,1.99-1.41-1.56-3.29-.63-4.93-.94-.33-.48-.29-.93,.12-1.35,2.13-1.07,4.35-1.32,6.66-.68Z" fill="#6536a7"/>
  <path d="M18.11,138.18c-.27-1.64-.54-3.29-.81-4.93,1.34,1.97,3.04,3.57,4.96,4.97-1.38-.01-2.77-.03-4.15-.04Z" fill="#cbc8cf"/>
  <path d="M64.24,86.43c-.14-3.38-.65-6.79,.92-10.02,2.49-1.31,4.94-2.76,7.95-2.28,1.27,1.14,1.6,2.59,1.37,4.21-1.63,2.42-2.89,5.16-5.44,6.82-1.42,.93-2.77,2.51-4.8,1.26Z" fill="#7d42ca"/>
  <path d="M73.18,74.41c-2.57,1.07-5.14,2.19-8.03,2.01,.02-.33,.04-.67,.06-1,3.7-3.08,9.18-4.72,8.93-11,.35-1.11,1.18-1.6,2.27-1.78,.8-.05,1.54,.13,2.21,.58,2.01,1.96,1.76,4.13,.59,6.38-1.88,1.75-3.08,4.39-6.03,4.81Z" fill="#9062ce"/>
  <path d="M64.24,86.43c4.85-.71,6.18-5.72,9.77-7.97,1.04,.2,1.45,.89,1.47,1.89-.15,.65-.44,1.24-.73,1.84-.75,3.14-2.54,5.61-5,7.63-.93,1.16-2.55,.69-3.62,1.55-.89,.49-.98,1.38-1.11,2.25-.35-.78-.71-1.57-1.06-2.35,.09-1.61,.18-3.22,.27-4.83Z" fill="#56259b"/>
  <path d="M76.14,63.41c-.66,.33-1.33,.67-1.99,1-1.6,.83-2.92,.51-3.95-.97,2.01-.41,3.9-1.01,4.93-3.02,.66,0,1.33,0,1.99,0,1.15,1.48,.1,2.24-.99,2.99Z" fill="#8a68b8"/>
  <path d="M140.11,57.49c.82-.06,1.66-.09,2.04-1.02,.69-.66,1.38-1.31,2.07-1.97,2.62-2,2.93,.46,3.76,1.93-1.61,1.14-3.25,2.23-4.81,3.44-1.61,.42-2.73-.1-3.27-1.72,.07-.22,.14-.44,.22-.67Z" fill="#bab6c1"/>
  <path d="M143.08,59.31c1.08-1.9,2.56-3.13,4.9-2.88,1.11,.56,2.8,.88,3.18,1.76,.37,.87-1.19,1.18-2.19,1.19-2.95-2.17-3.43,.11-4.01,2.22-1.54-.02-1.85-1.04-1.87-2.3Z" fill="#ceccd2"/>
  <path d="M69.14,89.37c2.04-2.43,4.07-4.86,4.99-7.98,1.01,.59,1.45,1.75,2.36,2.44,1.9,1.45,3.92,1.47,5.94,.32,2.43-1.37,2.65-3.49,1.84-5.91-.4-2.11-.59-4.25-.9-6.37-.01-.49,.06-.97,.19-1.45,2.02-2.84,3.01-6.79,7.51-6.95,.29,.32,.58,.65,.87,.97,.37,.31,.59,.69,.63,1.18-.33,2.7,.86,4.48,3.41,5.22,3.72,1.08,5.86-1.13,7.63-3.93,2.4-2.45,5.18-4.2,8.69-4.56,1.27,1.64,1.18,3.62,1.4,5.53-.41,2.88,1.08,4.73,3.72,4.77,3.24,.05,5.12-1.95,5.06-5.39,.71-2.78-.69-5.29-1.02-7.94,.18-1.29,1-2.16,1.92-2.97,4.22-4.86,10.21-3.32,14.11,3.62-.81,4.05-2.67,7.29-6.95,8.73,.63,1.14,1.97,1.07,2.68,1.86,.55,.41,1.03,.89,1.47,1.42,.8,.94,1.42,2.5,2.94,.75,.95-1.09,1.72-2.38,3.12-3.03,1.36-.48,2.73-.88,4.21-.58,.44,.27,.78,.63,1.04,1.07,1.2,2.66,2.01,5.45,2.62,8.29,.42,1.95,.64,3.88-1.43,5.16-1.47,.3-2.48-.68-3.62-1.3-6.41-3.5-12.03-1.55-14.9,5.15-.45,1.05-.6,2.27-1.76,2.89-3.86,3.64-1.19,6.96,.83,9.95,1.33,1.97,3.54,3.36,5.35,5.01,3,.8,5.99,.8,8.99,0,3.79-.68,2.88,1.97,2.84,4-1.3,2.81-4.67,.26-6.23,2.4-.55,.44-1.14,.81-1.84,.96-7.63-1.94-8.74-1.51-10.07,3.89,.19,.79,.49,1.53,.94,2.2,.55,.82,1.33,1.53,1.35,2.62,.01,.29,.02,.59,.04,.88-4.21,2.33-8.56,4.12-13.48,4.31-2.88,.11-5.54,1.15-3.09-3.79,2.06-4.15,3.02-9.12-.52-13.47-.35,.07-.81,.1-.92-.13-2.8-5.67-7.71-8.74-13.39-10.87-1.12-2.05-1.01-4.28-1-6.5,.63-1.6,2.39-1.4,3.5-2.21,1.78-1.29,3.94-2.51,2.51-5.36-.24-2.16,.54-5.04-2.84-5.32-3.16-.26-3.4,2.45-3.99,4.65-.46,1.33-.55,2.8-1.51,3.92-1.73,1.09-3.56,.16-5.34,.23-5.96,.25-8.6,3.19-8.13,9.17,.31,1.08,.58,2.17,1.19,3.14q5.13,5.42,2.03,10.25c-.33,.33-.65,.66-.98,1-.99,1.24-1.84,3.12-3.84,1.78-2.49-1.67-4.49-3.85-4.39-7.14,.03-.95,.68-1.82,1.24-2.63,.33-.33,.67-.67,1-1,.81-1.66,.82-3.33,0-4.99-.28-.66-.55-1.33-.83-1.99-1.83-1.26-3.89-1.7-6.08-1.71-1.43-1.16-1.57-2.65-1.08-4.29Z" fill="#552399"/>
  <path d="M105.14,45.32c.95,.06,1.9,.11,2.85,.17,1.83,.8,3.97,1.08,5.13,3.03,1.39,2.19,1.39,4.55,.91,6.99-2.09,4.51-5.51,6.61-10.54,5.78-3.14-1.22-5.61-3-5.47-6.85-.32-5.14,1.79-8.39,7.12-9.12Z" fill="#ba89fe"/>
  <path d="M91.94,65.51c0-.35,0-.7,0-1.05-.05-2.85,0-5.66,3.16-7.07,1.06-.65,2.38-1.08,3.13,.02,1.74,2.57,4.67,4.24,5.62,7.39-.47,3.76-3.3,4.59-6.33,4.75-2.78,.15-5.25-.59-5.57-4.04Z" fill="#b585f7"/>
  <path d="M86.95,58.48c5.61-3.06,6.73-9.36,10.14-14.01,.73,1.21,.92,2.39,.22,3.74-2.5,4.8-4.75,9.79-10.1,12.24-.62-.58-.71-1.24-.26-1.97Z" fill="#773ac9"/>
  <path d="M86.95,58.48c.09,.66,.18,1.31,.26,1.97-.13,.62-.25,1.23-.38,1.85-.09,1.19-.9,1.65-1.92,1.91-.77,.1-1.51-.01-2.22-.3-1.47-.78-2.56-1.77-2.1-3.66-.18-1.86,.68-3.03,2.42-3.6,1.12-.2,2.16-.1,2.95,.85,.33,.33,.66,.65,.99,.98Z" fill="#b685fa"/>
  <path d="M103.14,64.48c-3.75-1.16-3.44-6.9-8.05-7.09,.74-1.21,1.61-2.3,2.92-2.94,1.33,2.36,2.89,4.53,5.13,6.13,1.69,.79,2.09,2.03,1.31,3.7-.38,.43-.82,.5-1.32,.21Z" fill="#956ecb"/>
  <path d="M85.13,63.51c.57-.41,1.14-.81,1.71-1.22,1.03,1.72,4.23-4.23,4.22,1.19-3.18,1.45-4.26,4.98-6.93,6.94-.91-.74-1.07-1.77-1.09-2.85,.02-1.7,.8-3.01,2.09-4.06Z" fill="#6130a4"/>
  <path d="M121.04,47.34c.31,.13,.64,.18,.98,.14,1.16,.78,2.6,1.31,2.83,2.99,.1,.75,0,1.47-.33,2.16-.41,.66-.97,1.16-1.68,1.49-1.27,.45-2.53,.42-3.78-.11-.71-.4-1.25-.96-1.61-1.7-.49-1.31-.49-2.61,.13-3.89,.93-1.06,1.98-1.79,3.46-1.07Z" fill="#b281f5"/>
  <path d="M121.04,47.34c-.94,.39-1.88,.78-2.82,1.17-2.07,1.61-4.14,1.21-6.19-.03-1.34-.99-2.69-1.99-4.03-2.98,4.46-.16,8.88-.07,13.04,1.84Z" fill="#4e218d"/>
  <path d="M131.06,51.44c3.76,.9,6.98,2.61,9.05,6.05,0,0,.03,0,.03,0-4.64,.91-7.06-2.04-9.29-5.33,.07-.24,.14-.47,.22-.71Z" fill="#4e218d"/>
  <path d="M124.17,50.44c-.72-.99-1.44-1.98-2.15-2.97,3.66-.14,6.74,1.03,9.04,3.97,0,0,0,0,0,0-2.54,1.31-4.77,.52-6.89-1Z" fill="#4e218d"/>
  <path d="M83.14,57.37c-1.32,.61-2.02,1.66-2.15,3.1-.3,.28-.59,.26-.85-.06-.98-1.01-3.76-1.35-.98-3.6,1.87-1.52,3.32-3.55,4.96-5.36,.33,0,.67,0,1,0,.14,.18,.28,.36,.42,.54,.4,2.33-.89,3.91-2.41,5.39Z" fill="#9056df"/>
  <path d="M80.14,60.4c.28,.02,.57,.04,.85,.06,.06,1.47,1.41,1.98,2.17,2.92-.09,.43-.22,.85-.4,1.25-.75,1.87-.04,4.11-1.44,5.83-1.34,.58-2.34,.08-3.18-.97,1.16-2.03,1.28-4.06,0-6.09-.61-1.31,.26-2.13,.99-2.99,.34,0,.67-.01,1.01-.02Z" fill="#8458be"/>
  <path d="M79.12,60.42c-.33,1-.66,1.99-.99,2.99-.66,0-1.33,0-1.99,0,.33-1,.66-1.99,.99-2.99,.67,0,1.33,0,2,0Z" fill="#875fbc"/>
  <path d="M89.11,48.45c.67,.33,1.33,.67,2,1-.7,2.14-.55,4.71-2.99,5.98-1.45-.99-1.94-2.69-3-3.97,0,0,0,0,0,0,.88-1.6,1.97-2.91,3.99-3Z" fill="#8850d4"/>
  <path d="M85.12,51.45c1.79,.73,3.36,1.62,3,3.97-.4,1.02-1.13,1.7-2.16,2.07-.94-.04-1.89-.08-2.83-.13,.66-1.97,1.32-3.95,1.99-5.92Z" fill="#8b4fdb"/>
  <path d="M175.88,59.67c-3.97,1.47-8.06,.51-12.1,.61,.38-2.28-2.4-3.07-2.44-5.2,1.27-1.05,2.47,.69,3.71,.11,.81,1.7,2.62,1.5,4.01,2.1,1.25,.67,2.48,1.42,3.97,.7,.39,1.51,1.8,1.3,2.85,1.69Z" fill="#b289f1"/>
  <path d="M156.14,32.24c1.93-1.17,3.86-1.2,5.78,.03-1.3,.38-2.6,.77-3.89,1.15-.63-.4-1.26-.79-1.89-1.18Z" fill="#9871d5"/>
  <path d="M126.88,90.38c.22-4.9,2.23-8.71,7.02-10.43,5.11-1.84,9.41-.18,13.01,3.65,3.62,2.42,2.06,5.63,1.33,8.71-.44,.99-.88,1.99-1.32,2.98-1.29,4.35-4.83,5.85-8.74,6.04-3.82,.19-7.61-.61-9.26-4.93-.85-1.95-2.02-3.8-2.05-6.03Z" fill="#bb8afe"/>
  <path d="M124.17,50.44c2.39-.31,4.62,.45,6.89,1,2.29,3.12,5.35,5.07,9.08,6.04,.42,1.52,1.61,1.78,2.94,1.83,.62,.77,1.25,1.53,1.87,2.3,.06,.72,.06,1.48,1.03,1.6-.81,2.89,1.31,4.81,2.35,7.09,.88,1.94,1.76,3.89,1.71,6.09-3.76-.78-3.02-4.76-4.91-6.87l-.25-.21c-2.57-.4-5.14-.81-6.7-3.28-.82-1.66-2.14-3.2-1.27-5.26-1.41-4.35-5.74-5.03-9.05-6.7-2.46-1.24-1.5,3.31-3.8,3.36-1.66-1.63,.5-3.51-.33-5.19,.15-.6,.29-1.2,.44-1.8Z" fill="#522293"/>
  <path d="M145.13,69.52c2.87,1.41,2.55,5.09,4.91,6.87,2.36,3.93,1.44,8.37,1.99,12.58,.4,3.05-3.29,1.35-3.79,3.33,.19-3-.05-5.93-1.33-8.71,2.04-2.92,0-5.63-.48-8.41-.33-1.91-1.6-3.61-1.3-5.68Z" fill="#532396"/>
  <path d="M128.93,96.41c8.02,5.45,11.27,5.24,17.99-1.11,.28,.38,.87,.85,.78,1.12-1.22,4-3.85,6.53-8.09,6.88-4.41,.37-8.73,.22-10.93-4.71-.37-.82-.56-1.54,.25-2.18Z" fill="#451e7b"/>
  <path d="M143.96,110.49c-.34-1.83,1.34-4.41-1.92-5.15,1.47-.98,2.92-2,4.42-2.94,.97-.6,1.63-2.59,3.11-1.22,1,.93-.03,2.16-.54,3.11-1.38,2.53-2.04,5.58-4.95,7.05-.22-.16-.31-.34-.27-.54,.04-.21,.09-.31,.15-.31Z" fill="#542496"/>
  <path d="M143.96,110.49c0,.29,.04,.57,.12,.84-.07,.81-.21,1.59-1,2.05-.39-.14-.76-.31-1.13-.49-1.16-.5-2.49-.44-3.62-1.05-.15-.15-.3-.31-.45-.46,1.55-3.52,3.82-2.18,6.08-.89Z" fill="#8b65bf"/>
  <path d="M142.04,105.34c-3,1.59-5.99,1.6-8.99,0,3,0,5.99,0,8.99,0Z" fill="#542496"/>
  <path d="M143.02,112.35c.02,.35,.04,.69,.07,1.04-.03,.31-.07,.61-.12,.92-1.31,.01-2.62,.02-3.93,.03-.38-.44-.49-.94-.34-1.49,1.28-1.54,2.78-1.2,4.32-.5Z" fill="#9c73d4"/>
  <path d="M98.15,98.29c7.29,.34,11.41,4.65,13.84,11.06-.02,1.87-.03,3.73-.05,5.6-3.44,7.6-8.98,11.6-17.63,10.25-3.85-2.19-8.25-3.81-9.38-8.87-.28-2-.55-4-.83-6,2.68-4.42-.47-7.11-2.97-9.98-1.36-3.79,.5-6.42,3.48-8.17,3.05-1.79,6.3-1.5,9.17,.76,1.42,1.12,2.66,2.42,3.39,4.12,.26,.46,.58,.87,.97,1.23Z" fill="#ba89fe"/>
  <path d="M76.13,103.35c-.85,2.98,.24,5.33,2.1,7.64,1.66,2.06,3.14,1.93,4.89,.34-.78,1.85-.08,5.02-2.25,5.38-1.9,.32-3.34-2.36-4.7-3.94-4.3-5.02-4.24-7.06-.04-9.43Z" fill="#532296"/>
  <path d="M70.24,93.58c2.74-1.83,4.98-1.98,6.07,1.79-.07,.62-.14,1.24-.21,1.85-1.21,2.21-2.79,2.73-4.85,1.07-.39-.98-.78-1.95-1.17-2.93-.53-.65-.43-1.24,.17-1.78Z" fill="#b685fa"/>
  <path d="M71.24,98.29c1.75,.24,3.4,.02,4.85-1.07,.03,2.44,.36,5.32-3.33,4.97-2.27-.21-3.58-1.6-1.53-3.9Z" fill="#461d7f"/>
  <path d="M70.24,93.58c-.06,.59-.11,1.19-.17,1.78-2.8,.14-1.05-4.2-3.92-3.99,1-.67,2-1.33,3-2,.37,1.4,.73,2.8,1.1,4.21Z" fill="#532494"/>
  <path d="M77.13,97.36c1.48,1.66,1.48,3.33,0,4.99,0-1.66,0-3.33,0-4.99Z" fill="#532296"/>
  <path d="M129.04,121.43c-.67-.68-1.34-1.37-2.01-2.05-.92-3.88,1.58-5.11,4.56-5.06,2.87,.05,5.63,1.06,4.5,5.06-.05,.3-.13,.6-.23,.89-2.09,1.47-4.48,1.18-6.82,1.16Z" fill="#b888f9"/>
  <path d="M136.09,119.38c-.39-2.59-1.87-4.02-4.53-4.03-2.66,0-4.13,1.43-4.53,4.02-.8-.41-1-1.14-1.05-1.95-.92-2.78,1.04-3.97,2.99-4.68,3.14-1.14,6.09-.69,8.23,2.27,.43,1.1,.49,2.2-.03,3.29-.36,.36-.72,.72-1.08,1.09Z" fill="#a67ae1"/>
  <path d="M137.17,118.29c-.03-.99-.06-1.98-.09-2.97-.75-.95-.93-1.91-.05-2.89,.28-.35,.57-.69,.85-1.04,0,0,.29-.07,.29-.07,.59,.59,.37,1.47,.76,2.13,.03,.3,.06,.6,.1,.89-1.59,.86-.38,3.04-1.86,3.95Z" fill="#6738a7"/>
  <path d="M78.14,69.5c1.02,.25,2.03,.5,3.05,.75,1.52-.87,2.24,.1,2.88,1.25,1.53,2.12,1.37,4.51,1.14,6.92-2.13,4.84-6.06,5.59-9.97,1.9-.41-.62-.81-1.25-1.22-1.87-.28-1.35-.56-2.7-.83-4.05,1.36-1.93,2.96-3.62,4.96-4.9Z" fill="#ba89fd"/>
  <path d="M75.23,80.33c3.82,1.96,7.22,1.71,9.97-1.9,2.4,4.35-.22,6.39-3.78,7.65-3.55,1.26-6.4-.72-7.29-4.69,.37-.35,.73-.7,1.1-1.06Z" fill="#492083"/>
  <path d="M122.02,59.54c1.74,2.43,2.76,4.96,.98,7.83-3.14,4.91-6.65,5.3-10.08,1.12-.7-1.94-1.21-3.91-1.07-6-.92-1.97,.37-3,1.69-4.02,1.95-1.13,4.03-1.44,6.23-1,1.12,.29,1.86,.99,2.25,2.08Z" fill="#b888fc"/>
  <path d="M98.15,98.29c-.34,.02-.68,.03-1.02,.05-1.03-3.41-2.64-6.22-6.56-6.97-5.26-1.01-8.18,1.93-10.47,6.02-2-6.46,2.42-11.55,9.6-10.94,1.46,.12,2.87,.74,4.3,1.14,2.18,.33,2.99,1.77,3.04,3.8,1.38,2.14,.98,4.56,1.1,6.9Z" fill="#8f69c4"/>
  <path d="M94.92,83.47c-.16-3.57,.83-6.52,5.06-6,4.22,.52,4.62,3.49,3.28,6.96-.37,1.32-1.27,2.13-2.48,2.66-1.27,.42-2.53,.38-3.79-.06-1.47-.74-2.79-1.56-2.08-3.57Z" fill="#b786fa"/>
  <path d="M103.14,64.48c.3-.07,.6-.15,.89-.24,1.02,1.04,.78,2.1,.07,3.17-1.13,4.87-4.81,5.85-8.75,4.72-2.7-.77-5.56-2.75-3.41-6.63,4.48,4.41,8.47,4.04,11.2-1.03Z" fill="#471f7d"/>
  <path d="M104.1,67.41c-.02-1.06-.04-2.12-.07-3.17,.04-1.3-.15-2.55-.89-3.66,4.33,.24,7.65-1.53,10.07-5.08,2.7,.71,1.66,2.26,.85,3.76-1,.9-2.04,1.77-2.21,3.23-2.03,2.51-5.51,2.76-7.75,4.93Z" fill="#4f2885"/>
  <path d="M80.1,97.39c1.23-5.63,4.21-7.64,10.4-7.02,4.49,.45,6.47,2.83,6.63,7.98-.62-.76-1.28-1.48-1.85-2.28-2.26-3.14-5.38-4.72-9.01-3.46-3.35,1.16-5.08,4.06-5.13,7.75-1.36-.63-.85-1.91-1.03-2.96Z" fill="#ab7ee9"/>
  <path d="M112.92,68.48c3.71,2.81,6.99,1.64,10.08-1.12,2.58,3.18-.96,4.13-2.24,5.74-1.65,2.05-3.86,1.46-5.72,.22-1.63-1.09-4.13-2.05-2.11-4.84Z" fill="#431c79"/>
  <path d="M136.91,60.77c.61,1.59,1.22,3.19,1.84,4.78-.97,2.84-2.89,4.77-5.69,5.84-1.78-.72-3.57-1.44-5.35-2.16,4.74-1.17,7.07-4.7,9.2-8.46Z" fill="#c1bfc5"/>
  <path d="M94.92,83.47c.13,1.54,1.62,1.83,2.48,2.7,1.12,2.15,2.3,2.01,3.51,.08,.78-.61,1.57-1.21,2.35-1.82,2.73,.64,1.86,2.1,.74,3.49-1.77,2.2-3.8,4-6.96,3.47-1.01-1.27-2.03-2.53-3.04-3.8,.3-1.37-.36-2.96,.91-4.12Z" fill="#4b2186"/>
  <path d="M137.04,112.42c.02,.96,.03,1.93,.05,2.89-6.36-3.08-8.7-2.63-11.1,2.1-1.71-2.84,0-4.92,2.02-6.23,3.13-2.04,6.28-1.12,9.04,1.23Z" fill="#916bc6"/>
  <path d="M141.01,70.3c-1.58,2.02-3.17,4.04-5.17,6.59-.67-1.7-1.23-3.1-1.78-4.5,.18-2.68,2.04-4.04,4.26-4.59,1.49-.37,2.89,.49,2.69,2.5Z" fill="#ede9f2"/>
  <path d="M141.01,70.3c-3.87-4.47-4.95,.34-6.95,2.09-.33-.33-.67-.67-1-1,1.49-2.34,3.51-4.17,5.69-5.84,1.32,2.43,4.49,1.85,6.13,3.76-1.17,.78-2.35,1.55-3.87,.99Z" fill="#e3e1e5"/>
  <path d="M84.06,71.51c-.96-.42-1.92-.83-2.88-1.25,.3-2.24-.97-4.7,.95-6.71,1.38,.92,.89,2.8,1.99,3.86,0,1,0,2.01,.01,3.01-.02,.36-.05,.72-.07,1.08Z" fill="#6735aa"/>
  <path d="M122.02,59.54c-.65-.39-1.3-.78-1.94-1.17-.2-.4-.19-.8,.02-1.2,.96-1.34,2.02-2.62,2.88-4.04,.25-.3,.51-.6,.76-.9,2.63,1.57,.14,3.47,.33,5.19-1,.4-1.67,1.11-2.04,2.11Z" fill="#4e218d"/>
  <path d="M120.07,57.43c0,.31,0,.62,0,.93-2.05-.01-4.13-.22-6.02,.88-.11-1.29,.45-2.74-.85-3.76-.02-2.4,.31-4.87-1.19-7.02,2.06,.01,4.13,.02,6.19,.03-.03,1.3-.06,2.6-.1,3.91-.06,1.71,.21,3.3,1.64,4.47,.11,.18,.21,.37,.31,.55Z" fill="#562698"/>
  <path d="M84.12,67.41c-1.75-.73-2.1-2.18-1.99-3.86,.34-.05,.69-.11,1.03-.16,.66,.04,1.31,.08,1.97,.12-.34,1.3-.67,2.6-1.01,3.9Z" fill="#65399f"/>
  <path d="M122.97,53.14c.24,2.25-.13,4.09-2.9,4.3,0,0,0,0,0,0-3-2.3-3.12-2.83-.92-4.04,1.27-.09,2.55-.17,3.82-.26Z" fill="#481f82"/>
  <path d="M119.15,53.39c-2.23,1.92,.84,2.65,.92,4.04-4.17-.31-3.55-2.47-1.95-5.02,.34,.33,.69,.65,1.03,.98Z" fill="#4e218d"/>
  <path d="M138.94,113.45c-.75-.53-.87-1.29-.76-2.13,1.63,.28,3.52-.67,4.84,1.04-1.44,.09-3.04-.45-4.08,1.1Z" fill="#956eca"/>
  <path d="M100.91,86.25c2.28,2.28-.59,2.64-1.4,2.71-1.59,.14-3.24-.48-2.11-2.79,1.17,.03,2.34,.05,3.51,.08Z" fill="#431c78"/>
</svg>