<?xml version="1.0" encoding="UTF-8"?>
<svg id="Layer_1" data-name="Layer 1" xmlns="http://www.w3.org/2000/svg" viewBox="0 0 139 139">
  <path d="M69.07,138.95c-21.97,0-43.94-.03-65.92,.05-2.3,0-3.16-.26-3.16-2.96C.11,91.74,.1,47.45,.03,3.16,.03,.86,.29,0,2.99,0,47.27,.11,91.55,.1,135.82,.03c2.3,0,3.16,.26,3.16,2.96-.11,44.29-.12,88.58,.02,132.87,.01,3.13-1.08,3.14-3.51,3.13-22.14-.09-44.28-.05-66.42-.05Z" fill="#fefefe"/>
  <path d="M93.91,13.22c6.32-5.5,19.72-2.18,24.87,2.24,12.16,10.41,12.97,27.07,1.65,38.48-6.42,6.47-12.46,13.35-19.62,19.07-2.22-4.79-2.15-9.97-2.27-15.04-.23-9.45-.41-18.92,.06-28.34,.3-6.18-.71-11.62-4.69-16.4Z" fill="#fdf3df"/>
  <path d="M93.91,13.22c4.88,2.5,6.33,6.54,6.3,11.91-.08,15.96-.59,31.93,.6,47.88,0,12.1,0,24.2,0,37.27-3.26-2.27-5.82-5.25-8.46-.95-.5,.81-1.58,.74-2.14-.02-2.3-3.16-3.99-1.12-6.73-.33-2.88,.83-6.83-2.95-10.09,.84-3.12-5.32-6.22-.66-9.33,.02-2.02-.38-3.67-1.46-5.19-2.78,.74-2.72,.71-4.31,5.03-2.58,2.79,1.12,7.96,.95,11.75-.18,2.09-.62,3.49-1.52,5.19,.34,.51,.56,1.35,1.71,1.96,1.01,4-4.64,10.59,2.42,14.16-3.24,.55-.87,.39-2.25,.39-3.39-.07-25.12-.15-50.23-.27-75.34-.03-5.53-1.93-7.38-7.57-7.39-16.3-.03-32.59-.04-48.89,0-6.1,.02-7.97,1.93-7.98,8.09-.03,15.14,0,30.28-.02,45.41,0,1.32-.03,2.66-.23,3.97-.15,.94-1.02,1.31-1.89,1.2-.74-.1-.99-.78-1.01-1.49-.02-1-.03-2-.03-2.99,0-15.14-.02-30.28,0-45.41,.01-8.76,3-11.81,11.58-11.81,17.62-.01,35.25,0,52.87,0Z" fill="#42647a"/>
  <path d="M36.65,119.13c-11.75,.04-21.02-8.98-21.16-20.6-.15-11.58,9.61-21.43,21.15-21.36,11.36,.07,20.91,9.68,20.93,21.08,.02,11.49-9.35,20.85-20.92,20.89Z" fill="#406277"/>
  <path d="M58.87,107.04c2.58-.66,3.93,.98,5.19,2.78-5.45,6.49-11.14,12.73-18.9,16.55-13.4,6.6-31.25-2.33-34.02-17.03-.66-3.51-1.74-7.1,.49-10.53,1.55,.29,1.3,1.59,1.42,2.69,1.12,10.2,9.24,18.83,19.43,20.35,10.36,1.55,21.4-3.49,25.24-13.23,.23-.58,.75-1.05,1.14-1.58Z" fill="#fdf3e0"/>
  <path d="M62.3,38.04c-5.13,0-10.27-.01-15.4,0-2.43,0-4.8,.04-4.89-3.37-.09-3.75,2.49-3.65,5.09-3.64,10.6,.02,21.19,.06,31.79-.03,2.65-.02,4.95,.51,4.83,3.5-.11,2.83-2.43,3.57-5.03,3.55-5.46-.06-10.93-.02-16.39-.02Z" fill="#d5dfea"/>
  <path d="M58.02,51.01c-4.15,0-8.31,0-12.46,0-2.51,0-3.61-1.26-3.54-3.72,.06-2.31,1.32-3.25,3.49-3.25,8.64,0,17.28,0,25.92,0,2.51,0,3.61,1.24,3.54,3.71-.07,2.31-1.31,3.26-3.49,3.26-4.49,0-8.97,0-13.46,0Z" fill="#d4deea"/>
  <path d="M53.81,64.01c-2.65,0-5.29-.04-7.94,.02-2.7,.05-3.85-1.18-3.91-3.89-.06-2.89,1.62-3.15,3.84-3.13,5.62,.06,11.24,.03,16.86,.02,2.12,0,4.21,.21,4.19,2.97-.01,2.56-1.65,3.9-4.13,3.99-2.97,.1-5.95,.02-8.93,.03Z" fill="#d4deea"/>
  <path d="M102.9,92.63c.39-3.34,2.47-5.47,5.86-5.29,3.36,.18,5.48,2.39,5.28,6-.19,3.38-2.44,5.23-5.57,5.2-3.41-.03-5.45-2.11-5.57-5.91Z" fill="#f6b939"/>
  <path d="M21.18,34.85c3.46,.29,5.47,2.38,5.35,5.81-.12,3.46-2.37,5.49-5.92,5.33-3.34-.15-5.28-2.42-5.27-5.53,.02-3.37,2.09-5.47,5.84-5.61Z" fill="#47687d"/>
  <path d="M88.55,80.46c-.31,.48-.53,.93-.85,1.28-4.13,4.48-8.27,8.94-12.41,13.41-.95,1.03-1.86,1.96-3.2,.42-1.16-1.34-.09-2.06,.7-2.86,4.07-4.1,8.14-8.2,12.24-12.27,.68-.67,1.36-1.58,2.51-1.04,.4,.19,.66,.67,1.01,1.04Z" fill="#fce9c4"/>
  <path d="M88.57,84.58c1.39,.72,1.44,1.72,.44,2.76-2.75,2.85-5.54,5.67-8.35,8.46-.63,.63-1.4,.94-2.09,.03-.43-.58-.5-1.27,.01-1.8,3-3.07,6.02-6.11,9.06-9.14,.2-.2,.59-.2,.92-.31Z" fill="#fce9c4"/>
  <path d="M25.09,54.23c-1.34,0-2.14-.55-2.1-1.99,.03-1.08,.49-1.93,1.62-2.04,1.27-.13,2.19,.46,2.37,1.82,.19,1.41-.55,2.08-1.89,2.21Z" fill="#f6ba3d"/>
  <path d="M104.12,30.23c1.37,0,1.74,.79,1.72,1.88-.02,1.13-.57,1.79-1.74,1.84-1.07,.04-1.98-.27-1.96-1.51,.02-1.29,.81-2.01,1.98-2.21Z" fill="#d6dfe9"/>
  <path d="M18.73,98.17c0-10.03,8.14-18.15,18.07-18.01,9.67,.14,17.46,8.19,17.51,18.09,.05,9.91-7.68,17.75-17.59,17.83-10.24,.09-17.98-7.62-17.99-17.92Z" fill="#f6b631"/>
  <path d="M108.27,90.37c1.37,.18,2.52,.65,2.69,2.24,.17,1.51-.53,2.58-2.02,2.8-1.67,.24-2.85-.53-2.97-2.33-.11-1.57,.94-2.29,2.3-2.7Z" fill="#fdf4e2"/>
  <path d="M20.8,37.96c1.61-.05,2.56,.71,2.57,2.33,0,1.47-.6,2.63-2.28,2.69-1.62,.06-2.54-1.04-2.67-2.42-.14-1.48,.81-2.45,2.39-2.6Z" fill="#edf0f2"/>
  <path d="M27.92,99.72c3.91-1.65,5.37,4.64,8.6,1.24,1.93-2.03,3.36-4.54,5.15-6.72,.99-1.2,1.51-3.07,5.12-3.09-3.8,5.01-6.39,10.22-10.55,13.3-2.81,2.08-5.61-2.29-8.32-4.74Z" fill="#fef9ef"/>
</svg>