<?xml version="1.0" encoding="UTF-8"?>
<svg id="Layer_1" data-name="Layer 1" xmlns="http://www.w3.org/2000/svg" viewBox="0 0 118.69 118.4">
  <path d="M94.22,60.65c-1.06,.65-2.12,1.3-3.18,1.95-1.62-1.34-1.51-3.23-1.54-5.03-.08-3.98-.02-7.96-.02-11.94,0-3.39,.92-6.11,4.28-7.72,3.49-1.67,4.61-4.73,3.58-8.32-1.02-3.53-3.74-4.57-7.31-4.54-11.94,.1-23.87,.03-35.81,.05-2.16,0-4.3-.07-6.43-.48-1.14-2.39,.91-2.19,1.92-1.95,9.57,2.26,14.99-3.79,20.62-9.84,5.08-5.45,10.16-10.74,18.15-12.36,11.72-2.37,24.17,4.34,28.46,15.48,4.4,11.43,.02,20.27-7.36,28.48-4.1,4.56-9.12,8.24-12.63,13.36,.11,1.92-.86,2.82-2.73,2.86Z" fill="#fef5e7"/>
  <path d="M19.16,61.61c3.2,1.46,3.55-2.54,5.75-3.01,2.72,4.86,1.51,9.99,.85,15.02-.26,1.96-2.25,2.68-3.87,3.59-2.98,1.68-4.84,4.15-3.97,7.74,.92,3.8,3.61,5.23,7.44,5.21,7.16-.03,14.31-.07,21.47,.02,7.44,.09,8.36,1.79,4.92,8.23-1.95,3.65-4.48,7.02-5.67,11.07-3.52,2.09-7.02,4.2-10.55,6.27-13.17,7.73-30.17-2.91-33.7-13.86-3.73-11.58-.28-20.61,7.95-28.62,1.4-1.36,4.33-2.84,.22-4.55,3.73-1.51,7.45-3.02,9.16-7.12Z" fill="#fef5e7"/>
  <path d="M46.08,109.49c-1.83-1.6-.42-2.97,.34-4.35,1.85-3.34,3.63-6.72,5.65-9.95,1.66-2.67,.92-3.4-1.99-3.37-7.97,.09-15.95,.06-23.92,.02-5.83-.03-9.33-2.32-9.87-6.99-.57-4.91,1.62-8.39,6.67-9.51,1.99-.44,2.13-1.7,2.11-3.3-.08-4.48-.1-8.97-.14-13.45,2.22-1.82,3.17-1.16,3.15,1.57-.03,3.82,.13,7.65-.05,11.46-.12,2.62,.86,3.43,3.43,3.42,17.77-.08,35.54-.1,53.31,.01,2.82,.02,3.24-1.18,3.21-3.57-.1-8.97-.19-17.94,.04-26.9,.09-3.41-.8-4.56-4.37-4.48-10.79,.23-21.59,.05-32.38,.11-2.81,.02-4.34-.56-2.47-3.61,2.12-1.72,4.66-1.51,7.14-1.51,9.45-.03,18.91,0,28.37-.01,1.49,0,2.99,.08,4.48-.07,2.29-.23,5.09-.15,5.01-3.45-.07-3.13-2.6-3.41-5.06-3.43-10.95-.05-21.89,.1-32.84,.03-2.45-.02-5.04,.33-7.03-1.7-.35-.61-.71-1.22-1.06-1.83,1.03-2.02,2.92-1.2,4.43-1.2,12.28-.08,24.57-.08,36.85-.06,6.25,.01,9.3,1.95,10.06,6.66,.81,4.99-1.37,8.39-6.23,9.8-1.94,.56-2.07,1.78-2.05,3.37,.09,6.47,.13,12.94,.19,19.41-.06,2.32-.02,4.66-.21,6.97-.26,3.17,.06,5.46,3.79,6.85,3.58,1.33,4.93,4.95,4.08,8.74-.93,4.15-3.63,6.67-8.11,6.69-7.98,.04-15.97,.17-23.94-.05-4.05-.11-4.17,1.09-2.23,4.08,2.17,3.34,4.1,6.83,6.09,10.29,.46,.79,1.22,1.66-.02,2.55-1.55,1.1-2-.13-2.59-1.11-2.54-4.28-5.16-8.52-7.58-12.87-1.79-3.24-3.04-2.82-4.61,.17-2.09,3.96-4.42,7.79-6.64,11.69-.72,1.27-1.08,2.88-3,2.9Z" fill="#406378"/>
  <path d="M48.85,26.46c13.43-.02,26.85,0,40.28-.08,3.7-.02,6.82,.65,6.95,5.1,.14,4.81-3.18,5.54-7.05,5.5-13.41-.15-26.83-.25-40.24-.37,.02-3.38,.04-6.77,.07-10.15Z" fill="#fcc166"/>
  <path d="M45.24,31.83c-.3,12.8-10.5,22.42-23.34,22.02C9.44,53.47-.25,43.26,0,30.79,.26,18.28,10.8,8.32,23.43,8.65c12.32,.33,22.11,10.73,21.81,23.18Z" fill="#416377"/>
  <path d="M54.78,68.67c-.9-.6-2.21-.53-2.77-1.7-.6-1.54-1.92-2.7-2.38-4.32-.45-1.35-.76-2.72-.63-4.16-.1-2.81,1.41-4.9,3.06-6.94,1.64-1.19,3.36-2.25,5.33-2.82,2.59-.25,5.15-.21,7.54,1.01,2.91,1.5,4.33,4.15,5.41,7.05,.54,2.47-.1,4.89-.36,7.33-.64,.69-1.27,1.38-1.91,2.08-1.75,1.99-4.26,2.68-6.51,3.84-2.41,.28-4.65-.28-6.78-1.37Z" fill="#f84856"/>
  <path d="M94.22,60.65c.91-.95,1.82-1.91,2.73-2.86,3.01-.87,5.93-1.08,8.2,1.61,1.59,1.88,2.27,4.02,1.18,6.44-1.5,3.31-4.03,4.89-7.58,3.86-4.6-1.33-5.43-4.82-4.53-9.05Z" fill="#fec36a"/>
  <path d="M19.16,61.61c-.88,6.2-2.56,7.51-9.16,7.12-2.81-1.92-4.74-4.35-3.62-7.96,.86-2.78,2.91-4.53,5.9-4.56,3.61-.03,5.86,1.97,6.88,5.4Z" fill="#43657a"/>
  <path d="M104.13,75.98c1.58,.49,2.73,1.39,2.63,3.1-.08,1.47-1.07,2.42-2.56,2.39-1.67-.04-2.81-1.14-2.85-2.74-.05-1.69,1.2-2.52,2.79-2.74Z" fill="#fec978"/>
  <path d="M65,50.42c-2.59-1.14-5.34-.99-8.07-.95-.43-.22-.99-.29-1.06-.91,3.58-1.83,6.89-1.27,10.02,1.07-.15,.43-.45,.69-.89,.79Z" fill="#636d80"/>
  <path d="M65,50.42c.3-.26,.6-.53,.89-.79,2.63,1.2,4.12,3.3,4.85,6.02-.15,.47-.43,.83-.87,1.06-1.49-2.2-2.46-4.8-4.87-6.29Z" fill="#536a7e"/>
  <path d="M61.72,69.38c1.76-1.77,4.25-2.09,6.35-3.18-.47,2.93-2.97,3.32-5.15,4.11-.5-.19-1.11-.22-1.2-.93Z" fill="#656376"/>
  <path d="M69.87,56.71c.29-.35,.58-.71,.87-1.06,.95,2.93,1.03,5.78-.76,8.47-1.08-2.45,.48-4.95-.11-7.41Z" fill="#446379"/>
  <path d="M61.72,69.38c.4,.31,.8,.62,1.2,.93-2.89,.32-5.98,1.62-8.14-1.64,2.31,.24,4.63,.47,6.94,.71Z" fill="#47667b"/>
  <path d="M55.87,48.55c.35,.3,.71,.61,1.06,.91-1.62,.69-3.25,1.39-4.87,2.08,.44-2.06,2.02-2.66,3.81-3Z" fill="#4a5f74"/>
  <path d="M49,58.49c1.3,1.06,.85,2.59,1.08,3.95,.51,1.03-.05,1.21-.91,1.16-.38-1.69-2.13-3.33-.17-5.1Z" fill="#535d73"/>
  <path d="M49.17,63.59c.3-.38,.61-.77,.91-1.16,.92,1.39,2.07,2.69,1.93,4.54-1.42-.73-2.56-1.69-2.84-3.38Z" fill="#686175"/>
  <path d="M94.26,10.59c1.53,.15,2.55,1.01,2.49,2.53-.07,1.77-1.29,2.65-3.04,2.47-1.58-.16-2.31-1.3-2.17-2.77,.14-1.51,1.1-2.35,2.72-2.23Z" fill="#fec56e"/>
  <path d="M57.41,88.81c-10.29,0-20.59-.08-30.88,.04-4.04,.05-7.29-1.13-7.18-5.55,.11-4.14,3.39-5.11,7.14-5.1,20.75,.06,41.51,.05,62.26,0,3.94,0,7.24,.89,7.09,5.56-.14,4.34-3.32,5.1-7.05,5.07-10.46-.09-20.92-.03-31.38-.03Z" fill="#d4deea"/>
  <path d="M77.42,30.3c4.27-.89,8.54-1.17,12.78,.05-4.28,1.31-8.54,1.3-12.78-.05Z" fill="#fefefd"/>
  <path d="M68.33,30.2c3.08-.91,4.6-.89,6.38-.16-1.97,1.32-3.6,.83-6.38,.16Z" fill="#fefefe"/>
  <path d="M22.93,11.32c10.91,.06,19.84,8.86,19.88,19.59,.04,11.09-8.82,19.96-19.97,20-11.22,.04-19.96-8.67-19.95-19.87,0-11.28,8.64-19.78,20.05-19.72Z" fill="#fec165"/>
  <path d="M58.51,63.58l-.07,.02c-.61,.44-1.52,.41-1.57-.23-.26-2.92-1.57-6,.95-8.62,1.7,.97,3.4,1.95,5.11,2.92,1.72,.96,1.56,2.08,.27,3.29-1.48,1.02-3.04,1.89-4.69,2.62Z" fill="#e7e9ec"/>
  <path d="M57.82,54.75c-.77,3.02-2.03,6.07,.62,8.85-.48,1.07-1.57,2.71-2.13,.8-.94-3.22-1.08-6.75,.21-10.07,0-.02,.85,.28,1.3,.43Z" fill="#4c6277"/>
  <path d="M62.89,60.58c.77-.96,.43-1.93,.03-2.9,1.38-.3,2.33,.34,2.63,1.59,.28,1.18-.69,1.71-1.68,2.07-.47-.07-.79-.33-.98-.75Z" fill="#496277"/>
  <path d="M62.89,60.58c.33,.25,.66,.5,.98,.75-1.56,1.28-3.18,2.45-5.37,2.25,1.09-1.55,2.68-2.36,4.38-3Z" fill="#3e6177"/>
  <path d="M103.82,63.77c-.31,2.16-1.66,3.3-3.74,3.14-1.81-.14-3.11-1.22-3.13-3.24-.02-2.27,1.45-3.45,3.45-3.44,2.04,.01,3.33,1.32,3.42,3.54Z" fill="#fefbf7"/>
  <path d="M16.03,62.79c-.23,2.13-1.55,3.25-3.59,3.18-2.09-.07-3.35-1.41-3.28-3.51,.07-2.16,1.55-3.28,3.58-3.21,2.06,.07,3.27,1.32,3.29,3.54Z" fill="#f3f5f7"/>
  <path d="M26.95,35.75c.02,.28,.04,.56,.05,.84-3.79-.33-7.74,1.04-11.36-1.1-.87-2.73-1.18-5.44,.26-8.1,3.73-1.08,7.44-1.43,11.11,.26l-.05-.06c1.75,2.72,1.67,5.44,0,8.15Z" fill="#fec267"/>
  <path d="M28,28.43c1.21-.29,2.42-.58,3.84-.92v7.9c-1.42,1.09-2.44-1.35-3.85-.61-.1-2.12,.03-4.25,0-6.37Z" fill="#fefbf7"/>
  <path d="M27.01,27.66c-3.68-.03-7.36-.05-11.04-.08-.27-.22-.36-.45-.27-.67,.09-.22,.18-.34,.27-.34,3.8-.87,7.72-2.89,11.04,1.09Z" fill="#fef6e9"/>
  <path d="M16.03,35.54c3.64,.54,7.46-.83,10.97,1.05-3.65,1.81-7.36,1.4-11.07,.23-.44-.47-.4-.89,.1-1.29Z" fill="#fef6ea"/>
  <path d="M16.03,35.54c-.03,.43-.07,.86-.1,1.28-2.88-3.36-2.86-7.51,.05-10.26,0,.34,0,.67,0,1.01,.02,2.65,.04,5.31,.05,7.96Z" fill="#fefaf3"/>
  <path d="M28,28.43c2.14,2.13,1.09,4.25,0,6.37-.35,.32-.7,.64-1.05,.95,0-2.72,0-5.43,0-8.15,.35,.28,.7,.55,1.04,.83Z" fill="#fef6e9"/>
</svg>