<?xml version="1.0" encoding="UTF-8"?>
<svg id="Layer_1" data-name="Layer 1" xmlns="http://www.w3.org/2000/svg" viewBox="0 0 232.8 181.86">
  <path d="M232.8,159.85v2c-1.33,5.46-5.48,6.5-10.26,6.52-14.55,.06-29.09,.02-43.64,0-1.82,0-3.63,.02-5.42,.32-27.06-.56-54.13-.08-81.2-.25-2.98-.02-5.98,.22-8.92-.55-1.96-.62-3.81-1.64-4.77-3.4-2.12-3.88-5.53-4.16-9.37-4.14-19.45,.07-38.91,.05-58.36,.03-4.93,0-9.39-.74-10.85-6.51v-2c2.32-3.34,5.41-5.38,9.58-5.44,11.48-.17,22.96-.13,34.44-.01,1.17,.01,2.32,.21,3.39,.71,1.14,.61,1.71,1.71,1.7,2.86-.04,4.31,2.66,4.77,6,4.47,36.49,0,72.96,0,109.44-.01,18.38-.31,36.77-.05,55.16-.16,5.22-.03,9.89,1,13.1,5.58Z" fill="#8d3efe"/>
  <path d="M232.8,159.85c-6.21-5.01-13.59-3.96-20.76-3.97-15.71-.02-31.42,0-47.14,0-.35-.27-.53-.62-.56-1.06,.12-.69,.54-1.16,1.07-1.57,.94-1.1,1.75-2.37,3.37-2.59,8.68-.71,17.37-.28,26.04-.26,1.47,0,2.96,.18,4.08,1.37,7.6,.03,15.22,.39,22.79-.02,5.28-.28,8.76,1.61,11.1,6.11v2Z" fill="#7132cb"/>
  <path d="M47.78,147.91c-10.82-.01-21.65,.27-32.45-.15-5.71-.22-10.71,.91-15.33,4.1v-3c2.41-3.92,5.84-5.19,10.46-5.09,12.44,.27,24.89,.08,37.34,.08,1.35,1.36,1.36,2.71-.01,4.06Z" fill="#6f31c7"/>
  <path d="M202.9,33.06c1.76,5.95-1.25,10.06-7.72,10.67-3.57,.34-7.26-.86-10.73,.79-.62,.17-1.24,.19-1.87,.06-21.09-.47-42.19-.1-63.28-.19-14.78-.06-29.57-.02-44.35,0-2.15,0-4.33-.17-6.43,.52-.93,.24-1.87,.36-2.82,.43-3.99-.2-8.23,1.46-11.83-1.6-2.28-2.93-6.28-5.15-4.13-9.92,4-2.72,8.43-3.47,13.23-3.44,32.76,.19,65.51-.16,98.27,.2,7.92-.11,15.85,.06,23.78-.08,6.12-.11,12.18-.11,17.88,2.56Z" fill="#8d3dfc"/>
  <path d="M194.02,21.13c.06,3.49-2.6,4.95-4.94,6.65-1.11,1.54-2.81,1.67-4.44,1.68-6.75,.05-13.51,.42-20.25-.23-2.74-1.24-5.46-.68-8.18,.14-28.16,.5-56.31,.18-84.47,.17-1.8,0-3.69-.08-4.97-1.73-2.29-1.78-5.02-3.23-4.86-6.77,2.45-5.7,7.39-6.56,12.77-6.57,20.88-.04,41.75-.02,62.63,0,3.97,0,7.96-.33,11.87,.66,.82,.29,1.68,.32,2.54,.37,2.47,1.03,5.93-2.37,7.73,1.7,.25,1.77-1.48,3.28-.59,5.48,2.57-2.54,3.29-6.63,7.1-7.72,5.93-.74,11.87-.6,17.78-.17,4.39,.32,8.52,1.55,10.28,6.35Z" fill="#b726eb"/>
  <path d="M76.91,11.94c-.72-1.78-3.15-2.58-2.84-4.95,1.88-3.98,5.48-4.49,9.26-4.52,11.65-.08,23.3-.03,34.95-.03,17.47,0,34.95-.02,52.42,.01,4.09,0,8.1,.21,10.2,4.62,.37,2.42-1.98,3.2-2.92,4.83-3.49,2.72-7.44,1.4-11.25,1.3-3.81-1.98-7.21-5.36-12.17-3.26-2.12,.9-3.73,2.72-6.05,3.25-8.1,.9-16.22,.35-24.33,.41-13.41,.1-26.83,.06-40.25,0-2.43-.01-5.03,.38-7.02-1.65Z" fill="#b525e8"/>
  <path d="M31.17,59.9c-4.12-.11-8.24-.1-12.34-.36-4.74-.3-8.22-2.26-8.67-7.57,2.13-3.51,5.09-5.51,9.36-5.52,13.93-.03,27.86-.05,41.78,.02,1.5,0,2.99,.14,4.33,.9,2.4,3.24,2.4,5.95-1.7,7.77-1.3,.27-2.38,.82-2.78,2.24-.39,1.06-.92,2.01-2.04,2.47-9.32,.93-18.63,1.14-27.95,.06Z" fill="#b726ea"/>
  <path d="M229.57,83.88c-1.03,4.31-3.91,6.2-8.2,6.3-1.27,.03-2.66-.36-3.76,.69-3,1.64-6.19,.48-9.28,.56-6.14,.16-12.29,.1-18.43,.01-1.82-.03-3.67-.06-5.24-1.24-1.85-3.73-1.65-7.49-.24-11.29,1.45-1.39,3.31-1.45,5.14-1.47,10.14-.09,20.29-.05,30.44-.03,4.68,0,7.99,1.92,9.57,6.45Z" fill="#b726ea"/>
  <path d="M66.77,27.8c27.21,.06,54.41,.12,81.62,.18,3.15,0,6.3,.02,9.46,.04,1.29,1.09,2.89,1.72,4.19,2.8,.22,.42,.16,.8-.17,1.14-33.53,0-67.05,.03-100.58,0-3.53,0-6.97-.11-9.68,2.78-1.24,1.32-1.53-.04-1.85-.94,.81-4.28,3.7-5.83,7.73-5.89,3.1-.04,6.2-.08,9.29-.12Z" fill="#6f31c7"/>
  <path d="M180.9,7.06c-2.91-2.55-6.31-3.12-10.12-3.1-28.35,.11-56.7,.11-85.05,0-4.25-.02-8.21,.31-11.65,3.03-.82-4.93,2.1-6.88,6.25-6.9,31.47-.11,62.94-.11,94.41,0,4.28,.01,6.84,2.25,6.17,6.99Z" fill="#8f1db7"/>
  <path d="M47.8,136.88c-9.74,0-19.48,0-29.23-.02-4.72-.01-7.91-1.92-8.41-7.02,1.69-3.1,4.21-5.16,7.8-5.31,8.89-.36,17.79-.25,26.68-.05,1.32,.03,2.62,.34,3.66,1.28,1.31,3.77,2.05,7.52-.51,11.11Z" fill="#b626ea"/>
  <path d="M221.69,99.86c-.94,4.51-4.01,6.12-8.3,6.11-9.46-.01-18.92,0-28.38,.01-2.58-3.57-1.77-7.31-.57-11.08,.72-.74,1.65-1.19,2.65-1.24,9.27-.47,18.54-.53,27.8,.02,3.72,.22,5.99,2.51,6.81,6.17Z" fill="#8c3dfc"/>
  <path d="M47.8,89.93c-9.41,0-18.82,.01-28.23-.02-4.69-.02-7.95-1.84-8.42-6.98,2.09-3.33,5.07-5.26,9.03-5.39,7.98-.25,15.97-.17,23.95-.04,1.5,.03,3,.25,4.19,1.34,1.27,3.76,2.04,7.51-.53,11.09Z" fill="#8c3dfc"/>
  <path d="M76.91,11.94c24.31,.01,48.61,.03,72.92,.04,1.51,1.62,1.35,3.28,.1,4.96-2-1.05-4.17-.91-6.33-.91-22.26,0-44.53,.12-66.79-.08-5.73-.05-10.88,.6-14.9,5.09-.11-5.99,2.4-8.79,8.17-9.02,2.28-.09,4.56-.06,6.83-.08Z" fill="#941ebd"/>
  <path d="M198.9,151.75c-10.63,.02-21.25,.05-31.88,.07-1.96-2.05-1.69-4.14-.11-6.24,2.99-.67,4.77-2.76,6.19-5.29,10.1-.8,20.32-3.04,29.9,2.45,1.58,4.35-1.46,6.59-4.1,9.01Z" fill="#b726ea"/>
  <path d="M184.81,121.84c-.06,1.3-.79,1.92-2.04,2.01-4.35,0-5.39-2.49-5.37-6.4,.09-19.08,.03-38.16,.06-57.24,0-1.65-.05-3.33,.75-4.87,1.8-1.64,3.67-2.88,6.03-.92-.06,9.09,.11,18.18,.18,27.27,.1,12.42-.29,24.84-.08,37.26,.02,.99-.15,2.01,.48,2.9Z" fill="#c5c5c5"/>
  <path d="M178.81,132.83c-.06,1.3-.79,1.92-2.04,2.01-4.35,0-5.39-2.49-5.37-6.4,.09-19.08,.03-38.16,.06-57.24,0-1.65-.05-3.33,.75-4.87,1.79-1.7,3.67-2.84,6.03-.94,.24,19.86,0,39.73,.14,59.59,.02,2.61-.55,5.28,.44,7.85Z" fill="#c5c5c5"/>
  <path d="M31.94,73.98c-2.64-1.19-4.69-2.85-4.81-6.05,1.25-3.05,3.64-4.85,6.79-5.13,6.77-.6,13.56-.44,20.35-.08,1,.05,1.93,.45,2.64,1.22,.31,.55,.29,1.1-.03,1.64-1.28,1.42-1.57,3.15-1.66,4.99-.08,1.63-.25,3.3-1.98,4.2-7.13,.52-14.29,1.77-21.31-.79Z" fill="#b726eb"/>
  <path d="M65.78,48.01c-15.48-.01-30.97,.24-46.45-.22-4.23-.12-5.84,3.49-9.18,4.17,.56-5.87,2.94-8.21,8.87-8.25,11.61-.07,23.23,0,34.84,.02,4.12,.12,8.23,.25,12.35,.37,.89,1.42,.9,2.74-.44,3.9Z" fill="#911eba"/>
  <path d="M229.57,83.88c-3.49-4.59-8.25-5.21-13.67-5.04-10.29,.32-20.6,.11-30.9,.12-1.03-1.59-.98-3.19-.04-4.8,11.64,.04,23.29,.01,34.93,.14,7.05,.07,9.84,2.94,9.68,9.58Z" fill="#972cbe"/>
  <path d="M31.97,121.83c-2.09-1.99-5.01-3.39-4.84-6.95,1.57-3.63,4.55-5.34,8.28-5.29,4.37,.06,8.96-1.38,13.04,1.44,1.25,3.77,1.57,7.51-.35,11.18-5.42,1.69-10.82,2.39-16.14-.38Z" fill="#b726eb"/>
  <path d="M221.69,99.86c-2.31-3.68-5.52-5.17-9.96-5.03-8.9,.27-17.82,.11-26.73,.12-.99-1.68-.99-3.35,0-5.03,8.44,.01,16.87,.07,25.31,0,2.51-.02,4.93,.24,7.31,.94,3.4,2.07,4.98,4.97,4.07,8.99Z" fill="#7532cd"/>
  <path d="M56.92,64.79c-10.08-.42-20.49-3.92-29.78,3.13-.72-3.71,1.39-6,4.03-8.02,9.49-1.99,19.1-.37,28.64-.98,1.76,1.77,1.74,3.78,.45,5.68-.85,1.26-2.17,1.19-3.35,.18Z" fill="#961fc1"/>
  <path d="M161.86,31.97c0-.28,0-.56,0-.84-.11-1.24-.11-2.44,1.15-3.18,8.69-.05,17.37-.1,26.06-.16,1.97,.04,3.94,.22,5.9,.11,3.96-.23,6.49,1.59,7.93,5.17-.46,.77,.48,3.74-1.92,1.47-2.73-2.57-5.92-2.57-9.27-2.56-9.95,.04-19.9,0-29.85,0Z" fill="#6f31c7"/>
  <path d="M31.97,121.83c5.28,0,10.55,.01,15.83,.02,1.36,1.36,1.36,2.72,0,4.08-7.8-.01-15.6,.2-23.38-.12-5.3-.22-10.17,.29-14.25,4.03,.4-5.41,2.72-7.81,7.92-7.94,4.63-.11,9.26-.06,13.89-.08Z" fill="#901eb8"/>
  <path d="M47.79,78.98c-7.13-.01-14.27,.25-21.37-.12-5.64-.3-10.73,.6-15.26,4.07,.38-5.32,2.82-7.83,7.92-7.97,4.3-.12,8.59-.08,12.89-.11,5.44-.86,10.91-.21,16.37-.34,2.16,1.78,.76,3.12-.55,4.47Z" fill="#6f31c7"/>
  <path d="M165.73,12.14c4.08-.08,8.17-.16,12.25-.25,2.8,.04,5.61-.04,8.41,.13,5.42,.33,7.88,3.34,7.63,9.1-4.31-4.57-9.79-5.43-15.73-5.14-4.43,.22-8.88,.08-13.33,.1-.88-1.54-.31-2.8,.77-3.96Z" fill="#951fbf"/>
  <path d="M203,142.74c-.3,.66-.57,2.11-1.45,1.15-3.43-3.74-7.84-2.99-12.1-3-5.48-.02-10.95,.01-16.43,.02-1.37-1.35-1.36-2.7-.01-4.06,7.32,0,14.65,0,21.97,.02,4.09,0,7.09,1.52,8.01,5.87Z" fill="#901fb8"/>
  <path d="M47.81,110.93c-2.81-.02-5.66,.23-8.44-.1-4.79-.58-8.71,1.03-12.24,4.05,.14-5.91,2.62-8.7,8.21-8.9,4.14-.15,8.29-.03,12.44-.02,1.66,1.65,1.64,3.31,.02,4.98Z" fill="#9823c1"/>
  <path d="M173.01,136.86c0,1.35,0,2.71,.01,4.06-.08,3.37-1.27,5.54-5.17,4.78-.23-.63-.13-1.2,.29-1.72,2.43-2.35,2.14-5.42,2.16-8.38,.1-19.54-.16-39.08,.12-58.61,0-.84-.07-1.69-.01-2.53,.09-1.27,.13-2.56,.12-3.84,.69-3.23-2.58-3.23-3.94-4.8-.08-.55,.1-.99,.53-1.34,2.14-.73,4.25-1.37,5.22,1.64,1.08,4.6,.44,9.27,.47,13.9,.1,16.13,.17,32.27-.07,48.4-.05,3.44,.49,5.65,4.03,6.43-1.25,.67-4.06-1.54-3.76,2.02Z"/>
  <path d="M47.81,110.93c0-1.66-.02-3.32-.02-4.98,0-5.34,.01-10.68,.02-16.02,0-3.65,0-7.3-.01-10.95,.48-1.28,.96-2.55,1.45-3.83,1.28-1.37,2.89-.44,4.34-.64,.44,.27,.67,.66,.67,1.17-1.21,1.73-4.46,1.82-3.95,4.94-.01,1.57,0,3.12,.11,4.69,0,.58,0,1.15,0,1.72,.07,19.72,.06,39.43,.12,59.14,0,2.99-.13,6.07,3.02,7.87,.52,.45,.66,1,.43,1.64q-5.73,.17-6.17-7.78c0-1.35,0-2.71,.01-4.06,0-2.32,0-4.64,0-6.96,0-3.65,0-7.3,0-10.95,0-1.36,0-2.72,0-4.08,0-3.64,0-7.28,0-10.91Z"/>
  <path d="M178.81,132.83c-2.09-1.28-.89-3.29-.9-4.88-.17-20.92-.2-41.85-.26-62.77-.59-.56-.84-1.27-.97-2.05-.16-1.21-.11-2.43-.14-3.65,.46-3.06-2.68-3.08-3.97-4.68-.06-.55,.12-.98,.56-1.32,2.14-.72,4.25-1.35,5.2,1.65,1.08,4.6,.44,9.27,.47,13.9,.1,16.13,.17,32.27-.07,48.4-.05,3.44,.49,5.65,4.03,6.43-2.59-.27-4.57,0-3.98,3.52,.3,1.77,.03,3.63,.02,5.45Z"/>
  <path d="M184.99,89.92c0,1.68,0,3.35,0,5.03,0,3.68,0,7.35,0,11.03-.06,5.28-.13,10.57-.19,15.85-2.09-1.28-.89-3.3-.9-4.88-.17-20.92-.2-41.85-.26-62.78-1.07-1.07-1.04-2.46-1.13-3.82,.05-1.61-.05-3.26,.73-4.76,.18-.2,.37-.39,.56-.58,.21-.17,.42-.34,.64-.5,.17,9.88,.34,19.76,.52,29.64,.01,1.6,.02,3.2,.04,4.8,0,3.65,0,7.31-.01,10.96Z"/>
  <path d="M53.91,74.83c-1.56,.11-3.12,.22-4.68,.33-5.76-.1-11.51-.2-17.27-.31,.07-.29,.06-.58-.03-.87,7.28,0,14.57-.01,21.85-.02,.24,.16,.34,.35,.3,.55-.05,.21-.11,.32-.18,.32Z" fill="#da92f4"/>
  <path d="M24.15,174.83c.41-5.72,2.85-7.96,8.92-7.98,16.55-.07,33.1-.11,49.65-.16,28.07,.05,56.13,.1,84.2,.15,2.31,0,4.66-.24,6.85,.81,2.42,.85,3.96,2.45,4.25,5.08,.63,2.6-1.01,2.59-2.47,1.79-4.98-2.73-10.36-2.09-15.65-2.09-39.46-.03-78.93-.02-118.39-.01-4.97,0-10.03-.51-14.53,2.45-.83,.54-1.89,.65-2.83-.03Z" fill="#8f1db7"/>
  <path d="M53.95,155.69c0-.22,0-.44,0-.67,1.77-2.03,4.22-1.76,6.5-1.77,32.95-.05,65.91-.05,98.86,0,1.98,0,4.03-.09,5.73,1.26-.05,.45-.1,.91-.15,1.36-36.98-.06-73.96-.13-110.95-.19Z"/>
  <path d="M24.15,174.83c5.32-4.87,11.88-3.99,18.27-3.99,41.17,0,82.35,.02,123.52-.02,3.85,0,7.61-.18,10.61,3.02,.91,.97,1.16-.46,1.47-1.12,.64,5.46-1.82,8.72-6.92,9.07-1.49,.1-2.99,.02-4.48,.02-44.33,0-88.65,0-132.98,0-6.24,0-8.15-1.44-9.48-6.99Z" fill="#b726eb"/>
  <path d="M165.05,154.51c-1.81,.11-3.62,.32-5.44,.33-35.22,.07-70.44,.13-105.66,.18-3.64,.27-5.16-.92-5.1-5.06,.3-21.26,.24-42.52,.3-63.78,7.54-1.99,15.22-.68,22.82-.78,30.1-.39,60.21,.34,90.32-.13,1.32-.02,2.67-.06,3.87,.7,1.31,1.73,1.09,3.78,1.09,5.75,.03,16.09,.17,32.18-.08,48.27-.07,4.67-.33,9.44-1.67,14.01l-.42,.08-.03,.42Z" fill="#fefefe"/>
  <path d="M165.5,154.01c.12-12.05,.3-24.1,.34-36.15,.03-10.57-.11-21.15-.18-31.72-.38-.39-.65-.85-.81-1.38-.35-1.62-.31-3.26-.21-4.9,.37-1.34,.23-3.08,2.39-2.97,.43,.46,.73,.99,.93,1.59,.92,5.44,.42,10.92,.45,16.38,.08,14.59,.02,29.18,.03,43.77,0,2.16,.1,4.31-.59,6.4,0,.22,0,.44,0,.66-1.98,1.81-.7,4.07-.83,6.13-.51,.72,.57,2.56-1.52,2.19Z"/>
  <path d="M172.85,54.13c0,.22,0,.44,0,.67-1.46,1.79-3.52,1.64-5.5,1.64-33.21,.02-66.41,.04-99.62-.04-2.1,0-4.86,.84-5.74-2.4,5.59,.74,3.75-3.23,3.8-6,.15-1.3,.29-2.6,.44-3.9,.58-.03,1.16-.06,1.75-.1,.1,.24,.21,.48,.32,.72,.34,2.05-.54,4.23,.72,6.17,2.24,2.08,5.03,1.44,7.61,1.44,29.74,0,59.49,.13,89.23,.16,2.42,0,5.06-.58,7,1.63Z"/>
  <path d="M67.97,44.01c.69-1.82,2.27-.99,3.41-.99,36.05-.05,72.09-.05,108.14-.01,1.65,0,3.89-.83,4.29,2.01,0,0,.06-.07,.06-.07-1.54,.84-3.21,.68-4.87,.68-34.18-.09-68.36,0-102.54-.07-2.91,0-6.04,.68-8.55-1.62l.05,.07Z"/>
  <path d="M165.73,12.14c.35,1.44-.39,2.66-.77,3.95-1.3,2.1-3.44,3.72-3.92,6.26-.33,1.73-.89,3.03-2.84,2.41-1.98-.64-1.42-2.45-1.07-3.81,.28-1.07,1.11-1.99,1.7-2.98,.81-1.41,1.06-2.91-.47-3.86-1.14-.71-2.29,.17-3.06,1.02-.96,1.06-2.35,1.14-3.45,1.83-.64-.01-1.28-.02-1.92-.03-.03-1.65-.06-3.31-.09-4.96,5.18-5.89,11.42-5.83,15.9,.16Z" fill="#7a018e"/>
  <path d="M151.85,16.96c.87-.95,1.68-1.98,2.64-2.84,1.47-1.32,3.26-2.94,5.15-1.47,2.38,1.85,.67,3.71-.81,5.32-1.75-4.31-4.83,.55-6.98-1.01Z" fill="#941bbc"/>
  <path d="M163.02,27.94c-.16,1.14,.01,2.4-1.15,3.18-2.11-.03-3.92-.45-4.02-3.1,1.7-1.41,3.41-2.33,5.17-.08Z" fill="#790492"/>
  <path d="M61.99,54c.48,1.28,1.61,.94,2.53,.94,36.11-.04,72.22-.09,108.33-.15,2.58,.27,5.85-.25,4.83,4.18-1.98,1.68-4.18,.38-6.26,.38-35.27,.02-70.55-.06-105.82,.06-1.17,0-2.3,.4-3.47,.24-2.27-.32-1.22-2.56-2.14-3.68,.2-1.13,.86-1.8,2-1.99Z" fill="#990caf"/>
  <path d="M59.99,56c1.68,.5,.56,2.06,1.13,2.98,1,1.04,1.08,2.6,2.13,3.61,5.23,1.5,10.6,.84,15.87,.8,27.08-.18,54.17,.18,81.25,.09,2.27,0,4.72-.45,6.5,1.64,0,.22,0,.44,0,.66-1.46,1.8-3.53,1.64-5.51,1.64-33.45,.02-66.89,.02-100.34,0-1.33,0-2.67-.02-3.91-.6-.65-.3-1.03-.81-1.14-1.51,.32-.18,.64-.35,.96-.53,5.76,.41,2.04-3.86,2.89-5.87,.06-.98,.12-1.95,.18-2.93Z"/>
  <path d="M172.85,54.13c-33.78-.06-67.55-.13-101.33-.14-2.88,0-5.57,.23-4.41-4.01,4.18-5.29,9.49-3.6,14.72-2.39,2.17,3.19,4,1.03,5.88-.41,5.75-1.53,11.6-.61,17.4-.75,6.32-.15,12.65-.07,18.98-.01,2.17,.02,4.35,.07,6.23,1.39,1.24,1.24,2.72,1.75,4.49,1.75,12.82,0,25.63,.04,38.45-.03,1.19,0,2.32-.21,3.27-1,2.93-2.23,5.32-1.8,7.14,1.45,0,1.4-.02,2.8-.02,4.2-1.62,1.16-3.54,.6-5.31,.94-1.64-1.39-3.54-1.31-5.49-.99Z" fill="#c310e0"/>
  <path d="M166.85,65.12c-33.78-.06-67.56-.08-101.34-.27-1.4,0-4.35,1.88-4.4-1.9,.98-2.57,2.64-3.68,5.59-3.73,3.1-.05,6.16,0,9.24,.25,2.41,2.2,4.49-.35,6.76-.47,13.64,.05,27.27-.3,40.89,.17,1.65,.77,3.29,1.39,5.2,1.39,12.75-.02,25.5,.01,38.24-.03,1.33,0,2.65-.08,3.83-.81,3.48-1.48,5.45,.22,6.81,3.23,0,.74-.02,1.48-.03,2.22-1.62,1.15-3.54,.6-5.31,.94-1.64-1.39-3.54-1.31-5.49-.99Z" fill="#c310e0"/>
  <path d="M55.95,65.32l-.04,.16c1.14,1.38,.33,2.94,.43,4.42,.03,1.27-.09,2.6,1.44,3.2,7.3,.51,14.59,.31,21.88,.26,26.2-.17,52.4,.29,78.59,.19,2.27,0,4.7-.46,6.64,1.32-1.21,3.51-4.26,2.5-6.67,2.5-23.61,.08-47.22,.05-70.83,.05-9.14,0-18.29,.02-27.43-.02-2.13,0-4.39,.3-6.01-1.64,0-.32-.02-.63-.04-.95,.06-.3,.02-.59-.12-.87,.99-2.81-1.54-6.51,2.16-8.64Z"/>
  <path d="M164.78,74.97c-34.75,0-69.5,0-104.24-.08-1.8,0-3.91,.95-5.42-.95,.84-2.62,2.22-4.01,5.4-3.87,3.11,.14,6.24-.02,9.36,.36,2.48,2.14,4.53-.12,6.75-.68,13.68-.14,27.35-.79,41.01,.33,1.61,.9,3.28,1.47,5.19,1.46,12.65-.02,25.3,0,37.95-.03,1.5,0,3.01-.05,4.31-.96,3.5-1.43,5.75-.4,6.59,3.37,0,.74-.02,1.48-.03,2.22-1.28,1.99-2.88,2.14-4.74,.84l-.14-.14c-.99-.29-1.57-1.01-1.99-1.89Z" fill="#c210df"/>
  <path d="M55.12,69.96c-.52-1.63,.18-3.05,.8-4.48,.64,.15,1.27,.44,1.91,.44,36.34-.03,72.69-.08,109.03-.13,2.58,.27,5.85-.25,4.83,4.18-29.97,1.16-59.94-.37-89.91-.02-8.89,.1-17.77,.28-26.66,.02Z" fill="#990caf"/>
  <path d="M166.92,77c1.6-.16,3.3,.21,4.74-.84,.06,21.6,.07,43.2,.26,64.8,.03,3.16-1.28,4.14-4.06,4.08-1.61-.81-.97-2.32-.97-3.52-.02-21.5,.01-43.01,.03-64.51Z" fill="#c5c5c5"/>
  <path d="M55.12,69.96c2.38-.81,4.82-1.05,7.34-1.05,33.96,.04,67.92,.04,101.88,0,2.53,0,4.96,.24,7.34,1.05,0,1.32,0,2.65,0,3.97-1.34-2.34-3.25-3.49-6-2.94-1.09,.96-2.43,.93-3.75,.93-13.37,.02-26.75,.03-40.12,0-1.32,0-2.66,.03-3.75-.93h-43.28c-1.57,1.18-3.14,1.18-4.7,0-2.9,1.39-6.12,.42-8.94,.29-3.02-.14-4.3,1.16-6.03,2.66,0-1.32,0-2.65,0-3.97Z" fill="#ab0dc4"/>
  <path d="M165.69,84.92c-.01,.41-.02,.81-.03,1.22-1.46,1.14-3.18,.77-4.82,.77-35.61,.01-71.23,.01-106.84,0-1.65,0-3.35,.25-4.85-.74,0-.42-.02-.84-.02-1.27,1.67-4.54,3.71-5.61,9.59-4.5,1.75,.33,3.54,.58,5.27,1.07,2.58,2.23,4.04-.33,5.87-1.39,13.57-1.14,27.15-.46,40.72-.37,1,0,1.93,.45,2.75,1.05,1.12,1.04,2.35,1.74,3.97,1.74,13.26,.01,26.52,.11,39.79-.06,.84-.01,1.62-.32,2.32-.79,4.22-3,5.27,.11,6.29,3.27Z" fill="#c410e1"/>
  <path d="M164.78,74.97c1.1,.17,1.76,.81,1.99,1.89-1.53,.62-.58,2.12-1.1,3.1-3.36,1.24-6.83,.34-10.23,.4-26.25,.48-52.49-.88-78.73-.33-8.59,.18-17.21-.39-25.78,.65-.68,.08-1.29-.26-1.8-.71-1.01-4.41,2.22-3.94,4.82-4.19,36.28,.05,72.55,.11,108.83,.15,.8,0,1.69,.1,2-.96Z" fill="#990caf"/>
  <path d="M49.13,79.96c19.39-2.18,38.85-.6,58.27-.97,12.47-.24,24.96-.06,37.44-.04,6.96,.01,13.94-.42,20.83,1.01,0,1.65,0,3.31,.01,4.96-1.61-.98-1.53-4.92-4.91-2.82-1.15,.84-2.48,.82-3.81,.82-13.39,.02-26.79,.02-40.18,0-1.32,0-2.66,.03-3.81-.82-.9-1.33-2.28-1.16-3.6-1.16-12.3,0-24.61,0-36.91,0-1.31,0-2.7-.19-3.61,1.14-1.61,1.03-3.2,1.11-4.76-.1-3.09,2.03-6.72,.08-9.41-.23-3.82-.44-3.9,1.96-5.57,3.16,0-1.65,0-3.3,0-4.95Z" fill="#b00eca"/>
  <path d="M76.07,60c-2.77,1.41-5.74,.12-8.6,.34-2.71,.21-4.51,1.08-6.36,2.61,0-1.32,0-2.65,0-3.97,2.38-.81,4.81-1.05,7.34-1.04,32.13,.04,64.25,.03,96.38,.03,4.31,0,8.64-.24,12.85,1.02,0,1.33,0,2.65,0,3.98-1.88-1.22-3.2-3.59-5.99-2.95-1.09,.96-2.43,.93-3.75,.93-13.38,.02-26.75,.02-40.13,0-1.32,0-2.66,.03-3.75-.93-14.42,0-28.85,0-43.27,0-1.57,1.19-3.14,1.19-4.71,0Z" fill="#ac0ec5"/>
  <path d="M129.99,49.14c-.91-1.32-2.29-1.15-3.61-1.15-11.98,0-23.95,0-35.93,0-1.31,0-2.7-.18-3.62,1.13-1.61,1.05-3.21,1.05-4.82,0-5.1-1.97-10.08-1.86-14.91,.86-.27-2.09-.53-4.17,.81-6.04,36.56,.02,73.12,.03,109.69,.07,2.12,0,4.35-.48,6.27,.95-.07,1.68-.14,3.36-.2,5.03-1.93-.58-3.55-3.36-5.93-.85-1.14,.85-2.48,.81-3.8,.81-13.38,.02-26.76,.02-40.15,0-1.32,0-2.66,.03-3.8-.81Z" fill="#9e0db4"/>
  <path d="M108.82,101.7c0-.51-.01-1.01-.02-1.52-.39-.58-.34-1.11,.15-1.61,4.34-1.85,8.79-1.24,13.23-.53,.92,.84,1.84,.73,2.74-.06,8.91-.98,17.82-.88,26.73-.08,.61,.23,1.1,.6,1.49,1.12-.92,1.11-1.35,2.37-1.2,3.82-.22,.22-.43,.44-.64,.66-8.76,1.71-17.56,1.12-26.36,.36-.87-.83-1.76-.96-2.69-.08-4.44,.72-8.88,1.34-13.23-.47-.51-.48-.57-1.01-.2-1.6Z" fill="#7f7f7f"/>
  <path d="M62.22,136.32h44.4c0,.33,0,.66,.01,.98H62.23c0-.33,0-.66,0-.98Z" fill="#565656"/>
  <path d="M106.63,148.42H62.23c0-.33,0-.67-.01-1h44.41c0,.33,0,.67,0,1Z" fill="#565656"/>
  <path d="M106.63,142.42H62.22c0-.33,0-.67-.01-1h44.41c0,.33,0,.67,0,1Z" fill="#565656"/>
  <path d="M153.14,125.98c-.78,1.53-2.11,1.92-3.72,1.91-13.11-.04-26.22-.05-39.34-.11-.43,0-.86-.41-1.29-.63-.39-.58-.34-1.11,.15-1.61,4.35-1.85,8.79-1.24,13.24-.53,.92,.85,1.83,.74,2.73-.06,8.91-.99,17.82-.88,26.74-.09,.61,.23,1.1,.6,1.49,1.12Z" fill="#7f7f7f"/>
  <path d="M156.14,147.96c-.78,1.53-2.11,1.92-3.72,1.91-13.11-.04-26.22-.05-39.34-.11-.43,0-.86-.41-1.29-.63-.39-.58-.34-1.11,.15-1.61,4.35-1.85,8.79-1.24,13.24-.53,.92,.85,1.83,.74,2.73-.06,8.91-.99,17.82-.88,26.74-.09,.61,.23,1.1,.6,1.49,1.12Z" fill="#7f7f7f"/>
  <path d="M153.14,111.99c-.78,1.53-2.11,1.92-3.72,1.91-13.11-.04-26.22-.05-39.34-.11-.43,0-.86-.41-1.29-.63-.39-.58-.34-1.11,.15-1.61,4.35-1.85,8.79-1.24,13.24-.53,.92,.85,1.83,.74,2.73-.06,8.91-.99,17.82-.88,26.74-.09,.61,.23,1.1,.6,1.49,1.12Z" fill="#7f7f7f"/>
  <path d="M108.82,88.72c1.56-1.43,3.47-.75,5.21-.76,11.24-.07,22.48-.08,33.72,.02,1.49,.01,3.91-1.24,4.2,1.84-.21,.22-.43,.44-.64,.67-8.77,1.72-17.57,1.12-26.37,.37-.86-.83-1.76-.96-2.69-.08-4.44,.72-8.88,1.33-13.23-.46-.51-.48-.58-1.01-.2-1.6Z" fill="#7f7f7f"/>
  <path d="M111.82,137.67c1.56-1.43,3.47-.75,5.21-.76,11.24-.07,22.48-.08,33.72,.02,1.49,.01,3.91-1.24,4.2,1.84-.21,.22-.43,.44-.64,.67-8.77,1.72-17.57,1.12-26.37,.36-.86-.83-1.76-.96-2.69-.08-4.44,.72-8.88,1.33-13.23-.46-.51-.48-.58-1.01-.2-1.6Z" fill="#7f7f7f"/>
  <path d="M108.82,115.69c1.56-1.43,3.47-.75,5.21-.76,11.24-.07,22.48-.08,33.72,.02,1.49,.01,3.91-1.24,4.2,1.84-.21,.22-.43,.44-.64,.67-8.77,1.72-17.57,1.12-26.37,.36-.86-.83-1.76-.96-2.69-.08-4.44,.72-8.88,1.33-13.23-.46-.51-.48-.58-1.01-.2-1.6Z" fill="#7f7f7f"/>
  <path d="M56.95,127.72c-3.77,.69-5.05-1.14-5.02-4.69,.08-9.75,.09-19.5,0-29.25-.03-3.57,1.27-5.35,5.02-4.69,.26,.55,.18,1.06-.22,1.51-2.06,1.79-2.39,4.15-2.37,6.71,.04,7.4,.04,14.79,0,22.19-.01,2.56,.32,4.92,2.4,6.7,.4,.46,.46,.97,.19,1.51Z" fill="#646464"/>
  <path d="M94.92,89.09c3.77-.68,5.05,1.14,5.02,4.69-.08,9.75-.09,19.5,0,29.25,.03,3.58-1.28,5.34-5.03,4.68-.26-.55-.18-1.06,.22-1.51,2.06-1.79,2.39-4.15,2.37-6.71-.04-7.4-.04-14.79,0-22.19,.01-2.56-.32-4.92-2.4-6.7-.4-.46-.46-.97-.19-1.51Z" fill="#646464"/>
  <path d="M94.92,127.05c0,.22,0,.44,0,.66H56.95c0-.22,0-.44,0-.66,1.3-1.63,3.19-1.69,5.01-1.72,9.32-.13,18.64-.13,27.95,0,1.82,.02,3.7,.08,5.01,1.72Z" fill="#646464"/>
  <path d="M94.92,89.09c0,.22,0,.44,0,.66-1.3,1.63-3.19,1.69-5.01,1.72-9.32,.13-18.64,.13-27.95,0-1.82-.02-3.7-.08-5.01-1.72,0-.22,0-.44,0-.66h37.97Z" fill="#646464"/>
  <path d="M108.82,88.72c.07,.49,.14,.97,.2,1.46,1.8,2.83,1.8,5.66,0,8.49-.08,.51-.15,1.01-.23,1.52-2.72-3.52-2.71-8.11,.02-11.46Z" fill="#7e7e7e"/>
  <path d="M111.82,137.67c.07,.49,.14,.97,.2,1.46,1.8,2.83,1.81,5.66,0,8.49-.08,.51-.15,1.01-.23,1.52-2.72-3.53-2.71-8.12,.03-11.47Z" fill="#7e7e7e"/>
  <path d="M109.02,111.65c-.08,.51-.15,1.01-.23,1.52-2.72-3.53-2.71-8.11,.02-11.47,.07,.49,.14,.98,.21,1.47,1.8,2.83,1.8,5.66,0,8.49Z" fill="#7e7e7e"/>
  <path d="M108.82,115.69c.07,.49,.14,.97,.2,1.46,1.8,2.83,1.8,5.66,0,8.49-.08,.51-.15,1.01-.23,1.52-2.72-3.53-2.71-8.12,.03-11.47Z" fill="#7e7e7e"/>
  <path d="M153.14,99.01c-.51-.07-1.02-.14-1.53-.21-1.69-2.99-1.72-5.94,.22-8.84,0,0,.12-.13,.12-.13,3.87,2.61,1.58,6.02,1.19,9.18Z" fill="#7e7e7e"/>
  <path d="M153.14,125.98c-.51-.07-1.02-.14-1.53-.21-1.69-2.99-1.72-5.94,.22-8.84,0,0,.12-.13,.12-.13,3.87,2.61,1.58,6.02,1.19,9.18Z" fill="#7e7e7e"/>
  <path d="M153.14,111.99c-.51-.07-1.02-.14-1.53-.21-1.69-2.99-1.72-5.94,.22-8.84,0,0,.11-.12,.11-.12,3.9,2.6,1.58,6.01,1.2,9.17Z" fill="#7e7e7e"/>
  <path d="M156.14,147.96c-.51-.07-1.02-.14-1.53-.21-1.69-2.99-1.72-5.94,.22-8.84,0,0,.12-.13,.12-.13,3.87,2.61,1.58,6.02,1.19,9.18Z" fill="#7e7e7e"/>
  <path d="M59.75,136.71c-2.53,1.48-4.06,1.48-6.18,.24,1.97-1.49,3.54-1.24,6.18-.24Z" fill="#5e5e5e"/>
  <path d="M53.38,141.88c2.32-1.42,3.84-1.03,6.69-.3-2.89,1.66-4.41,1.54-6.69,.3Z" fill="#5e5e5e"/>
  <path d="M53.15,148.03c2.53-1.48,4.06-1.48,6.18-.24-1.97,1.49-3.54,1.24-6.18,.24Z" fill="#5e5e5e"/>
  <path d="M129.99,49.14c15.92,0,31.84,0,47.75,0,.18,1.68-.88,1.83-2.17,1.83-14.47-.01-28.94-.01-43.41,0-1.29,0-2.35-.15-2.17-1.83Z"/>
  <path d="M82.02,49.12c1.61,0,3.21,0,4.82,0-1.6,2.58-3.22,2.58-4.82,0Z" fill="#09010a"/>
  <path d="M124.06,60.01c15.88,0,31.75,0,47.63,0,.34,2.13-1.16,1.94-2.47,1.94-14.23,0-28.45,0-42.68,0-1.32,0-2.81,.19-2.48-1.94Z"/>
  <path d="M76.07,60c1.57,0,3.14,0,4.71,0,.41,2.09-1.02,1.97-2.36,1.97-1.34,0-2.77,.11-2.36-1.97Z" fill="#09010a"/>
  <path d="M118.07,71c15.87,0,31.75,0,47.62,0,.34,2.13-1.16,1.94-2.48,1.94-14.22,0-28.45,0-42.67,0-1.31,0-2.81,.2-2.47-1.94Z"/>
  <path d="M70.08,70.99c1.57,0,3.14,0,4.7,0,.42,2.09-1.02,1.97-2.35,1.97-1.33,0-2.77,.12-2.35-1.97Z" fill="#09010a"/>
  <path d="M112.98,82.1c15.93,0,31.86,0,47.79,0,.15,1.66-.88,1.84-2.19,1.84-14.47-.02-28.95-.02-43.42,0-1.31,0-2.33-.18-2.19-1.84Z"/>
  <path d="M64.1,81.98c1.59,.03,3.17,.06,4.76,.1,.25,2.04-1.18,1.86-2.47,1.87-1.33,0-2.72,.08-2.29-1.97Z" fill="#09010a"/>
  <path d="M151.83,89.96c-.07,2.95-.15,5.89-.22,8.84l-27.59,.02c-2.12-2.93-2.12-5.87,0-8.8,9.27-.02,18.54-.04,27.81-.06Z" fill="#fefefe"/>
  <path d="M151.83,102.94c-.07,2.95-.15,5.9-.22,8.84-9.2,0-18.4,.01-27.59,.02-2.12-2.93-2.12-5.87,0-8.8,9.27-.02,18.54-.04,27.81-.06Z" fill="#fefefe"/>
  <path d="M109.02,111.65c0-2.83,0-5.66,0-8.49,4.58-.05,9.16-.1,13.74-.15,.95,2.93,.95,5.87,0,8.8-4.58-.05-9.16-.1-13.74-.16Z" fill="#fefefe"/>
  <path d="M109.02,98.66c0-2.83,0-5.66,0-8.49,4.58-.05,9.16-.1,13.74-.15,.95,2.93,.95,5.87,0,8.8-4.58-.05-9.16-.1-13.74-.16Z" fill="#fefefe"/>
  <path d="M122.77,98.82c0-2.93,0-5.87,0-8.8,.42-1.03,.83-1.04,1.25,0,0,2.93,0,5.87,0,8.8-.42,1.03-.83,1.03-1.25,0Z"/>
  <path d="M122.77,111.81c0-2.93,0-5.87,0-8.8,.42-1.03,.83-1.04,1.25,0,0,2.93,0,5.87,0,8.8-.42,1.03-.83,1.03-1.25,0Z"/>
  <path d="M151.83,116.93c-.07,2.95-.15,5.89-.22,8.84-9.2,0-18.4,.01-27.59,.02-2.12-2.93-2.12-5.87,0-8.8,9.27-.02,18.54-.04,27.81-.06Z" fill="#fefefe"/>
  <path d="M109.02,125.63c0-2.83,0-5.66,0-8.49,4.58-.05,9.16-.1,13.74-.15,.95,2.93,.95,5.87,0,8.8-4.58-.05-9.16-.1-13.74-.16Z" fill="#fefefe"/>
  <path d="M122.77,125.79c0-2.93,0-5.87,0-8.8,.42-1.02,.83-1.03,1.25,0v8.8c-.42,1.03-.84,1.03-1.25,0Z"/>
  <path d="M154.83,138.91c-.07,2.95-.15,5.89-.22,8.84-9.2,0-18.4,.01-27.59,.02-2.12-2.93-2.12-5.87,0-8.8,9.27-.02,18.54-.04,27.81-.06Z" fill="#fefefe"/>
  <path d="M112.02,147.61c0-2.83,0-5.66,0-8.49,4.58-.05,9.16-.1,13.74-.15,.95,2.93,.95,5.87,0,8.8-4.58-.05-9.16-.1-13.74-.16Z" fill="#fefefe"/>
  <path d="M125.76,147.77c0-2.93,0-5.87,0-8.8,.42-1.03,.83-1.04,1.25,0,0,2.93,0,5.87,0,8.8-.42,1.03-.83,1.03-1.25,0Z"/>
  <path d="M56.95,89.76c12.66,0,25.31,0,37.97,0,3.24-.17,4.13,1.42,4.06,4.54-.19,9.4-.17,18.81,0,28.21,.05,3.07-.77,4.75-4.06,4.54-12.66,0-25.31,0-37.97,0-3.24,.17-4.13-1.42-4.06-4.54,.19-9.4,.17-18.81,0-28.21-.05-3.07,.77-4.75,4.06-4.54Z" fill="#fefefe"/>
  <path d="M78.58,108.58c-.82,1.06-1.38,2.55-2.34,2.87-1.72,.57-1.31-2.29-2.9-2.43,.71-.97,1.25-2.51,2.16-2.79,1.65-.49,1.26,2.45,3.08,2.34Z" fill="#1c1c1c"/>
</svg>