<svg xmlns="http://www.w3.org/2000/svg" width="120.493" height="123.345" viewBox="0 0 120.493 123.345">
  <g id="Group_19" data-name="Group 19" transform="translate(-126.853 -227.585)">
    <g id="Group_15" data-name="Group 15">
      <path id="Path_9" data-name="Path 9" d="M128.522,143.719h-7.9a3.989,3.989,0,0,0,0-7.978h-7.9a3.989,3.989,0,0,0,0-7.978H100.868a3.989,3.989,0,0,0,0-7.978H122.6a3.989,3.989,0,0,0,0-7.977H112.72a3.989,3.989,0,0,0,0-7.978h-3.95a3.989,3.989,0,0,0,0-7.978h19.752a3.989,3.989,0,0,0,0-7.978h-7.9a3.989,3.989,0,0,0,0-7.978h-7.9a3.989,3.989,0,0,0,0-7.978h-5.926a3.989,3.989,0,0,0,0-7.978H47.534a3.989,3.989,0,0,0,0,7.978H33.707a3.989,3.989,0,0,0,0,7.978H29.756a3.989,3.989,0,0,0,0,7.978H41.608a3.989,3.989,0,0,0,0,7.978H19.88a3.989,3.989,0,0,0,0,7.978h9.876a3.989,3.989,0,0,0,0,7.978H19.88a3.989,3.989,0,0,0,0,7.977H15.929a3.989,3.989,0,0,0,0,7.978h9.876a3.989,3.989,0,0,0,0,7.978h-3.95a3.989,3.989,0,0,0,0,7.978H41.608a3.989,3.989,0,0,0,0,7.978h-7.9a3.989,3.989,0,0,0,0,7.978h67.161a3.989,3.989,0,0,0,0-7.978h27.653a3.989,3.989,0,0,0,0-7.978Z" transform="translate(114.874 191.256)" fill="#e7d6ff"/>
      <text id="_" data-name="?" transform="translate(219.929 282.075) rotate(-19)" fill="#8854d0" font-size="20" font-family="Poppins-SemiBold, Poppins" font-weight="600"><tspan x="0" y="0">?</tspan></text>
      <text id="_2" data-name="?" transform="translate(211.903 263.051) rotate(-19)" fill="#8854d0" font-size="30" font-family="Poppins-SemiBold, Poppins" font-weight="600"><tspan x="0" y="0">?</tspan></text>
      <text id="_3" data-name="?" transform="translate(205.748 273.34) rotate(-19)" fill="#8854d0" font-size="20" font-family="Poppins-SemiBold, Poppins" font-weight="600"><tspan x="0" y="0">?</tspan></text>
      <g id="translator" transform="translate(160 240.276)">
        <path id="Path_90" data-name="Path 90" d="M52.707,85.843H1.882A1.882,1.882,0,0,1,0,83.961V41.606a1.882,1.882,0,0,1,1.882-1.882H52.707a1.882,1.882,0,0,1,1.882,1.882V83.961A1.882,1.882,0,0,1,52.707,85.843Z" fill="#fff" stroke="#000" stroke-width="0.5"/>
        <path id="Path_91" data-name="Path 91" d="M54.59,44.43H0V41.606a1.882,1.882,0,0,1,1.882-1.882H52.707a1.882,1.882,0,0,1,1.882,1.882Z" fill="#8854d0" stroke="#000" stroke-width="0.5"/>
        <path id="Path_104" data-name="Path 104" d="M10.709,51.374H9.768a.941.941,0,0,1-.941-.941v-.941a.941.941,0,0,1,.941-.941h.941a.941.941,0,0,1,.941.941v.941A.941.941,0,0,1,10.709,51.374Z" transform="translate(-7.886 -7.885)" fill="#fff" stroke="#000" stroke-width="0.5"/>
        <path id="Path_105" data-name="Path 105" d="M407.951,51.374h-.941a.941.941,0,0,1-.941-.941v-.941a.941.941,0,0,1,.941-.941h.941a.941.941,0,0,1,.941.941v.941A.941.941,0,0,1,407.951,51.374Z" transform="translate(-362.773 -7.885)" fill="#ff5050" stroke="#000" stroke-width="0.5"/>
        <path id="Path_106" data-name="Path 106" d="M443.26,51.374h-.941a.941.941,0,0,1-.941-.941v-.941a.941.941,0,0,1,.941-.941h.941a.941.941,0,0,1,.941.941v.941A.941.941,0,0,1,443.26,51.374Z" transform="translate(-394.318 -7.885)" fill="#fff082" stroke="#000" stroke-width="0.5"/>
        <path id="Path_107" data-name="Path 107" d="M478.571,51.374h-.941a.941.941,0,0,1-.941-.941v-.941a.941.941,0,0,1,.941-.941h.941a.941.941,0,0,1,.941.941v.941A.941.941,0,0,1,478.571,51.374Z" transform="translate(-425.864 -7.885)" fill="#a0ffb4" stroke="#000" stroke-width="0.5"/>
        <path id="Path_108" data-name="Path 108" d="M81.429,310.783H36.251a.941.941,0,0,1-.941-.941V296.665a.941.941,0,0,1,.941-.941H81.429a.941.941,0,0,1,.941.941v13.177A.941.941,0,0,1,81.429,310.783Z" transform="translate(-31.545 -228.705)" fill="none" stroke="#000" stroke-width="0.5" stroke-dasharray="3"/>
        <path id="Path_109" data-name="Path 109" d="M81.429,310.783H36.251a.941.941,0,0,1-.941-.941V296.665a.941.941,0,0,1,.941-.941H81.429a.941.941,0,0,1,.941.941v13.177A.941.941,0,0,1,81.429,310.783Z" transform="translate(-31.545 -247.705)" fill="none" stroke="#000" stroke-width="0.5" stroke-dasharray="3"/>
        <line id="Line_13" data-name="Line 13" y2="5" transform="translate(27.5 52.224)" fill="none" stroke="#000" stroke-linecap="round" stroke-width="0.5"/>
        <line id="Line_14" data-name="Line 14" x1="5" transform="translate(25 54.724)" fill="none" stroke="#000" stroke-linecap="round" stroke-width="0.5"/>
        <line id="Line_15" data-name="Line 15" y2="5" transform="translate(27.5 72.224)" fill="none" stroke="#000" stroke-linecap="round" stroke-width="0.5"/>
        <line id="Line_16" data-name="Line 16" x1="5" transform="translate(25 74.724)" fill="none" stroke="#000" stroke-linecap="round" stroke-width="0.5"/>
      </g>
    </g>
  </g>
</svg>
