<?xml version="1.0" encoding="UTF-8"?>
<svg id="Layer_1" data-name="Layer 1" xmlns="http://www.w3.org/2000/svg" viewBox="0 0 118.07 118.08">
  <path d="M94.2,60.66l-3.32,1.93c-1.5-1.17-1.51-2.88-1.54-4.52-.09-4.46-.09-8.93,0-13.4,.06-2.84,1.02-5.16,3.7-6.53,3.58-1.83,5.02-4.83,4.02-8.63-.92-3.53-3.96-4.61-7.23-5.01-7.25-.89-14.54-.2-21.81-.44-2.43-.08-5.01,.47-7.14-1.32,6.82-7.39,12.85-15.66,22.21-20.27,14.86-7.31,32.45,2.34,34.71,18.74,1.24,8.99-1.98,16.11-7.74,22.51-4.32,4.8-9.61,8.68-13.29,14.07,.12,1.84-.86,2.68-2.57,2.86Z" fill="#dcf5e8"/>
  <path d="M45.96,109.4c-2.72,.57-4.59,2.51-6.7,4.09-13.98,10.48-35.33,1.97-38.44-15.21-1.87-10.32,2.06-18.41,9.21-25.34,1.78-1.72,3-2.99-.2-4.29,3.09-1.63,6.65-2.41,9.14-5.11,1.9-1.66,3.81-3.33,5.71-4.99,3.57,7.1,1.93,14.98-4.08,19.46-2.14,1.6-3.6,3.67-2.97,6.35,.62,2.65,2.14,4.84,5.04,5.67,3.39,.97,6.86,1.14,10.36,1.12,5.15-.03,10.3-.17,15.44,.06,5.03,.23,5.92,1.85,3.61,6.25-2.08,3.96-4.53,7.72-6.13,11.93Z" fill="#dcf5e8"/>
  <path d="M45.96,109.4c-1.66-1.32-.7-2.59,.05-3.89,1.9-3.31,3.72-6.68,5.7-9.95,1.52-2.5,1.08-3.48-1.96-3.44-7.32,.1-14.64,.07-21.96,.01-3.16-.03-6.38-.1-8.93-2.41-4.6-4.17-3.46-11.78,2.49-13.85,3.14-1.09,3.65-2.61,3.52-5.36-.19-3.98-.14-7.98-.2-11.97,2.05-1.78,3.19-1.52,3.18,1.4-.02,3.82,.1,7.65-.04,11.46-.09,2.39,.4,3.62,3.22,3.61,17.78-.1,35.56-.09,53.34,0,2.63,.01,3.41-.89,3.37-3.46-.12-9.3-.16-18.61,.02-27.92,.06-3.03-1.2-3.55-3.82-3.52-10.8,.1-21.6,.09-32.4,0-1.56-.01-4.66,1.14-3.29-2.72,2.22-1.51,4.75-1.32,7.24-1.33,9.65-.03,19.3,0,28.96-.02,1.99,0,4.02,.09,5.93-.6,2.02-.73,3.62-1.9,3.22-4.36-.36-2.2-2.01-2.88-4.01-2.97-1.83-.08-3.66-.04-5.49-.04-9.65-.01-19.3,.08-28.95,.03-2.32-.01-4.7,.12-6.64-1.55-.31-.66-.63-1.33-.94-1.99,.28-2.05,1.9-1.34,3.07-1.44,3.41-.28,6.86,.47,10.25-.44,0,0,.01,.04,.01,.04,8.94,.09,17.88,.14,26.82,.27,2.98,.04,5.98,.13,8.43,2.27,4.63,4.03,3.77,11.64-2.09,13.92-3.13,1.22-3.42,2.85-3.36,5.5,.14,5.96,.14,11.92,.19,17.88-.05,1.99-.04,3.98-.18,5.96-.24,3.55-.21,6.47,4.18,8.08,3.35,1.23,4.44,4.87,3.71,8.43-.76,3.73-3.11,6.17-7.07,6.65-7.1,.87-14.24,.2-21.35,.4-1.49,.04-2.99,.07-4.48,0-2.61-.14-3.37,.63-1.83,3.06,2.03,3.22,3.96,6.51,5.81,9.84,.63,1.13,2.45,2.62,.29,3.72-2.02,1.03-2.24-1.33-2.91-2.37-2.52-3.88-4.87-7.86-7.28-11.81-2.09-1.1-2.86,.59-3.78,1.84-1.04,1.42-2.23,2.72-3.32,4.1-2.83,2.53-2.7,7.28-6.7,8.93Z" fill="#406378"/>
  <path d="M48.5,26.58c13.48-.02,26.95-.02,40.43-.09,3.65-.02,6.88,.41,6.84,5.11-.04,4.66-3.3,5.84-7.09,5.86-13.48,.07-26.95-.01-40.43-.04,.74-3.6,.45-7.22,.25-10.83Z" fill="#22be6c"/>
  <path d="M22.48,54.5C10.26,54.42,.01,44.08,0,31.81-.01,19.64,10.37,9.17,22.52,9.1c12.42-.07,22.95,10.33,23.03,22.74,.08,12.29-10.56,22.74-23.07,22.66Z" fill="#3f6377"/>
  <path d="M94.2,60.66c.86-.95,1.72-1.91,2.57-2.86,1.46-.19,2.98-.74,4.37-.51,3.61,.58,5.55,3.01,5.4,6.6-.14,3.36-2.2,5.57-5.57,5.99-3.61,.45-6.11-1.37-7.04-4.83-.36-1.34,.15-2.91,.26-4.38Z" fill="#27c06f"/>
  <path d="M18.97,63.55c-1.41,4.63-4.74,5.82-9.14,5.11-3.4-2.31-5.1-5.24-2.97-9.24,1.66-3.11,4.49-3.74,7.65-2.78,3.34,1.02,4.41,3.68,4.46,6.92Z" fill="#44667b"/>
  <path d="M64.36,47.29c-.47,.56-.87,1.08-1.32,1.55-4.97,5.3-9.92,10.61-14.93,15.87-.83,.87-1.78,2.53-3.22,1.18-1.61-1.52,.43-2.28,1.17-3.09,4.8-5.23,9.67-10.39,14.55-15.54,.76-.8,1.51-1.94,2.9-1.18,.36,.2,.53,.74,.84,1.21Z" fill="#beecd3"/>
  <path d="M53.96,66.55c-.63-.4-1.14-.57-1.41-.93-.5-.65-.05-1.24,.4-1.73,2.98-3.32,5.96-6.65,8.98-9.93,.78-.84,1.72-1.86,2.9-.6,1.02,1.09-.14,1.76-.74,2.44-2.62,2.97-5.26,5.94-7.94,8.87-.65,.71-1.46,1.26-2.19,1.88Z" fill="#beecd3"/>
  <path d="M103.71,75.97c1.71,.22,2.92,.96,2.89,2.81-.03,1.79-1.07,2.73-2.85,2.72-1.6,0-2.46-1.01-2.58-2.49-.14-1.75,.8-2.78,2.53-3.03Z" fill="#3ac67c"/>
  <path d="M52.67,100.48c1.08-2.13,2.08-4.31,3.28-6.37,1.51-2.61,2.83-2.17,3.83,.43-2.37,1.98-4.74,3.96-7.1,5.94Z" fill="#d7eee4"/>
  <path d="M60.87,22.72c-2.95,1.21-6.04,.28-9.04,.6-1.49,.16-3.31-.67-4.28,1.28-1.16-2.34,.76-2.01,1.9-2.02,3.81-.03,7.61,.08,11.42,.14Z" fill="#dcf5e8"/>
  <path d="M94.12,15.63c-2.21-.05-2.91-1.3-2.86-2.95,.05-1.63,1.2-2.22,2.72-2.2,1.58,.02,2.52,.84,2.6,2.38,.09,1.82-.95,2.71-2.46,2.76Z" fill="#28c170"/>
  <path d="M57.82,88.9c-10.29,0-20.58-.05-30.87,.03-4.06,.03-7.8-.82-7.76-5.55,.04-4.47,3.66-5.21,7.53-5.2,20.58,.07,41.16,.06,61.74,0,3.92-.01,7.27,.75,7.16,5.44-.11,4.66-3.62,5.31-7.42,5.29-10.12-.04-20.25-.01-30.37-.01Z" fill="#d4deea"/>
  <path d="M90.34,29.95c-4.38,1.8-8.79,1.22-13.26,0h13.26Z" fill="#fdfefd"/>
  <path d="M75.28,30.22c-2.62,1.37-4.4,1.35-7.11,.02,2.7-1.26,4.47-1.29,7.11-.02Z" fill="#fdfefd"/>
  <path d="M41.9,32.11c1.4,9.7-8.69,19.46-19.62,19.42-9.99-.03-19.63-9.89-19.36-19.72,.31-11.08,8.79-19.31,19.88-19.29,11.45,.03,19.13,7.9,19.1,19.58Z" fill="#20be6b"/>
  <path d="M103.6,63.22c-.13,2.28-1.28,3.71-3.37,3.7-2.01,0-3.45-1.2-3.46-3.42-.01-1.98,1.25-3.07,3.08-3.25,2.16-.21,3.31,1.09,3.75,2.96Z" fill="#effaf4"/>
  <path d="M12.32,65.99c-2.05-.37-3.39-1.49-3.27-3.66,.11-1.91,1.38-3.11,3.24-3.11,2.02,0,3.51,1.09,3.51,3.33,0,2.23-1.47,3.15-3.48,3.44Z" fill="#f1f3f5"/>
  <path d="M13.86,31.61c-1.78-2.08-1.97-2.95,1.22-4.34,6.92-3,13.01-1.41,19.55,1.59-2.13,2.85-6.08,1.46-7.96,4.03-.39,1.76-1.74,.72-2.67,.93-1.32-.08-2.65-.09-3.94-.44-1.65-.52-3.27-1.18-5.04-1.22-.45-.06-.83-.25-1.16-.55Z" fill="#f7fcfa"/>
  <path d="M24.7,32.66c.67-.04,1.22,.94,1.97,.24,1.87-.35,3.18-.16,3.23,2.31,.05,1.89-.77,2.89-2.39,3.16-3.6,.61-7.23,.96-10.68-.77-1.62-4.02-1.34-4.65,2.19-5.02,1.88,.44,3.75,1.79,5.67,.08Z" fill="#f5fbf8"/>
  <path d="M19.82,33.45c-4.79-1.36-2.79,2.19-2.99,4.14-1.23,.79-2.01,3.28-4.04,1.09,2.05-1.99,.17-5,1.83-7.1,2.04-1.34,3.59,.07,5.23,.93,.34,.22,.44,.43,.32,.64-.12,.2-.24,.3-.36,.3Z" fill="#53cd8c"/>
  <path d="M14.62,31.59c-.85,2.3,2.76,5.76-1.83,7.1,.11-2.39-.58-4.91,1.06-7.07,.25-.02,.51-.03,.76-.03Z" fill="#e9f8f0"/>
  <path d="M19.82,33.45c0-.31,.02-.62,.04-.94,1.61,.05,3.23,.09,4.84,.14-1.01,4.03-3.22,.7-4.88,.8Z" fill="#57cd8e"/>
</svg>