<?xml version="1.0" encoding="UTF-8"?>
<svg id="Layer_1" data-name="Layer 1" xmlns="http://www.w3.org/2000/svg" viewBox="0 0 121.07 118.26">
  <path d="M63.79,92.75c-8.24,8.12-15.24,17.63-25.78,23.19-13.46,7.1-31.52-3.06-34.17-16.96-1.75-9.22,.98-16.97,6.95-23.75,2.73-3.1,5.96-5.76,8.96-8.62,2.33,2.53,1.29,5.66,1.42,8.54,.17,3.63,.2,7.29,0,10.92-.21,3.96,1.57,5.2,5.33,5.15,10.26-.12,20.52-.09,30.78,0,2.24,.02,4.71-.56,6.49,1.54Z" fill="#fbe0e5"/>
  <path d="M59.79,26.72c8.33-8.43,15.26-18.48,26.12-24.05,14.98-7.68,32.56,2.03,34.89,18.71,1.78,12.73-5.34,20.76-13.86,28.27-2.89-3.48-1.5-7.61-1.55-11.43-.11-8.39-1.61-10.1-10.17-10.15-9.77-.06-19.53,.02-29.3-.04-2.1-.01-4.36,.4-6.12-1.31Z" fill="#fbe0e5"/>
  <path d="M78.64,54.75c-.01,3.97-.14,7.95,0,11.91,.1,2.93-.91,4.19-3.99,4.14-7.94-.14-15.89-.18-23.83,.02-3.44,.09-4.25-1.36-4.08-4.44,.2-3.63,.05-7.28,.05-10.92q0-6.89,6.98-6.79c4.86,4.94,11.1,3.17,16.92,3.55,2.81,.18,6.16-1.01,7.94,2.53Z" fill="#ea3b5a"/>
  <path d="M21.79,57.64c1.65,1.24,1.01,3.04,1.02,4.62,.07,6.81,.1,13.62,0,20.43-.04,2.57,.48,3.99,3.52,3.98,23.09-.09,46.17-.07,69.26-.04,2.95,0,4.22-1.29,4.19-4.21-.05-4.32,.04-8.64,.07-12.95,2.01-1.12,3.87-1.05,5.54,.68,.61,2.07,.18,4.2,.39,6.29-.1,2.24,0,4.47-.06,6.71-.27,6.88-1.81,8.42-8.64,8.43-23.39,.03-46.77,.03-70.16,0-5.86,0-6.06-.24-6.09-6.27-.03-7.46-.03-14.93,0-22.39,0-1.8-.31-3.68,.95-5.26Z" fill="#d6dfeb"/>
  <path d="M25.32,54.53c-12.23-.17-22.44-10.61-22.32-22.84,.12-12.29,10.48-22.56,22.67-22.48,12.63,.09,22.91,10.37,22.83,22.82-.08,12.42-10.63,22.67-23.17,22.5Z" fill="#416277"/>
  <path d="M21.79,57.64c.03,8.98,.28,17.96-.02,26.93-.15,4.58,.87,6.21,5.92,6.14,22.44-.32,44.89-.14,67.34-.14,9.32,0,9.43-.11,9.83-9.33,.76-.3,1.41-.18,1.92,.5-.14,9.6-1.38,10.82-10.85,10.85-10.71,.03-21.43,.1-32.14,.15-12.73-.05-25.46-.25-38.19-.08-4.36,.06-5.86-1.42-5.71-5.74,.23-6.76-.06-13.55-.12-20.32,.07-2.29,.17-4.57,.2-6.86,.02-1.26,.14-2.34,1.83-2.11Z" fill="#406378"/>
  <path d="M59.79,26.72c12.27,.07,24.55,.14,36.82,.21,8.33,.05,10.16,1.92,10.19,10.28,.01,4.15,.09,8.29,.13,12.44-.1,2.73-.21,5.46-.31,8.18-.85,.42-1.62,.34-2.3-.35-1.49-2.55-1.09-5.38-.96-8.08,.16-3.35-.61-6.07-3.59-7.88-5.77-.74-11.7,.59-17.42-1.36,5.71-2.02,11.66-.64,17.43-1.41,1.55-1.62,3.88-2.87,2.59-5.78-1.29-2.92-3.38-3.96-6.66-3.91-12.92,.18-25.84,.1-38.77,.04-1.72,0-3.63,.66-5.39-.92,2.27-2.13,5.18-.19,7.43-1.39,.28,.11,.55,.09,.8-.07Z" fill="#577487"/>
  <path d="M78.64,54.75c-5.11-2.09-10.46-.95-15.66-.84-4.45,.09-7.71-.71-9.21-5.24,6.44-.01,12.89,.29,19.3-.14,5.06-.34,6.57,1.58,5.57,6.22Z" fill="#d4dde9"/>
  <path d="M58.99,26.79c-2.23,.3-4.46,.6-7.14,.95,1.76,1.88,3.58,1.21,5.16,1.22,13.32,.06,26.64,.04,39.96,.03,2.18,0,4.38,0,6.14,1.53,2.24,1.94,1.9,4.68,1.34,6.99-.58,2.42-3.01,1.08-4.67,1.24q-.04-9.01-9.3-9.01c-11.42,0-22.85,.05-34.27-.05-1.77-.02-4.92,1.13-5-1.47-.08-2.78,3.08-1.31,4.82-1.62,.94-.17,1.97,.11,2.96,.19Z" fill="#d8e1ec"/>
  <path d="M104.51,57.13c.7,.23,1.41,.47,2.11,.7,4.11,4.92,4.11,6.64-.04,11.53-.46,.8-1.14,.93-1.96,.62-1.59-.17-3.19-.35-4.78-.52-4.36-4.97-4.37-6.76-.01-11.7,1.39-1.42,2.96-1.54,4.67-.63Z" fill="#ea415f"/>
  <path d="M6.06,69.06C2.5,68.52,.16,66.56,0,62.66c-.14-3.69,2.89-6.63,6.61-6.39,3.85,.25,6.05,2.41,6.2,6.3,.14,3.62-2.99,6.6-6.75,6.5Z" fill="#45667b"/>
  <path d="M104.51,57.13c-1.56,.21-3.12,.42-4.67,.63-.02-5.41-.04-10.83-.06-16.24,3.92-.84,5.33,.7,4.94,4.68-.35,3.62-.16,7.28-.21,10.93Z" fill="#d9e0eb"/>
  <path d="M106.78,81.74c-.64-.16-1.28-.33-1.92-.5-.79-1.57-.93-3.14,0-4.71,.53-.5,1.11-.87,1.88-.82,3.97,2.65,3.97,3.54,.03,6.02Z" fill="#ea4764"/>
  <path d="M106.75,75.72c-.63,.27-1.26,.55-1.88,.82-.08-2.19-.16-4.37-.24-6.56,.65-.2,1.31-.41,1.96-.62,.05,2.12,.11,4.24,.16,6.35Z" fill="#455f75"/>
  <path d="M96.65,10.53c1.78-.07,2.92,.74,2.94,2.55,.02,1.5-.87,2.44-2.44,2.57-1.89,.16-2.8-.95-2.92-2.61-.11-1.54,.83-2.42,2.42-2.5Z" fill="#eb4260"/>
  <path d="M45.07,32.03c-.04,10.97-8.72,19.6-19.65,19.51-10.32-.09-19.47-9.29-19.43-19.56,.04-10.89,8.82-19.59,19.73-19.56,11.26,.03,19.39,8.27,19.35,19.62Z" fill="#ea3b5a"/>
  <path d="M104.77,66.48c-2.67,.77-4.89,.12-4.9-2.89-.01-3.09,2.27-3.59,4.9-2.85,1.19,1.91,1.19,3.82,0,5.74Z" fill="#d8dde8"/>
  <path d="M104.77,66.48c0-1.91,0-3.82,0-5.74,2.74,1.91,2.74,3.82,0,5.74Z" fill="#5d5971"/>
  <path d="M9.84,62.59c-.15,2.16-1.48,3.4-3.49,3.37-2.04-.04-3.39-1.38-3.29-3.55,.09-1.9,1.33-3.1,3.2-3.12,2.04-.02,3.4,1.08,3.58,3.31Z" fill="#f3f5f7"/>
  <path d="M35.77,32.68c-.59,4.38-3.12,6.07-7.44,5.63-2.27-.23-4.58-.12-6.86-.02-2.14,.09-3.05-.72-2.53-2.88-.29-2.71,.83-4.22,3.64-4.29,4.42,.34,8.95-.25,13.19,1.56Z" fill="#fdf5f6"/>
  <path d="M21.55,31.64c-1.45,.86-1.9,2.41-2.61,3.77-2.09-2.79-1.98-6.45-.4-8.6,1.61-2.2,4.96-1.46,7.53,.43,.91,.67,2.52,.46,3.82,.53,1.86,.09,3.35,.44,2.89,2.85-3.59,2.04-7.49,.57-11.22,1.02Z" fill="#fdf7f8"/>
  <path d="M21.55,31.64c3.59-2.04,7.5-.46,11.22-1.02,1,.69,2,1.37,3,2.06-4.72-.64-9.61,1.07-14.23-1.04Z" fill="#f49dad"/>
</svg>