<?xml version="1.0" encoding="UTF-8"?>
<svg id="Layer_1" data-name="Layer 1" xmlns="http://www.w3.org/2000/svg" xmlns:xlink="http://www.w3.org/1999/xlink" viewBox="0 0 220 160.58">
  <defs>
    <clipPath id="clippath">
      <polygon points="153.27 8.8 177.74 0 187.06 24.27 162.59 33.07 153.27 8.8" fill="none"/>
    </clipPath>
  </defs>
  <path d="M59.9,32h117.27c4.37,0,7.9,3.54,7.9,7.9h0c0,4.37-3.54,7.9-7.9,7.9H59.9c-4.37,0-7.9-3.54-7.9-7.9h0c0-4.37,3.54-7.9,7.9-7.9Z" fill="#bd52ff"/>
  <rect x="63.85" y="20" width="107.69" height="12.04" rx="6.02" ry="6.02" fill="#bd52ff"/>
  <path d="M47.13,47.85H185.94c4.37,0,7.9,3.54,7.9,7.9h0c0,4.37-3.54,7.9-7.9,7.9H47.13c-4.37,0-7.9-3.54-7.9-7.9h0c0-4.37,3.54-7.9,7.9-7.9Z" fill="#bd52ff"/>
  <path d="M7.9,63.66H146.71c4.37,0,7.9,3.54,7.9,7.9h0c0,4.37-3.54,7.9-7.9,7.9H7.9c-4.37,0-7.9-3.54-7.9-7.9H0c0-4.37,3.54-7.9,7.9-7.9Z" fill="#bd52ff"/>
  <path d="M24.45,79.47H164.78c4.16,0,7.53,3.37,7.53,7.53h0c0,4.16-3.37,7.53-7.53,7.53H24.45c-4.16,0-7.53-3.37-7.53-7.53h0c0-4.16,3.37-7.53,7.53-7.53Z" fill="#bd52ff"/>
  <path d="M8.53,95H148.86c4.16,0,7.53,3.37,7.53,7.53h0c0,4.16-3.37,7.53-7.53,7.53H8.53c-4.16,0-7.53-3.37-7.53-7.53h0c0-4.16,3.37-7.53,7.53-7.53Z" fill="#bd52ff"/>
  <rect x="65.38" y="94.52" width="154.62" height="15.81" rx="7.9" ry="7.9" fill="#bd52ff"/>
  <rect x="56.15" y="110.33" width="156.15" height="15.81" rx="7.9" ry="7.9" fill="#bd52ff"/>
  <path d="M24.83,126.14H164.4c4.37,0,7.9,3.54,7.9,7.9h0c0,4.37-3.54,7.9-7.9,7.9H24.83c-4.37,0-7.9-3.54-7.9-7.9h0c0-4.37,3.54-7.9,7.9-7.9Z" fill="#bd52ff"/>
  <path d="M7.53,141.94H147.09c4.16,0,7.53,3.37,7.53,7.53h0c0,4.16-3.37,7.53-7.53,7.53H7.53c-4.16,0-7.53-3.37-7.53-7.53H0c0-4.16,3.37-7.53,7.53-7.53Z" fill="#bd52ff"/>
  <g clip-path="url(#clippath)">
    <g>
      <path d="M165.12,5.44c-4.33,1.86-5.7,5.2-4.16,9.78l4.47-1.61c-.56-1.57-.09-3.07,1.44-3.84,1.55-.73,3.22-.9,4.09,0,.95,1,.36,2.76,.05,3.52-.59,1.42-1.89,2.79-2.29,4.23-.37,1.43,.05,2.96,.67,4.81l3.94-1.42c-.41-1.19-.76-2.32-.5-3.23,.43-1.49,1.52-2.49,2.23-3.82,.7-1.24,1.4-2.7,.91-4.43-1.23-5.13-6.18-6.02-10.85-4Z" fill="#db00ff"/>
      <path d="M173.96,28.12c1.37-.49,2.07-1.98,1.55-3.32s-2.04-2.03-3.42-1.53c-1.37,.49-2.07,1.98-1.55,3.32s2.04,2.03,3.42,1.53Z" fill="#db00ff"/>
    </g>
  </g>
  <path d="M145.15,28.01c-4.51,1.36-6.25,4.53-5.23,9.25l4.62-1.1c-.38-1.62,.25-3.07,1.86-3.66,1.62-.55,3.3-.53,4.06,.46,.83,1.1,.05,2.78-.35,3.51-.74,1.34-2.19,2.56-2.75,3.95-.52,1.38-.28,2.95,.13,4.85l4.07-.96c-.28-1.23-.5-2.39-.14-3.27,.59-1.43,1.79-2.3,2.64-3.55,.83-1.16,1.69-2.53,1.4-4.3-.65-5.23-5.47-6.68-10.33-5.19Z" fill="#db00ff"/>
  <path d="M151.39,51.54c1.42-.34,2.28-1.74,1.92-3.13-.36-1.39-1.8-2.24-3.22-1.91s-2.28,1.74-1.91,3.13c.36,1.39,1.8,2.24,3.22,1.91Z" fill="#db00ff"/>
  <path d="M189.2,28.05c-4.51,1.36-6.25,4.53-5.23,9.25l4.62-1.1c-.38-1.62,.25-3.07,1.86-3.66,1.62-.55,3.3-.53,4.06,.46,.83,1.1,.05,2.78-.35,3.51-.74,1.34-2.19,2.56-2.75,3.95-.52,1.38-.28,2.95,.13,4.85l4.07-.96c-.28-1.23-.49-2.39-.14-3.27,.59-1.43,1.79-2.3,2.65-3.55,.83-1.16,1.69-2.53,1.4-4.3-.65-5.23-5.47-6.68-10.33-5.19Z" fill="#db00ff"/>
  <path d="M195.44,51.57c1.42-.34,2.28-1.74,1.92-3.13-.36-1.39-1.8-2.24-3.22-1.91-1.42,.34-2.28,1.74-1.92,3.13,.36,1.39,1.81,2.24,3.22,1.91Z" fill="#db00ff"/>
  <path d="M84.92,158.56c-1.09,1.9-3.5,2.57-5.41,1.5-1.93-1.08-2.61-3.53-1.51-5.46l29.23-51.16c1.9-3.33,6.68-3.37,8.64-.07l30.09,50.68c1.12,1.89,.49,4.34-1.41,5.46-1.88,1.1-4.31,.48-5.42-1.4l-23.13-38.93c-1.96-3.29-6.74-3.25-8.64,.08l-22.44,39.31Z"/>
  <path d="M56.5,130h111c1.93,0,3.5,1.57,3.5,3.5h0c0,1.93-1.57,3.5-3.5,3.5H56.5c-1.93,0-3.5-1.57-3.5-3.5h0c0-1.93,1.57-3.5,3.5-3.5Z" fill="#8f00ff"/>
  <path d="M56.5,130.5h111c1.66,0,3,1.34,3,3h0c0,1.66-1.34,3-3,3H56.5c-1.66,0-3-1.34-3-3h0c0-1.66,1.34-3,3-3Z" fill="none" stroke="#000"/>
  <rect x="59" y="60" width="106" height="71" fill="#dda5ff"/>
  <rect x="59.5" y="60.5" width="105" height="70" fill="none" stroke="#000"/>
  <path d="M84.74,114.82c-.33,.64-1.14,.86-1.75,.48-.56-.34-.76-1.06-.45-1.64l5.96-11.38c1.86-3.54,6.91-3.58,8.82-.07l6.13,11.26c.31,.57,.13,1.29-.42,1.64-.61,.39-1.41,.18-1.76-.45l-3.91-7.18c-1.91-3.51-6.97-3.47-8.82,.07l-3.8,7.26Z"/>
  <path d="M129.67,116.51c-.13,.71-.84,1.15-1.53,.97-.63-.17-1.03-.79-.91-1.44l2.4-12.62c.75-3.93,5.57-5.43,8.42-2.63l9.13,9c.46,.46,.49,1.19,.07,1.69-.47,.55-1.3,.58-1.81,.08l-5.82-5.73c-2.85-2.81-7.67-1.3-8.42,2.63l-1.53,8.05Z"/>
  <g>
    <rect x="81" y="81" width="25" height="28" rx="2" ry="2" fill="#f7f7f7"/>
    <rect x="81.5" y="81.5" width="24" height="27" rx="1.5" ry="1.5" fill="none" stroke="#000"/>
  </g>
  <path d="M81.5,83c0-.83,.67-1.5,1.5-1.5h21c.83,0,1.5,.67,1.5,1.5v1.5h-24v-1.5Z" fill="#8f00ff" stroke="#000"/>
  <path d="M87,93h13c.55,0,1,.45,1,1h0c0,.55-.45,1-1,1h-13c-.55,0-1-.45-1-1h0c0-.55,.45-1,1-1Z"/>
  <path d="M87,96h13c.55,0,1,.45,1,1h0c0,.55-.45,1-1,1h-13c-.55,0-1-.45-1-1h0c0-.55,.45-1,1-1Z"/>
  <path d="M87,96h13c.55,0,1,.45,1,1h0c0,.55-.45,1-1,1h-13c-.55,0-1-.45-1-1h0c0-.55,.45-1,1-1Z"/>
  <circle cx="93.5" cy="81.5" r="1.5" fill="#fff" stroke="#000"/>
  <g>
    <rect x="119.53" y="80.02" width="25" height="28" rx="2" ry="2" transform="translate(-21.61 42.37) rotate(-16.87)" fill="#f7f7f7"/>
    <rect x="120.03" y="80.52" width="24" height="27" rx="1.5" ry="1.5" transform="translate(-21.61 42.37) rotate(-16.87)" fill="none" stroke="#000" stroke-miterlimit="4" stroke-width="1"/>
  </g>
  <path d="M117.06,86.02c-.24-.79,.21-1.63,1-1.87l20.1-6.1c.79-.24,1.63,.21,1.87,1l.43,1.44-22.97,6.97-.44-1.44Z" fill="#8f00ff" stroke="#000"/>
  <circle cx="128.11" cy="81.11" r="1.5" fill="#fff" stroke="#000" stroke-miterlimit="4" stroke-width="1"/>
  <path d="M136.09,92.37l.58,1.93-8.86,2.69-.58-1.93,8.86-2.69Zm-4.49-2.59l2.85,9.41-2.07,.63-2.85-9.41,2.07-.63Z"/>
  <path d="M112.1,29.96h0c.44,.7,.22,1.63-.48,2.07l-41.58,25.92c-.7,.44-1.63,.22-2.07-.48h0c-.44-.7-.22-1.63,.48-2.07l41.58-25.92c.7-.44,1.63-.22,2.07,.48Z" stroke="#000" stroke-miterlimit="4" stroke-width="1"/>
  <path d="M115.48,29.96h0c.44-.7,1.36-.92,2.07-.48l41.58,25.92c.7,.44,.92,1.36,.48,2.07h0c-.44,.7-1.36,.92-2.07,.48l-41.58-25.92c-.7-.44-.92-1.36-.48-2.07Z" stroke="#000" stroke-miterlimit="4" stroke-width="1"/>
  <path d="M56.5,54h111c1.93,0,3.5,1.57,3.5,3.5h0c0,1.93-1.57,3.5-3.5,3.5H56.5c-1.93,0-3.5-1.57-3.5-3.5h0c0-1.93,1.57-3.5,3.5-3.5Z" fill="#8f00ff"/>
  <path d="M56.5,54.5h111c1.66,0,3,1.34,3,3h0c0,1.66-1.34,3-3,3H56.5c-1.66,0-3-1.34-3-3h0c0-1.66,1.34-3,3-3Z" fill="none" stroke="#000"/>
  <circle cx="113.5" cy="33.5" r="6" fill="#e5c8f2" stroke="#000"/>
</svg>