<?xml version="1.0" encoding="UTF-8"?>
<svg id="Layer_1" data-name="Layer 1" xmlns="http://www.w3.org/2000/svg" xmlns:xlink="http://www.w3.org/1999/xlink" viewBox="0 0 220 157">
  <defs>
    <clipPath id="clippath">
      <polygon points="153.27 8.8 177.74 0 187.06 24.27 162.59 33.07 153.27 8.8" fill="none"/>
    </clipPath>
    <linearGradient id="linear-gradient" x1="113.67" y1="277.81" x2="113.67" y2="194.65" gradientTransform="translate(0 332.41) scale(1 -1)" gradientUnits="userSpaceOnUse">
      <stop offset="0" stop-color="#830c97"/>
      <stop offset=".59" stop-color="#750fdc"/>
    </linearGradient>
    <linearGradient id="linear-gradient-2" x1="118.64" y1="262.88" x2="118.64" y2="194.51" gradientTransform="translate(0 332.41) scale(1 -1)" gradientUnits="userSpaceOnUse">
      <stop offset="0" stop-color="#ffec56"/>
      <stop offset="0" stop-color="#fddc48"/>
      <stop offset="0" stop-color="#fcc733"/>
      <stop offset="0" stop-color="#7511ff"/>
      <stop offset="1" stop-color="#6a1bce"/>
    </linearGradient>
  </defs>
  <path d="M59.44,32.04h117.27c4.37,0,7.9,3.54,7.9,7.9h0c0,4.37-3.54,7.9-7.9,7.9H59.44c-4.37,0-7.9-3.54-7.9-7.9h0c0-4.37,3.54-7.9,7.9-7.9Z" fill="#bd52ff"/>
  <rect x="63.85" y="20" width="107.69" height="12.04" rx="6.02" ry="6.02" fill="#bd52ff"/>
  <rect x="63.35" y="19.5" width="108.69" height="13.04" rx="6.52" ry="6.52" fill="none" stroke="#cacaca"/>
  <path d="M47.13,47.85H185.94c4.37,0,7.9,3.54,7.9,7.9h0c0,4.37-3.54,7.9-7.9,7.9H47.13c-4.37,0-7.9-3.54-7.9-7.9h0c0-4.37,3.54-7.9,7.9-7.9Z" fill="#bd52ff"/>
  <path d="M7.9,63.66H146.71c4.37,0,7.9,3.54,7.9,7.9h0c0,4.37-3.54,7.9-7.9,7.9H7.9c-4.37,0-7.9-3.54-7.9-7.9H0c0-4.37,3.54-7.9,7.9-7.9Z" fill="#bd52ff"/>
  <path d="M24.45,79.47H164.78c4.16,0,7.53,3.37,7.53,7.53h0c0,4.16-3.37,7.53-7.53,7.53H24.45c-4.16,0-7.53-3.37-7.53-7.53h0c0-4.16,3.37-7.53,7.53-7.53Z" fill="#bd52ff"/>
  <path d="M8.53,95H148.86c4.16,0,7.53,3.37,7.53,7.53h0c0,4.16-3.37,7.53-7.53,7.53H8.53c-4.16,0-7.53-3.37-7.53-7.53h0c0-4.16,3.37-7.53,7.53-7.53Z" fill="#bd52ff"/>
  <rect x="65.39" y="94.52" width="154.62" height="15.81" rx="7.9" ry="7.9" fill="#bd52ff"/>
  <rect x="56.15" y="110.33" width="156.15" height="15.81" rx="7.9" ry="7.9" fill="#bd52ff"/>
  <path d="M24.83,126.14H164.4c4.37,0,7.9,3.54,7.9,7.9h0c0,4.37-3.54,7.9-7.9,7.9H24.83c-4.37,0-7.9-3.54-7.9-7.9h0c0-4.37,3.54-7.9,7.9-7.9Z" fill="#bd52ff"/>
  <path d="M7.53,141.95H147.09c4.16,0,7.53,3.37,7.53,7.53h0c0,4.16-3.37,7.53-7.53,7.53H7.53c-4.16,0-7.53-3.37-7.53-7.53H0c0-4.16,3.37-7.53,7.53-7.53Z" fill="#bd52ff"/>
  <g clip-path="url(#clippath)">
    <g>
      <path d="M165.12,5.44c-4.33,1.86-5.7,5.2-4.16,9.78l4.47-1.61c-.56-1.57-.09-3.07,1.44-3.84,1.55-.73,3.22-.9,4.09,0,.95,1,.36,2.76,.05,3.52-.59,1.42-1.89,2.79-2.29,4.23-.37,1.43,.05,2.96,.67,4.81l3.94-1.42c-.41-1.19-.76-2.32-.5-3.23,.43-1.49,1.52-2.49,2.23-3.82,.7-1.24,1.4-2.7,.91-4.43-1.23-5.13-6.18-6.02-10.85-4Z" fill="#db00ff"/>
      <path d="M173.96,28.12c1.37-.49,2.07-1.98,1.55-3.32-.51-1.34-2.04-2.03-3.42-1.53-1.37,.49-2.07,1.98-1.55,3.32,.51,1.34,2.04,2.03,3.42,1.53Z" fill="#db00ff"/>
    </g>
  </g>
  <path d="M138.9,64.82h-25.05c-1.86,0-3.63-1.3-4.01-2.85l-1.3-5.46c-.37-1.63,.74-2.85,2.61-2.85h25.05c1.86,0,3.63,1.3,4,2.85l1.3,5.46c.47,1.55-.74,2.85-2.61,2.85Z" fill="#8854d0"/>
  <path d="M141.02,62.09h0s0,.03,0,.03c.18,.61,.04,1.14-.32,1.52-.37,.4-.99,.68-1.81,.68h-25.05c-1.67,0-3.21-1.18-3.52-2.47h0s-1.3-5.46-1.3-5.46c-.15-.67,0-1.21,.35-1.59,.35-.38,.95-.65,1.77-.65h25.05c1.67,0,3.21,1.18,3.52,2.47h0s1.3,5.46,1.3,5.46Z" fill="none" stroke="#000"/>
  <path d="M116.45,64.82h-25.05c-1.86,0-3.63-1.3-4-2.85l-1.3-5.46c-.37-1.63,.75-2.85,2.61-2.85h25.05c1.86,0,3.63,1.3,4,2.85l1.3,5.46c.37,1.55-.75,2.85-2.61,2.85Z" fill="#8854d0"/>
  <path d="M118.57,62.09h0c.15,.62,0,1.17-.35,1.56-.36,.4-.96,.68-1.77,.68h-25.05c-1.67,0-3.21-1.18-3.52-2.47,0,0,0,0,0,0l-1.3-5.46c-.15-.67,0-1.21,.35-1.59,.35-.38,.95-.65,1.77-.65h25.05c1.67,0,3.21,1.18,3.52,2.47,0,0,0,0,0,0l1.3,5.46Z" fill="none" stroke="#000"/>
  <g>
    <path d="M61.03,54.5c-1.39,.16-2.51,1.29-2.51,2.42-.09,31.92-.09,44.17-.09,78.58,0,1.29,1.3,2.5,2.88,2.5l106.5-1.21s1.12-65.2,1.12-68.83c0-2.82-2.69-5.16-5.95-5.16H96.53c-1.3,0-2.51-.73-2.97-1.85-.56-1.37-1.39-3.3-2.04-5.08-.56-1.29-2.79-1.29-3.44-1.29-9.48-.08-17.66-.08-27.04-.08Z" fill="url(#linear-gradient)"/>
    <path d="M61.03,54.5c-1.39,.16-2.51,1.29-2.51,2.42-.09,31.92-.09,44.17-.09,78.58,0,1.29,1.3,2.5,2.88,2.5l106.5-1.21s1.12-65.2,1.12-68.83c0-2.82-2.69-5.16-5.95-5.16H96.53c-1.3,0-2.51-.73-2.97-1.85-.56-1.37-1.39-3.3-2.04-5.08-.56-1.29-2.79-1.29-3.44-1.29-9.48-.08-17.66-.08-27.04-.08Z" fill="rgba(250, 0, 255, .2)"/>
  </g>
  <path d="M61.03,54.5v.5h.03s.02,0,.03,0l-.06-.5Zm.28,83h0v.5s0-.5,0-.5Zm106-.72h.5s0-.49,0-.49h-.49s0,.3,0,.3v.14s0,.04,0,.04h0ZM91.04,56.05s0,0,0,.01c0,0,0,0,0,.01l.46-.2-.47,.17Z" fill="none" stroke="#000"/>
  <g>
    <path d="M166.18,138H71.1c-2.05,0-3.73-1.47-3.73-3.26v-61.69c0-1.79,1.68-3.26,3.73-3.26h95.09c2.05,0,3.73,1.47,3.73,3.26v61.69c0,1.79-1.58,3.26-3.73,3.26Z" fill="url(#linear-gradient-2)"/>
    <path d="M166.18,138H71.1c-2.05,0-3.73-1.47-3.73-3.26v-61.69c0-1.79,1.68-3.26,3.73-3.26h95.09c2.05,0,3.73,1.47,3.73,3.26v61.69c0,1.79-1.58,3.26-3.73,3.26Z" fill="rgba(253, 0, 0, .2)"/>
    <path d="M166.18,137.5H71.1c-1.84,0-3.23-1.3-3.23-2.76v-61.69c0-1.46,1.39-2.76,3.23-2.76h95.09c1.84,0,3.23,1.3,3.23,2.76v61.69c0,1.46-1.3,2.76-3.23,2.76Z" fill="none" stroke="#000"/>
  </g>
  <path d="M136.19,56.02c.47,0,1.12,.49,1.3,.98l1.3,5.38c.28,1.14,1.4,1.96,2.7,1.96h22.44c1.77,0,3.17,1.22,3.17,2.77,0,.57,0,2.53-.09,5.79,0,.16,0,.33,.09,.49v60.79c0,.41-.19,.73-.47,.98-.19,.16-.56,.41-1.12,.41H69.42c-.19,0-.37-.08-.56-.08l-6.8,.08-.09-.08c0-34.55,0-46.94,.09-79.37l.09-.08h74.04Zm0-2.44H61.88c-1.4,.16-2.51,1.3-2.51,2.44-.09,32.27-.09,44.66-.09,79.45,0,1.3,1.4,2.53,2.79,2.53l6.89-.08c.28,.08,.56,.08,.93,.08h95.74c1.3,0,2.42-.49,3.26-1.22,.75-.65,1.12-1.55,1.12-2.61v-60.54c0-.24,0-.49-.09-.65,.09-3.18,.09-5.3,.09-5.87,0-2.85-2.7-5.22-5.96-5.22h-22.54l-1.3-5.38c-.37-1.63-2.14-2.93-4.01-2.93Z" fill="#424242" isolation="isolate" opacity=".2"/>
  <g>
    <path d="M145.15,28.01c-4.51,1.36-6.25,4.53-5.23,9.25l4.62-1.1c-.38-1.62,.25-3.07,1.86-3.66,1.62-.55,3.3-.53,4.06,.46,.83,1.1,.05,2.78-.35,3.51-.74,1.34-2.19,2.56-2.75,3.95-.52,1.38-.28,2.95,.13,4.85l4.07-.96c-.28-1.23-.49-2.39-.13-3.27,.59-1.43,1.79-2.3,2.64-3.55,.83-1.16,1.69-2.53,1.4-4.3-.65-5.23-5.47-6.68-10.33-5.19Z" fill="#db00ff"/>
    <path d="M151.39,51.54c1.42-.34,2.28-1.74,1.92-3.13-.36-1.39-1.8-2.24-3.22-1.91-1.42,.34-2.28,1.74-1.91,3.13,.36,1.39,1.8,2.24,3.22,1.91Z" fill="#db00ff"/>
  </g>
  <g>
    <path d="M189.2,28.05c-4.51,1.36-6.25,4.53-5.23,9.25l4.62-1.1c-.38-1.62,.25-3.07,1.86-3.66,1.62-.55,3.3-.53,4.06,.46,.83,1.1,.05,2.78-.35,3.51-.74,1.34-2.19,2.56-2.75,3.95-.52,1.38-.28,2.95,.13,4.85l4.07-.96c-.28-1.23-.49-2.39-.13-3.27,.59-1.43,1.79-2.3,2.65-3.55,.83-1.16,1.69-2.53,1.4-4.3-.65-5.23-5.47-6.68-10.33-5.19Z" fill="#db00ff"/>
    <path d="M195.44,51.57c1.42-.34,2.28-1.74,1.92-3.13-.36-1.39-1.8-2.24-3.22-1.91-1.42,.34-2.28,1.74-1.92,3.13,.36,1.39,1.81,2.24,3.22,1.91Z" fill="#db00ff"/>
  </g>
  <path d="M122.94,81.83c.26-.26,.57-.47,.91-.62,.34-.14,.71-.22,1.08-.22s.74,.07,1.08,.22c.34,.14,.65,.35,.91,.62l3.63,3.66,3.63-3.66c.53-.53,1.24-.83,1.99-.83s1.46,.3,1.99,.83c.53,.53,.82,1.25,.82,2s-.3,1.47-.82,2l-3.64,3.66,3.64,3.66c.53,.53,.82,1.25,.82,2s-.3,1.47-.82,2.01c-.53,.53-1.24,.83-1.99,.83s-1.46-.3-1.99-.83l-3.63-3.66-3.63,3.66c-.26,.26-.57,.47-.91,.61-.34,.14-.71,.22-1.08,.22s-.74-.07-1.08-.22c-.34-.14-.65-.35-.91-.61-.26-.26-.47-.58-.61-.92-.14-.34-.21-.71-.21-1.09s.07-.74,.21-1.09c.14-.34,.35-.66,.61-.92l3.64-3.66-3.64-3.66c-.26-.26-.47-.58-.61-.92-.14-.34-.21-.71-.21-1.09s.07-.74,.21-1.09c.14-.34,.35-.66,.61-.92Zm-28.12,0c.26-.26,.57-.47,.91-.62,.34-.14,.71-.22,1.08-.22s.74,.07,1.08,.22c.34,.14,.65,.35,.91,.62l3.63,3.66,3.63-3.66c.26-.26,.57-.47,.91-.61,.34-.14,.71-.22,1.08-.22s.74,.07,1.08,.22c.34,.14,.65,.35,.91,.61,.26,.26,.47,.58,.61,.92,.14,.34,.21,.71,.21,1.09s-.07,.74-.21,1.08c-.14,.34-.35,.66-.61,.92l-3.64,3.66,3.64,3.66c.26,.26,.47,.58,.61,.92,.14,.34,.21,.71,.21,1.09s-.07,.74-.21,1.09c-.14,.34-.35,.66-.61,.92-.26,.26-.57,.47-.91,.61-.34,.14-.71,.22-1.08,.22s-.74-.07-1.08-.22c-.34-.14-.65-.35-.91-.61l-3.63-3.66-3.63,3.66c-.26,.26-.57,.47-.91,.61-.34,.14-.71,.22-1.08,.22s-.74-.07-1.08-.22c-.34-.14-.65-.35-.91-.61-.26-.26-.47-.58-.61-.92-.14-.34-.21-.71-.21-1.09s.07-.74,.21-1.09c.14-.34,.35-.66,.61-.92l3.64-3.66-3.64-3.66c-.26-.26-.47-.58-.61-.92-.14-.34-.21-.71-.21-1.09s.07-.74,.21-1.09c.14-.34,.35-.66,.61-.92Z" fill="#f4e5f4"/>
  <path d="M117.5,110.43c-11.17,0-20.66,5.9-24.5,14.14h49c-3.84-8.24-13.33-14.14-24.5-14.14Z" fill="#fff"/>
</svg>