<?xml version="1.0" encoding="UTF-8"?>
<svg id="Layer_1" data-name="Layer 1" xmlns="http://www.w3.org/2000/svg" viewBox="0 0 127.7 118.17">
  <path d="M59.46,93.65c-6.4,6.97-12.78,13.97-20.34,19.74-14.13,10.8-35.45,2.24-38.68-15.29-1.53-8.35,.95-15.47,6-21.67,3.54-4.34,7.55-8.4,12.09-11.81,1.58,1.59,1.39,3.65,1.42,5.62,.05,4.15-.06,8.31,.04,12.46,.16,6.63,2.9,9.34,9.47,9.39,7.97,.06,15.95-.01,23.92,.04,2.12,.01,4.37-.29,6.07,1.51Z" fill="#fbe0e5"/>
  <path d="M49.46,33.54c9-9.11,17.71-18.54,27.08-27.26,11.86-11.04,31.98-6.89,38.91,7.57,.48,1.01,1.35,2.06,.41,3.21-.63,.77-1.5,.46-2.3,.18-11.27-3.9-20.46-.47-28.25,7.99-.54,.58-1.35,.92-2.04,1.36-1.19-1.1-.96-2.74-1.55-4.07-1.25-2.81-3.43-4.03-6.36-3.11-2.72,.85-3.96,3.04-3.32,5.79,.69,2.97,2.84,4.29,5.91,3.92,1.45-.18,2.76-1.13,4.31-.73,.5,2.19-2,3.33-1.89,5.39-1.2,1-2.62,1.33-4.15,1.34-7.42,.04-14.85,.04-22.27,0-1.66-.01-3.32-.15-4.5-1.59Z" fill="#fbe0e5"/>
  <path d="M49.46,33.54c10.3,.08,20.61,.16,30.91,.25-.15,3.16-2.37,2.95-4.61,2.95-15.41,0-30.82,.06-46.22,.08-3.07,0-6.08,.04-7.22,3.73-.76,14.6-.1,29.22-.35,43.82-.04,2.03,.93,3.07,2.69,3.64,2.56,.82,5.19,1.04,7.87,1.04,22.6-.01,45.2,0,67.8-.01,.83,0,1.66,0,2.49-.06,7.43-.48,8.03-1.2,8.14-8.5,.07-4.29-.53-8.61,.4-12.88,1.89-1.76,2.9-1.33,2.91,1.23,.02,5.48,.22,10.97-.09,16.43-.31,5.56-3.78,8.13-10.4,8.18-14.77,.1-29.54,.15-44.32,.21-10.26-.07-20.51-.13-30.77-.2-6.97-.05-9.87-2.92-9.99-9.97-.1-6.28-.11-12.56-.16-18.85,.14-6.46,.23-12.92,.43-19.38,.28-9.25,2.48-11.38,11.59-11.47,6.3-.06,12.6-.17,18.89-.25Z" fill="#406278"/>
  <path d="M111.35,67.6c.06,5.31,.05,10.63,.19,15.94,.12,4.62-2.33,6.89-6.62,6.9-25.59,.09-51.17,.07-76.76,.02-3.72,0-6.67-1.6-6.69-5.77-.07-14.12,.04-28.24,.13-42.37,0-.6,.47-1.19,.72-1.78,.02,13.77,.19,27.55-.03,41.32-.07,4.03,1.24,5.02,5.1,5,26.06-.15,52.13-.15,78.19,0,3.89,.02,5.2-1.02,5.13-5.02-.08-4.73-1.01-9.57,.65-14.24Z" fill="#a5b2c2"/>
  <path d="M127.7,42.03c-.13,12.66-10.36,22.63-23.02,22.45-12.29-.18-22.37-10.52-22.24-22.82,.13-12.47,10.74-22.81,23.13-22.53,12.4,.28,22.26,10.48,22.14,22.9Z" fill="#406177"/>
  <path d="M49.72,62.12c-5.84,6.65-10.86,12.43-15.97,18.11-.82,.91-1.48,3.3-3.36,1.51-1.73-1.66,.44-2.62,1.24-3.56,4.3-5.08,8.62-10.15,13.16-15.01,1.97-2.1,1.76-3.38-.25-5.23-3.42-3.16-6.61-6.56-9.87-9.9-.75-.77-2.05-1.58-.71-2.84,1.35-1.27,2.1,.15,2.84,.88,7.58,7.48,15.11,15.01,22.69,22.5,5.31,5.24,8.7,5.27,14.03,.11,2.99-2.89,5.88-5.89,8.84-8.81,1.06-1.05,2.15-2.43,3.52-.28,4.41,6.91,10.54,12.37,15.61,18.73,.78,.98,3,1.99,.97,3.55-1.95,1.5-2.5-.91-3.32-1.81-4.48-4.92-8.93-9.88-13.15-15.02-1.75-2.13-2.82-1.98-4.5-.08-1.97,2.25-4.16,4.31-6.32,6.39-5.91,5.67-11.55,5.71-17.43-.12-2.82-2.79-5.28-5.95-8.04-9.1Z" fill="#406378"/>
  <path d="M82.26,28.4c-.69,.45-1.37,.93-2.09,1.33-3.03,1.71-5.83,1.19-8.09-1.3-1.95-2.16-2.29-4.74-.78-7.36,1.48-2.57,3.77-3.75,6.67-3.19,3.33,.64,5.1,2.89,5.4,6.25,.07,.82-.06,1.65-.1,2.48-.34,.6-.68,1.2-1.02,1.8Z" fill="#eb415f"/>
  <path d="M67.46,58.64c-1.66,1.82-3.3,3.65-4.99,5.45-.54,.58-1.2,1.37-2.08,.74-.99-.71-.69-1.66-.22-2.63,1.35-2.76,3.86-4.47,5.88-6.62,2.03-2.17,4.17-4.23,6.29-6.31,.79-.78,1.7-2.05,2.89-1.04,1.73,1.48-.36,2.15-.98,3.08-.54,.82-1.2,1.55-1.81,2.32-.96,2.37-2.61,4.04-4.99,5Z" fill="#fcedf0"/>
  <path d="M73.44,54.64c.68-1.55,1.74-1.94,3.07-.82,1.43,1.21,.13,2.04-.59,2.8-2.25,2.38-4.59,4.68-6.87,7.03-.73,.75-1.1,2.34-2.6,1.21-1.28-.97-.62-1.97,.2-2.91,.64-.74,1.2-1.54,1.8-2.31,1-2.33,2.65-4,4.99-5Z" fill="#fceef0"/>
  <path d="M73.44,54.64c-1.27,2.06-2.94,3.72-4.99,5-.33-.33-.66-.67-1-1,1.27-2.06,2.94-3.72,4.99-5,.33,.33,.66,.66,1,1Z" fill="#fefafb"/>
  <path d="M42.05,105.82c-3.4-.1-5.48-1.62-5.54-5.07-.06-3.41,1.82-5.2,5.18-5.28,3.19-.07,5.06,1.8,5.25,4.78,.21,3.26-1.61,5.24-4.88,5.58Z" fill="#44657a"/>
  <path d="M33.36,97.46c-.23,1.07-.79,1.87-1.97,1.76-1.11-.11-1.74-.88-1.74-2,0-1.29,.9-1.63,1.98-1.61,1.18,.02,1.82,.61,1.73,1.85Z" fill="#afb6c6"/>
  <path d="M66.24,25.83c1.1,.14,1.89,.72,1.95,1.84,.07,1.45-.88,2.05-2.2,2.01-1.23-.04-1.65-.9-1.58-2.02,.07-1.12,.61-1.83,1.83-1.84Z" fill="#ec4b67"/>
  <path d="M124.61,41.93c-.03,10.95-8.8,19.67-19.69,19.58-10.77-.08-19.6-9.13-19.47-19.95,.13-10.59,8.91-19.15,19.63-19.15,11.26,0,19.56,8.29,19.53,19.52Z" fill="#ea3b5a"/>
  <path d="M80.3,24.65c-.7,1.88-1.88,3.29-3.98,2.82-1.91-.43-3.19-1.89-2.67-3.98,.42-1.7,1.76-2.89,3.61-2.61,2.01,.3,3.04,1.71,3.03,3.78Z" fill="#fadae0"/>
  <path d="M41.81,102.76c-1.27-.11-2.26-.58-2.26-2.04,0-1.37,.79-2.13,2.13-2.2,1.38-.07,2.19,.72,2.25,2.04,.06,1.35-.75,2.1-2.11,2.21Z" fill="#ecd6dc"/>
  <path d="M102.73,51.44c-2.78-2.06-5.59-4.09-8.32-6.21-.57-.44-.43-1.2,.06-1.77,.73-.84,1.4-.3,2.19,0,2.46,.91,4.07,4.87,6.94,3.18,2.24-1.32,3.49-4.32,5.2-6.56,1.71-2.24,3.4-4.49,5.17-6.68,.53-.66,1.42-1.08,2.09-.28,.33,.4,.47,1.42,.2,1.79-3.8,5.22-7.67,10.39-11.59,15.52-.35,.46-1.13,.6-1.94,1.01Z" fill="#fdf7f8"/>
</svg>