<?xml version="1.0" encoding="UTF-8"?>
<svg id="Layer_1" data-name="Layer 1" xmlns="http://www.w3.org/2000/svg" viewBox="0 0 121.11 118.27">
  <path d="M63.81,92.82c-8.25,8.12-15.17,17.78-25.79,23.16-13.36,6.77-31.17-2.25-34.14-16.93-1.86-9.2,.97-16.97,6.94-23.75,2.73-3.1,5.96-5.76,8.96-8.62,2.33,2.53,1.29,5.66,1.42,8.54,.17,3.63,.2,7.29,0,10.92-.21,3.96,1.57,5.2,5.33,5.15,10.26-.12,20.52-.09,30.78,0,2.24,.02,4.71-.55,6.5,1.53Z" fill="#ece4f7"/>
  <path d="M59.67,26.5c6.56-6.6,12.77-13.61,19.77-19.7C86.86,.34,95.81-1.97,105.29,1.85c8.7,3.5,14.18,9.8,15.54,19.56,1.78,12.75-5.31,20.83-13.91,28.32-2.93-3.69-1.1-8-1.5-12.02-.35-3.5-.22-7.08-3.97-9.03-11.09-1.24-22.22-.16-33.31-.58-2.87-.11-6.04,1.01-8.47-1.59Z" fill="#ece4f7"/>
  <path d="M21.79,57.72c1.66,1.24,1.01,3.04,1.03,4.61,.07,6.8,.09,13.6,0,20.4-.03,2.51,.37,4.04,3.46,4.03,22.89-.09,45.77-.05,68.66-.05,3.5,0,5.07-1.62,4.89-5.25-.19-3.97,0-7.96,.03-11.94,1.57-1.08,2.87-.51,4.08,.64,1.18,1.65,.83,3.65,1.22,5.48,.1,.44,.15,.9,.17,1.35,0,1.13,0,2.26,0,3.39-.01,.49-.07,.96-.16,1.44-.53,2.29,.69,4.69-.46,6.94-1.44,2.55-3.84,2.89-6.43,2.9-24.09,0-48.19-.04-72.28,.05-3.88,.01-5.31-1.43-5.23-5.28,.17-8.14,.04-16.28,.06-24.42,0-1.49-.09-3.01,.95-4.28Z" fill="#d6dfeb"/>
  <path d="M25.51,54.62c-12.22-.07-22.47-10.39-22.51-22.66-.04-12.17,10.32-22.65,22.49-22.75,12.43-.1,22.94,10.26,23.04,22.72,.1,12.33-10.49,22.77-23.02,22.69Z" fill="#406278"/>
  <path d="M21.79,57.72c.04,9.62,.18,19.24,.06,28.86-.04,3.22,1.01,4.17,4.27,4.15,24.05-.14,48.11-.08,72.16-.07,3,0,5.74-.29,6.26-4.06-.38-1.96-.52-3.91,.09-5.85l.27,.06c1.05-.53,1.55,.06,1.91,.94-.2,9.89-1.26,10.89-11.31,10.92-10.56,.03-21.13,.1-31.69,.15-12.73-.05-25.47-.24-38.19-.07-4.34,.06-5.87-1.41-5.72-5.75,.23-6.77-.05-13.55-.12-20.32,.07-2.28,.17-4.57,.2-6.85,.02-1.26,.14-2.33,1.82-2.11Z" fill="#406378"/>
  <path d="M69.74,65.54c-1.25,.11-2.5,.22-3.74,.32-1.55,.04-3.07,.47-4.63,.35-1.57,.46-2.92,.08-4.08-1.05-.75-.78-1.24-1.7-1.47-2.76-.28-1.41,.02-2.68,.93-3.8,.65-3.08,3.62-4.47,5.07-6.97,2.94-1.57,3.89,1.82,5.97,2.38,.76,.55,1.23,1.28,1.46,2.18-.06,1.79,1.3,3,1.86,4.54,.12,1.76,.3,3.54-1.36,4.79Z" fill="#8456c9"/>
  <path d="M59.67,26.5c12.62,.06,25.24,.09,37.86,.2,1.77,.01,3.69-.56,5.24,.87-.48,.5-1.07,.77-1.77,.76-15.11-.26-30.23-.03-45.34-.13-.69,0-1.64,.48-1.73,.11,.35,.78,1.67-.12,2.58-.11,13.62,.08,27.24,.06,40.86,.05,3.46,0,6.76,.27,7.88,4.43,.19,2.18,0,4.3-1.21,6.21-1.41,1.01-2.82,1.09-4.23-.01q-.07-9.04-9.34-9.04c-11.79,0-23.58,.03-35.37-.04-1.48,0-4,.78-3.95-1.62,.05-2.36,2.55-1.34,4.05-1.52,1.48-.17,2.98-.11,4.48-.15Z" fill="#d7e0eb"/>
  <path d="M104.55,33.79c-.37-4.75-3.98-4.72-7.3-4.74-13.3-.08-26.6-.01-39.91-.05-1.75,0-3.61,.45-6.52-1.43,18.19,0,35.07,0,51.95,0,3.21,1.88,3.92,4.99,3.99,8.36,.1,4.6,.11,9.2,.16,13.8-.09,2.68-.19,5.35-.28,8.03-1.44,.75-2.19-.04-2.79-1.22-1.33-4.38,.56-9.06-1.27-13.38-1.58-1.75-3.6-1.94-5.81-2-4.71-.13-9.44,.59-14.12-.4-.22-.16-.64-.36-.62-.48,.13-.77,.76-.71,1.34-.69,6.81-1.03,13.71,.34,20.52-.74,.8-1.61-.02-3.43,.64-5.06Z" fill="#45677c"/>
  <path d="M104.62,56.61c.41,.85,1.14,1.13,2.02,1.14,4.1,5.25,4.1,6.6,0,11.86-.29,.51-.74,.79-1.3,.92-.55,.12-1.1,.09-1.64-.04-1.27-.33-2.54-.65-3.82-.98-4.37-4.96-4.37-6.78,0-11.64,.79-1.33,2.12-1.63,3.51-1.78,.46,.05,.87,.22,1.23,.52Z" fill="#8a58d0"/>
  <path d="M12.84,61.92c.03,4.32-3.01,7.47-6.6,7.18-3.78-.31-6.05-2.49-6.23-6.36-.17-3.62,2.99-6.76,6.59-6.47,3.79,.3,5.93,2.49,6.24,5.65Z" fill="#44667b"/>
  <path d="M103.76,56.62c-1.3,.42-2.59,.83-3.89,1.25-.02-5.43-.04-10.87-.06-16.3,1.48-.39,2.97-.84,4.3,.4,0,4.89,.62,9.79-.35,14.65Z" fill="#d7e0ec"/>
  <path d="M56.68,63.02c.4,.54,.8,1.07,1.21,1.61,.32,.42,.35,.86,.1,1.32-1.24,1.25-2.85,1.86-4.42,2.53-1.46,.39-2.91,.86-4.46,.51-1.67-1.22-1.09-2.73-.54-4.23,.84-1.82,2.57-2.48,4.22-3.23,1.81-.82,3.24-.66,3.91,1.5Z" fill="#e5af37"/>
  <path d="M106.82,81.75c-.64-.31-1.28-.62-1.91-.94-1.08-1.41-.82-2.82-.02-4.24,.48-.6,1.1-.88,1.87-.86,3.35,1.98,4.92,3.97,.06,6.03Z" fill="#8e60d0"/>
  <path d="M67.74,54.93c-2.6,.03-3.23-3.5-5.93-3.29,.39-2.01,1.34-3.67,3.54-3.8,2.23-.13,.45,2.13,1.43,2.85,.23,.25,.31,.5,.26,.77-.06,.27-.12,.4-.19,.4,.31,.31,.62,.62,.93,.92,.61,.73,.54,1.44-.04,2.15Z" fill="#687b8b"/>
  <path d="M59.69,72.48c.38,.64,.75,1.28,1.13,1.93-.34,2.51-1.6,3.41-4.02,2.28l-1.01-3.01c-.98-1.57-2.62-3.07-.59-4.99,.39-.26,.83-.37,1.3-.35,1.8,.82,2.18,2.73,3.18,4.16Z" fill="#e6eaed"/>
  <path d="M103.75,41.65c-1.31-.02-2.63-.05-3.94-.08-5.69-.8-11.49,.68-17.15-.81,5.99-.03,11.97-.08,17.96-.06,1.43,0,3.05-.47,4.13,1.04-.38,.48-.71,.42-.99-.09Z" fill="#517084"/>
  <path d="M104.74,38.69c-7.03,2.32-14.24,.61-21.36,.89,5.43-1.28,10.97,.02,16.43-.72,1.31-.02,2.62-.05,3.93-.07,.29-.53,.62-.56,1-.09Z" fill="#517084"/>
  <path d="M69.74,65.54c.3-1.55,.6-3.09,.9-4.64,.31-.5,.73-.63,1.27-.4,1.73,.09,3.09,.99,2.67,2.71-.59,2.4-2.98,2.03-4.84,2.33Z" fill="#687881"/>
  <path d="M67.74,54.93c.01-.72,.03-1.43,.04-2.15,2.88-.07,6.7-1.05,4.07,4.21-1.14,.62-2.2,.61-3.14-.4-.32-.55-.65-1.11-.97-1.66Z" fill="#758d99"/>
  <path d="M55.7,68.96c-1.38,1.6-.13,3.14,.09,4.71-1.61-1.77-4.09-1.83-5.98-3.04-.27-.27-.36-.54-.27-.81,.09-.27,.17-.4,.26-.41,1.22-.91,2.8-.56,4.11-1.15,.76-.2,1.4-.09,1.78,.7Z" fill="#5c757e"/>
  <path d="M106.76,75.72c-.62,.29-1.25,.57-1.87,.86,0,0-.22,.07-.22,.07-.66-2.26-.57-4.52-.06-6.79,.68-.08,1.35-.17,2.03-.25,.04,2.04,.08,4.08,.12,6.12Z" fill="#41607a"/>
  <path d="M68.71,56.59c1.05,.13,2.09,.26,3.14,.4-.17,1.18,1.24,2.32,.07,3.51-.42,.13-.85,.27-1.27,.4-.83-1.35-3.87-1.71-1.94-4.3Z" fill="#b89947"/>
  <path d="M57.51,65.68c.12-.35,.25-.7,.37-1.05,1.19,.78,2.45,1.33,3.91,1.29,.32,.16,.43,.32,.33,.48-.11,.16-.21,.24-.32,.24-.4,.66-.8,1.32-1.19,1.98-.94,.92-1.95,.92-3,.21-.63-1.03-.72-2.08-.08-3.15Z" fill="#3e6177"/>
  <path d="M57.75,68.59c.95,0,1.9,.02,2.85,.02-.3,1.29-.61,2.58-.91,3.86-1.97-.47-2.36-2.06-2.64-3.73,.16-.38,.4-.42,.7-.16Z" fill="#6e8898"/>
  <path d="M49.78,70.11c.02,.17,.04,.34,.04,.51-2.7-1.47-4.54-3.12-1.26-5.87,.26,1.45-.3,3.12,1.1,4.29,.74,.28,.78,.63,.12,1.07Z" fill="#60726e"/>
  <path d="M56.68,63.02c-.98-1.35-2.41-1.5-3.91-1.5,.95-1.48,2.28-2.44,3.97-2.91-.02,1.47-.04,2.94-.06,4.41Z" fill="#44637d"/>
  <path d="M56.8,76.69c1.9,.22,3.34-.36,4.02-2.28,1.47,1.26,.55,2.4-.45,3.08-1.27,.88-2.69,.85-3.56-.81Z" fill="#4c6c81"/>
  <path d="M61.79,66.64c0-.24,0-.48,0-.72,1.4,.02,2.79-1.24,4.21-.05-1.24,1.12-2.71,1.03-4.21,.77Z" fill="#3e6177"/>
  <path d="M66.85,51.86c-.02-.39-.05-.78-.07-1.17,.25,.1,.5,.19,.75,.29-.23,.29-.45,.59-.68,.88Z" fill="#496877"/>
  <path d="M99.63,12.99c-.04,1.52-.75,2.49-2.3,2.69-1.83,.24-2.83-.73-3.07-2.41-.23-1.59,.69-2.46,2.23-2.62,1.72-.17,2.85,.53,3.14,2.34Z" fill="#8c5ad1"/>
  <path d="M104.61,69.86c.02,2.26,.04,4.53,.06,6.79-1.7-1.84-.56-4.13-.97-6.17,.31-.21,.61-.42,.92-.63Z" fill="#dadfed"/>
  <path d="M104.63,80.76c-.03,1.95-.06,3.9-.09,5.85-1.18-1.97-1.31-3.92,.09-5.85Z" fill="#dee6ef"/>
  <path d="M44.94,32.58c1.19,8.96-8.18,18.95-19.42,19.06-10.25,.1-19.6-9.38-19.61-19.81-.01-10.82,9.03-19.36,20.36-19.23,11.22,.13,18.77,8.21,18.67,19.97Z" fill="#8854cf"/>
  <path d="M104.74,38.69c-.33,.03-.66,.06-1,.09,.23-1.67-.58-3.51,.8-5,.07,1.63,.13,3.27,.2,4.9Z" fill="#dee6ef"/>
  <path d="M103.75,41.65c.33,.03,.66,.06,.99,.09-.04,4.96-.08,9.92-.12,14.87,0,0-.43,.05-.43,.05,0,0-.43-.03-.43-.03,0-4.99,0-9.98-.01-14.97Z" fill="#dee6ef"/>
  <path d="M103.76,66.73c-2.65,.5-4.04-.79-3.91-3.29,.11-2.23,1.53-3.36,3.91-2.78,1.57,2.02,1.56,4.05,0,6.07Z" fill="#d0d5e9"/>
  <path d="M104.77,60.75c2.81,1.96,2.8,3.92,0,5.88-.8-1.96-.79-3.92,0-5.88Z" fill="#4b5e86"/>
  <path d="M104.77,60.75c0,1.96,0,3.92,0,5.88-.34,.03-.67,.06-1.01,.1,0-2.02,0-4.05,0-6.07,.34,.03,.67,.06,1.01,.09Z" fill="#dee6ef"/>
  <path d="M9.85,62.53c-.06,2.23-1.37,3.49-3.4,3.52-2.05,.02-3.43-1.29-3.39-3.46,.03-1.91,1.23-3.14,3.11-3.22,2.06-.09,3.42,.99,3.68,3.17Z" fill="#f1f3f5"/>
  <path d="M57.75,68.59c-.24,.02-.48,.07-.7,.16-.45,.07-.89,.14-1.34,.21-.63,.02-1.25,.03-1.88,.05-.41-.46-.42-.92-.02-1.38,.97-1.16,2.27-1.68,3.71-1.95,.08,.97,.16,1.95,.23,2.92Z" fill="#ddaa3a"/>
  <path d="M53.8,67.63c0,.46,.01,.92,.02,1.38-1.09,1.33-2.71,.68-4.04,1.1-.04-.36-.08-.71-.12-1.07,.91-1.85,2.67-1.23,4.15-1.41Z" fill="#c49f43"/>
  <path d="M27.81,35.73c-2.37-.57-4.53-.43-6.23,2.91-.42-4.42,2.34-6.9,2.52-10.15,.06-1.17,2.04-1.27,2.75,.49,.73,1.81,1.47,3.62,2.2,5.43,.42,1.22-.18,1.49-1.24,1.32Z" fill="#eee7f8"/>
  <path d="M32.82,25.03c1.5,2.75,1.23,4.54,.21,7.58-1.61-3.11-1.39-4.89-.21-7.58Z" fill="#faf8fc"/>
  <path d="M21.9,27.11c.99,.38,.9,1.24,.84,2.02-.05,.74-.62,1.32-1.26,.99-.4-.21-.56-1.1-.58-1.7-.02-.58,.03-1.36,1-1.3Z" fill="#d6c4ef"/>
  <path d="M19.29,26.06c-.17,1.66-.35,3.32-.52,4.97-1.26-1.73-1.44-3.43,.52-4.97Z" fill="#f8f6fc"/>
  <path d="M27.81,35.73c.41-.44,.83-.88,1.24-1.32,.8,1.15,1.77,2.26,1.12,3.89-1.88,.05-1.74-1.61-2.36-2.57Z" fill="#dfd2f2"/>
  <path d="M29.89,27.17c.24,.27,.63,.55,.76,.92,.22,.63,.11,1.34-.65,1.5-.25,.05-.81-.43-.92-.77-.2-.6-.11-1.25,.8-1.65Z" fill="#fbf9fd"/>
</svg>