<?xml version="1.0" encoding="UTF-8"?>
<svg id="Layer_1" data-name="Layer 1" xmlns="http://www.w3.org/2000/svg" viewBox="0 0 363.95 379.78">
  <path d="M0,124.93c25.94-4.03,51.87-8.11,77.82-12.03,3.93-.59,5.54-1.51,4.75-6.21-4.12-24.58-7.73-49.24-11.65-73.85-.53-3.33,.1-4.45,3.73-4.98,24.82-3.63,49.61-7.49,74.36-11.53,3.77-.62,4.78,.32,5.33,3.94,4.73,31.21,9.66,62.39,14.54,93.58,3.24,20.68,6.46,41.36,9.77,62.02,.67,4.19,.69,6.62-4.96,7.46-42.41,6.26-84.74,12.98-127.1,19.57-9.68,1.51-19.39,2.87-29.02,4.67-3.73,.69-4.97-.34-5.51-3.96-3.65-24.65-7.47-49.28-11.26-73.92-.09-.61-.53-1.17-.8-1.75,0-1,0-2,0-3Z" fill="#8754cf"/>
  <path d="M254.87,0c2,12.11,4.03,24.22,5.98,36.33,2.32,14.44,4.71,28.86,6.74,43.34,.48,3.43,1.98,3.54,4.6,3.12,21.83-3.44,43.66-6.85,65.51-10.22,4.26-.66,9.33-2.74,12.63-1.19,3.67,1.72,2.34,7.69,3.01,11.79,3.6,21.97,6.87,43.99,10.46,65.96,.61,3.76-.66,4.84-4.12,5.35-20.38,3.03-40.72,6.26-61.08,9.41-26.93,4.17-53.87,8.33-80.8,12.5-5.25,.81-10.52,1.55-15.74,2.5-3.1,.56-4.52-.45-5-3.62-5.32-34.82-10.74-69.62-16.11-104.43-2.74-17.73-5.26-35.5-8.34-53.18-.74-4.26,.72-5.12,4.17-5.64,24.48-3.68,48.94-7.43,73.4-11.2,.6-.09,1.14-.55,1.71-.84,1,0,2,0,3,0Z" fill="#8754cf"/>
  <path d="M111.94,296.94c-26.45,4.07-52.92,8.04-79.34,12.31-3.51,.57-4.18-.36-4.65-3.49-3.67-24.66-7.36-49.32-11.43-73.91-.73-4.43,0-6.27,4.5-6.14,17.99-2.75,34.77,.65,50.39,9.9,5.52,3.98,11.62,7.22,16.16,12.48,3.27,3.98,7.55,7.05,10.3,11.49,3.52,4.94,6.6,10.14,9.08,15.68,2.27,5.34,4.14,10.81,5.32,16.49,.36,1.74,1.15,3.54-.34,5.17Z" fill="#fea402"/>
  <path d="M225.87,350.72c-.05-39.23,27.28-73.1,65.6-81.67,3.48-.78,5.66-.87,6.33,3.76,3.6,25,7.46,49.96,11.38,74.91,.41,2.6,.55,3.74-2.66,4.22-25.14,3.79-50.25,7.78-75.35,11.79-3.81,.61-5.65-.41-5.34-4.54,.21-2.81,.04-5.66,.04-8.49Z" fill="#8754cf"/>
  <path d="M184.75,216.89c1.65,10.65,3.29,21.3,4.94,31.95-2.62,.63-4.21,2.56-5.7,4.59-15.81,21.44-31.69,42.83-47.56,64.22-4.36,5.88-8.61,11.85-13.12,17.63-1.21,1.55-2.35,3.28-4.51,3.72-2.28-10.59-3.79-21.3-4.97-32.05-.5-1.14,.31-1.88,.89-2.63,21.37-27.79,41.93-56.18,62.99-84.2,1.19-1.58,2.27-3.32,4.18-4.18,1.2-.54,2.27-.49,2.84,.95Z" fill="#f4c164"/>
  <path d="M184.75,216.89c-2.6-1.36-3.52,.73-4.68,2.28-10.38,13.89-20.6,27.9-31.18,41.64-11.78,15.3-22.38,31.5-35.05,46.13-1.42-3.18-1.04-6.71-1.91-10-.88-7.66-3.88-14.73-6.18-21.99,2.67-2.26,4.84-4.94,6.93-7.74,14.21-19,28.31-38.08,42.41-57.16,1.66-2.25,3.19-4.69,5.83-6.02,5.66-.96,11.33-1.89,16.99-2.91,3-.54,5.01-.42,5.14,3.61,.12,4.07,1.11,8.11,1.71,12.16Z" fill="#f0c981"/>
  <path d="M130.95,378.76c-6.03,1.85-6.34,1.65-7.02-4.5-.34-3.1-.71-6.19-1.07-9.29-1.34-3.27,.94-5.36,2.59-7.54,16.06-21.15,31.75-42.59,47.61-63.89,4.46-5.99,8.84-12.04,13.36-17.98,1.61-2.11,3-4.92,6.44-4.71,.89,6.99,3.24,13.76,3.21,20.89-13.4,17.17-25.93,34.99-39.05,52.38-7.92,10.49-15.79,21.03-23.44,31.71-.78,1.09-1.39,2.27-2.63,2.91Z" fill="#f8b53d"/>
  <path d="M160.92,204.03c-7.34,9.97-14.65,19.96-22.02,29.9-9.55,12.86-19.2,25.64-28.67,38.57-1.25,1.7-2.51,2.49-4.47,2.45-2.94-5.02-5.89-10.05-8.83-15.07,12.6-16.25,24.63-32.94,37.03-49.33,.82-1.08,1.81-1.93,2.97-2.61,8-1.3,16-2.6,23.99-3.91Z" fill="#eed099"/>
  <path d="M130.95,378.76c4.38-9.39,11.65-16.76,17.62-25.02,12.29-17.01,24.73-33.92,37.34-50.7,3.02-4.02,5.34-8.82,10.16-11.28,1.49,5.6,2.22,11.32,2.76,17.08-10.16,11.86-18.87,24.82-28.26,37.27-7.39,9.8-14.88,19.54-21.65,29.79-5.87,1.7-11.91,2.34-17.97,2.87Z" fill="#fab12d"/>
  <path d="M118.81,338.99c12.73-17.11,25.47-34.2,38.19-51.32,8.87-11.94,17.6-24,26.71-35.76,1.15-1.48,1.96-6.17,5.98-3.08,.66,4.34,1.33,8.68,1.99,13.02-8.98,7.89-15.22,18.06-22.09,27.59-6.71,9.31-13.79,18.33-20.48,27.65-7.47,10.4-14.74,20.97-22.98,30.8-1.47,1.75-2.55,4.01-5.31,4.1-1.19-4.25-1.8-8.6-2.01-13Z" fill="#f6ba4e"/>
  <path d="M120.82,352c6.92-7.34,12.97-15.41,18.71-23.65,7.75-11.12,16.11-21.77,24.14-32.68,7.14-9.72,14.23-19.47,21.45-29.13,1.64-2.2,3.16-4.83,6.56-4.67,.39,3,.79,6.01,1.18,9.01-6.49,4.46-9.97,11.5-14.53,17.51-18.12,23.87-35.78,48.09-53.68,72.12-1.06,1.42-1.8,2.74-1.79,4.48-1.39-4.21-1.94-8.56-2.04-12.98Z" fill="#f6ba4e"/>
  <path d="M148.92,375.89c1.38-6.82,6.56-11.37,10.3-16.7,7.32-10.43,15.21-20.46,22.83-30.68,4.16-5.58,8.29-11.18,12.33-16.85,1.15-1.62,2.49-2.62,4.44-2.82,.05,5.41,2.64,10.51,1.99,16.01-5.27,8.09-11.54,15.44-17.2,23.24-4.4,6.06-8.7,12.19-13.4,18.02-1.59,1.97-2.98,4.07-2.04,6.83-6.33,1.57-12.74,2.68-19.27,2.95Z" fill="#fbae22"/>
  <path d="M136.93,207.93c-8.45,11.59-16.85,23.22-25.36,34.77-3.52,4.78-7.34,9.33-10.9,14.08-1.04,1.38-2.17,2.46-3.75,3.1-3.3-3.68-6.6-7.35-9.9-11.03,8.31-11.21,17.24-21.93,25.56-33.13,1.3-1.75,2.62-3.43,4.39-4.73,6.63-1.16,13.2-2.75,19.96-3.05Z" fill="#ecd3a6"/>
  <path d="M116.96,210.99c-3.62,6.87-8.66,12.76-13.54,18.66-4,4.83-7.77,9.78-11.31,14.94-1.31,1.92-2.46,3.95-5.1,4.26-4.58-4.5-10.01-7.91-15.13-11.71-.54-.72-.78-1.58-.29-2.32,4.36-6.63,8.6-13.35,14.35-18.93,10.28-1.97,20.58-3.83,31.01-4.9Z" fill="#ead9b9"/>
  <path d="M168.19,372.94c-4.2-1.33-1.6-3.7-.5-5.23,5.87-8.13,11.93-16.13,17.96-24.15,4.83-6.42,8.95-13.42,15.17-18.72,2.37,6.78,2.82,13.91,3.87,20.93-1.87,.23-3.31,1-4.47,2.64-5.31,7.5-11.08,14.67-16.31,22.24-5.22,.95-10.38,2.27-15.73,2.29Z" fill="#fca913"/>
  <path d="M85.96,215.89c-3.35,6.47-8.43,11.73-12.37,17.79-.72,1.11-1.68,2.02-1.69,3.45-15.81-8.93-32.82-12.52-50.88-11.42,8.11-1.26,16.23-2.51,24.33-3.8,12.21-1.94,24.42-3.93,36.63-5.85,1.3-.21,2.65-.12,3.97-.18Z" fill="#e7e1d5"/>
  <path d="M183.92,370.66c-.13-2.13,.85-3.81,2.09-5.43,4.68-6.19,9.35-12.38,13.98-18.61,1.36-1.83,2.56-3.82,4.71-.83,.98,5.9,1.91,11.81,2.95,17.69,.4,2.24,.38,3.84-2.52,4.2-7.08,.89-14.14,1.97-21.21,2.98Z" fill="#fea505"/>
</svg>