<?xml version="1.0" encoding="UTF-8"?>
<svg id="Layer_1" data-name="Layer 1" xmlns="http://www.w3.org/2000/svg" viewBox="0 0 460.39 91.52">
  <path d="M0,29.91c5.14-.76,10.28-1.52,15.42-2.29,1.06-.16,2.12-.48,3.18-.5,1.43-.02,1.66-.62,1.45-1.9-.95-5.64-1.82-11.29-2.73-16.93-.17-1.04-.05-1.55,1.25-1.73,5.63-.77,11.25-1.6,16.83-2.61,1.64-.3,2.07,.16,2.28,1.63,.91,6.23,1.91,12.45,2.87,18.67,.91,5.95,1.74,11.9,2.76,17.83,.25,1.44-.08,1.84-1.43,2.04-7.27,1.07-14.54,2.22-21.8,3.33-5.02,.77-10.06,1.45-15.06,2.36-1.63,.3-1.94-.29-2.13-1.62-.82-5.66-1.71-11.3-2.59-16.95C.27,31.02,.1,30.83,0,30.62c0-.24,0-.48,0-.72Z" fill="#8754cf"/>
  <path d="M30.21,91.52c.22-1.1-.57-2.11-.31-3.22,.95-1.65,2.19-3.11,3.33-4.62,3.92-5.16,7.68-10.44,11.64-15.57,.53-.69,.92-1.77,2.18-1.31,.35,2.15,.7,4.3,1.04,6.45-3.88,5-7.58,10.14-11.43,15.16-.48,.62-.89,1.27-1.02,2.06-1.7,.34-3.4,.69-5.09,1.03h-.36Z" fill="#f8b335"/>
  <path d="M88.18,35.84c.23,1.05-.44,1.18-1.23,1.3-4.94,.78-9.88,1.63-14.82,2.38-7.62,1.15-15.25,2.22-22.86,3.4-1.02,.16-1.3,.03-1.46-1.04-1.93-12.59-3.91-25.18-5.92-37.76-.15-.92,.17-1.17,.93-1.29C48.89,1.91,54.97,.99,61.05,.02c1.15-.18,.98,.71,1.06,1.23,.79,4.82,1.57,9.64,2.24,14.47,.61,4.38,.54,4.33,4.86,3.6,4.83-.81,9.68-1.53,14.53-2.26,.65-.1,1.4-.4,1.58,.78,.91,6,1.89,12,2.85,17.99Z" fill="#8754cf"/>
  <path d="M250.69,66.53c0-5.13,.08-10.27-.03-15.4-.06-2.73,1.08-4.68,3.41-5.8,7.64-3.69,15.4-3.81,22.91,.21,4.63,2.48,6.62,6.92,7.1,11.98,.37,3.96,0,7.87-1.88,11.5-2.78,5.34-7.55,7.36-13.24,7.8-1.92,.15-3.86,.11-5.7-.46-1.07-.33-1.22,0-1.21,.94,.03,2.8-.03,5.61,.03,8.41,.02,1.04-.31,1.43-1.38,1.6-1.85,.29-3.69,.4-5.55,.28-2.95-.2-4.41-1.71-4.44-4.76-.05-5.43-.01-10.86-.01-16.29Z" fill="#2f3542"/>
  <path d="M110.81,76.06c0,3.11-.07,6.09,.03,9.06,.05,1.43-.21,2.15-1.85,2.27-1.49,.11-2.98,.26-4.47,.21-3.55-.12-4.96-1.51-4.99-5.1-.05-6.08-.02-12.17-.02-18.25,0-4.41,.08-8.83-.03-13.24-.06-2.65,1.06-4.57,3.32-5.66,7.76-3.74,15.68-3.99,23.19,.36,6.02,3.48,7.3,9.52,6.92,16-.14,2.45-.68,4.83-1.79,7.05-2.81,5.59-7.71,7.67-13.62,8.06-2.22,.15-4.41-.12-6.69-.77Z" fill="#2f3542"/>
  <path d="M195.65,43.42c0-3.29,.05-6.33-.03-9.37-.03-1.06,.31-1.49,1.35-1.62,2.2-.27,4.39-.61,6.61-.09,1.99,.46,2.99,1.5,3.26,3.52,.11,.83,.13,1.67,.13,2.5,0,9.79-.06,19.58,.04,29.37,.03,3.22-1.3,5.33-4.12,6.69-6.18,2.99-12.58,3.4-19.02,1.18-5.83-2.01-9.15-6.34-10.07-12.38-.46-3.02-.39-6.08,.43-9.06,1.81-6.6,7.11-10.79,14.3-11.34,2.34-.18,4.67-.12,7.12,.61Z" fill="#2f3542"/>
  <path d="M366.5,63.75c0,3.91-.05,7.31,.03,10.71,.03,1.09-.33,1.47-1.35,1.58-2.14,.24-4.26,.6-6.43,.13-2.02-.43-3.17-1.54-3.45-3.56-.11-.82-.15-1.66-.15-2.5,0-11.87,.01-23.75-.04-35.62,0-1.39,.31-2.04,1.81-2.14,1.49-.1,2.97-.37,4.47-.28,3.58,.22,5.08,1.75,5.1,5.31,.02,5.01,0,10.02,0,15.04,0,.65,0,1.31,0,1.97,.66,.15,.84-.41,1.13-.7,3.16-3.18,6.33-6.35,9.43-9.59,.76-.8,1.54-1.04,2.55-.83,.58,.12,1.18,.21,1.75,.38,4.49,1.39,5.64,5.41,2.48,8.87-2.06,2.26-4.51,4.1-6.84,6.06-.79,.67-.81,1.03-.06,1.75,2.97,2.86,5.85,5.82,8.82,8.68,.79,.76,.99,1.47,.72,2.52-1.3,4.98-6.62,6.6-10.71,3.21-1.63-1.35-2.85-3.06-4.16-4.68-1.61-1.98-3.2-3.97-5.1-6.34Z" fill="#2f3542"/>
  <path d="M334.1,76.9c-9.96-.05-15.69-3.54-18.25-9.83-2.7-6.61-1.34-15.07,3.34-19.56,5.27-5.05,11.67-5.77,18.4-4.03,6.3,1.63,10.24,5.87,11.46,12.23,1.16,6.05,.37,11.81-4.17,16.48-3.53,3.62-8.06,4.71-10.77,4.71Z" fill="#2f3542"/>
  <path d="M421.53,61.72c0,2.45-.07,4.89,.03,7.34,.09,2.15-.86,3.65-2.54,4.81-2.8,1.93-6.01,2.68-9.3,2.91-4.49,.31-8.98,.36-13.22-1.59-4.29-1.98-6.22-5.3-5.88-10.23,.29-4.15,2.76-6.93,7.32-8.17,3.49-.94,7.11-.93,10.65-1.45,.65-.1,1.63,.28,1.84-.65,.23-1-.28-1.88-1.16-2.44-1.36-.86-2.91-1.06-4.47-1.14-3.09-.16-6.1,.36-8.97,1.46-1.2,.46-1.76,.05-2.34-.84-1.87-2.91-.99-6.37,2.29-7.48,6.41-2.17,12.95-2.38,19.29,.27,4.28,1.79,6.35,5.27,6.45,9.87,.05,2.44,0,4.89,.01,7.34Z" fill="#2f3542"/>
  <path d="M167.99,61.74c0,2.33-.12,4.66,.03,6.98,.17,2.61-1.06,4.3-3.16,5.56-2.35,1.41-4.95,2.1-7.64,2.37-4.31,.44-8.61,.53-12.79-.89-5.25-1.78-7.75-5.44-7.36-10.68,.35-4.71,3.32-7.73,8.78-8.64,3.18-.53,6.41-.77,9.62-1.13,1.66-.18,2-.94,1.03-2.34-.7-1.01-1.8-1.35-2.92-1.58-3.81-.77-7.52-.19-11.11,1.11-1.32,.48-1.97,.11-2.6-.96-1.74-2.97-.87-6.22,2.41-7.32,6.48-2.16,13.06-2.41,19.45,.37,4.11,1.79,6.15,5.16,6.24,9.63,.05,2.5,0,5.01,0,7.52,0,0,.01,0,.02,0Z" fill="#2f3542"/>
  <path d="M439.84,64.25c0,3.46-.03,6.93,.02,10.39,.01,.89-.26,1.32-1.14,1.43-2.26,.29-4.52,.59-6.79,.08-1.82-.4-2.94-1.44-3.3-3.31-.23-1.19-.18-2.38-.18-3.57,0-5.79,.05-11.58-.03-17.37-.04-2.6,.97-4.53,3.17-5.8,7.02-4.04,14.43-4.6,21.92-1.74,4.41,1.68,6.73,5.31,6.81,10.05,.11,6.74,.02,13.49,.06,20.24,0,.89-.25,1.32-1.14,1.43-2.14,.25-4.27,.56-6.44,.14-2.31-.45-3.58-1.56-3.67-3.93-.17-4.41-.11-8.83-.14-13.25-.01-1.31,.03-2.63-.05-3.94-.13-2.01-1.02-3.01-3-3.45-1.83-.41-3.55,.02-5.26,.66-.88,.33-.87,1-.86,1.74,.02,3.4,0,6.81,0,10.21Z" fill="#2f3542"/>
  <path d="M230.3,76.91c-5.55-.05-11.32-1.82-15.05-7.67-5.04-7.91-2.9-19.58,4.62-23.97,6.31-3.69,12.91-3.65,19.23,.18,3.9,2.36,5.79,6.08,6.1,10.58,.22,3.15-1,4.91-4.14,5.48-5.18,.93-10.39,1.63-15.59,2.43-.45,.07-1.08-.14-1.28,.38-.22,.56,.28,1,.6,1.4,1.73,2.16,4.2,2.63,6.74,2.78,3.04,.18,5.97-.41,8.69-1.77,1.06-.53,1.63-.23,2.28,.53,2.23,2.59,1.61,6.09-1.43,7.72-3.05,1.63-6.39,1.87-10.77,1.94Z" fill="#2f3542"/>
  <path d="M289.73,61.35c0-3.22,.07-6.44-.02-9.66-.08-2.78,1.19-4.69,3.55-5.92,4.33-2.27,8.98-3.29,13.85-2.93,4.28,.32,6.26,3.27,5.05,7.17-.29,.94-.71,1.45-1.87,1.46-2.64,0-5.21,.62-7.77,1.24-1.12,.27-1.51,.76-1.5,1.94,.06,6.56,0,13.12,.05,19.67,0,1.17-.27,1.71-1.52,1.82-2.03,.18-4.04,.46-6.07,.07-2.28-.44-3.57-1.63-3.64-3.94-.12-3.63-.03-7.27-.03-10.91-.03,0-.05,0-.08,0Z" fill="#2f3542"/>
  <path d="M54.69,84.54c.01-9.37,6.63-17.68,15.71-19.77,1.08-.25,1.67-.12,1.85,1.12,.84,5.77,1.71,11.55,2.65,17.3,.18,1.12-.07,1.41-1.17,1.57-5.56,.79-11.11,1.67-16.66,2.53-2.31,.36-2.31,.37-2.38-2.04,0-.24,0-.48,0-.72Z" fill="#8754cf"/>
  <path d="M26.95,71.42c-6.07,.96-12.14,1.91-18.2,2.87-1.13,.18-1.78,.14-1.99-1.37-.77-5.71-1.71-11.4-2.68-17.08-.22-1.27,.24-1.61,1.32-1.63,5.73-1.03,10.6,.92,15.05,4.31,1.9,1.65,3.41,3.62,4.7,5.77,1.01,1.94,1.99,3.89,2.22,6.11,0,.39-.1,.75-.42,1.01Z" fill="#fea402"/>
  <path d="M47.06,66.81c-.76,.03-1.16,.59-1.54,1.1-4.65,6.21-9.27,12.45-13.92,18.66-.48,.64-.83,1.45-1.7,1.73-.39-1.87-.86-3.72-.81-5.65-.37-.97,.12-1.73,.65-2.46,4.63-6.41,9.49-12.65,14.17-19.03,.48-.66,.92-1.62,2.08-1.16,.36,2.27,.72,4.54,1.07,6.81Z" fill="#f6ba4d"/>
  <path d="M26.95,71.42l.08-1.06c.18-.56,.37-1.1,.75-1.59,4.82-6.17,9.34-12.56,14.1-18.77,.4-.52,.81-1.03,1.28-1.49,.89-.54,1.13,.02,1.24,.75,.29,1.91,.58,3.81,.87,5.72-.92,.37-1.54,1.05-2.13,1.83-4.41,5.78-8.64,11.68-13.06,17.45-.54,.7-1,1.52-2.05,1.55-.69-1.38-.18-3.06-1.07-4.39Z" fill="#f2c573"/>
  <path d="M43.15,48.51c-1.26,2.85-3.47,5.06-5.28,7.53-3.54,4.82-7,9.72-10.84,14.32-.5-2.1-1.34-4.08-2.26-6.03,2.69-3.77,5.44-7.49,8.27-11.15,.94-1.21,1.6-2.66,2.92-3.56,2.38-.48,4.75-.99,7.19-1.1Z" fill="#efcb89"/>
  <path d="M28.02,75.81c2.68-2.49,4.52-5.64,6.75-8.49,2.96-3.8,5.73-7.74,8.62-11.6,.43-.57,.89-1.42,1.87-.74,.24,1.68,.49,3.35,.73,5.03-2.01,.77-2.7,2.76-3.86,4.27-4.01,5.23-7.89,10.56-11.82,15.86-.56,.76-1.25,1.46-1.23,2.51-.63-2.24-.89-4.54-1.07-6.84Z" fill="#f4c062"/>
  <path d="M35.97,49.61c-2.62,4.26-5.93,8.03-8.78,12.13-.67,.97-1.31,2.01-2.42,2.59-1.25-1.9-2.73-3.62-4.31-5.26-.08-.1-.17-.23-.12-.31,1.8-2.69,3.48-5.48,5.92-7.69,3.22-.58,6.44-1.18,9.7-1.46Z" fill="#edd2a3"/>
  <path d="M35.66,90.49c-.73-.55-.25-1.02,.11-1.5,3.68-4.96,7.35-9.92,11.04-14.86,.31-.42,.69-.85,1.3-.86,.37,2.39,.73,4.78,1.1,7.16-2.24,2.26-3.95,4.94-5.83,7.48-.32,.44-.57,.91-.55,1.48-2.35,.6-4.75,.9-7.16,1.1Z" fill="#fbad22"/>
  <path d="M26.26,51.07c-1.93,2.67-3.87,5.33-5.8,8-4.42-3.47-9.43-5.1-15.06-4.85,3.19-.55,6.38-1.18,9.59-1.63,3.76-.53,7.48-1.31,11.28-1.52Z" fill="#e9dec9"/>
  <path d="M42.83,89.39c-.28-.07-.69-.14-.46-.53,1.81-3.01,3.82-5.89,6.31-8.39,.09-.09,.34-.03,.52-.04,.36,2.09,.64,4.19,1.09,6.26,.29,1.33-.17,1.81-1.45,1.94-2.01,.2-4.01,.5-6.01,.77Z" fill="#fea607"/>
  <path d="M261.93,59.65c0-2.03,.04-4.06-.02-6.09-.02-.87,.32-1.23,1.12-1.53,4.65-1.74,8.46,.4,9.32,5.24,.42,2.34,.35,4.65-.48,6.88-1.29,3.47-6.31,5.08-9.4,3.15-.61-.38-.53-.86-.54-1.38-.01-2.09,0-4.18,0-6.27Z" fill="#fefefe"/>
  <path d="M110.77,59.7c0-2.03,.05-4.06-.02-6.08-.03-.95,.34-1.33,1.21-1.64,4.92-1.71,8.81,.76,9.28,5.95,.18,1.97,.2,3.94-.42,5.85-1.21,3.7-6.19,5.52-9.5,3.55-.63-.37-.53-.85-.54-1.36-.01-2.09,0-4.17,0-6.26Z" fill="#fefefe"/>
  <path d="M195.69,59.58c0,1.96-.11,3.93,.04,5.89,.1,1.38-.56,1.94-1.69,2.3-4.01,1.29-7.88-.91-8.73-5.04-.4-1.94-.41-3.92,0-5.85,.89-4.17,5.49-6.57,9.48-5.03,.76,.29,.93,.75,.91,1.49-.04,2.08-.01,4.16-.01,6.25Z" fill="#fefefe"/>
  <path d="M337.82,59.81c0,1.92-.18,3.79-1.12,5.53-1.01,1.85-2.57,2.8-4.65,2.78-2.13-.02-3.89-.88-4.78-2.87-1.58-3.54-1.59-7.17-.07-10.72,.88-2.05,2.61-3.06,4.85-3.04,2.16,.01,3.74,1.04,4.75,2.95,.9,1.69,1.03,3.52,1.03,5.37Z" fill="#fefefe"/>
  <path d="M410.61,65.22c0,3.07-.15,3.24-3.3,3.4-1.31,.07-2.63,.16-3.91-.28-1.24-.43-1.84-1.33-1.87-2.56-.03-1.15,.66-1.85,1.71-2.26,2.17-.86,4.5-.57,6.74-.92,.6-.09,.63,.4,.64,.83,0,.6,0,1.19,0,1.79Z" fill="#fcfdfd"/>
  <path d="M157.1,65.23c0,3.06-.16,3.24-3.3,3.4-1.31,.07-2.63,.17-3.91-.28-1.23-.43-1.82-1.31-1.85-2.57-.02-1.18,.65-1.85,1.7-2.26,2.17-.86,4.5-.57,6.74-.91,.6-.09,.63,.4,.63,.84,0,.6,0,1.19,0,1.79Z" fill="#fdfdfd"/>
  <path d="M234.49,54.89c-3.4,.54-6.72,1.01-10.01,1.62-1.14,.21-1.37-.05-1.15-1.12,.5-2.46,2.66-4.28,5.39-4.44,3.13-.18,4.79,.9,5.77,3.94Z" fill="#fdfdfd"/>
</svg>