<svg xmlns="http://www.w3.org/2000/svg" width="126.262" height="151.639" viewBox="0 0 126.262 151.639">
  <g id="Group_23" data-name="Group 23" transform="translate(-124 -214.562)">
    <g id="Group_14" data-name="Group 14">
      <g id="Group_13" data-name="Group 13">
        <g id="Group_12" data-name="Group 12">
          <g id="Group_10" data-name="Group 10">
            <g id="Group_9" data-name="Group 9">
              <g id="Group_7" data-name="Group 7">
                <line id="Line_5" data-name="Line 5" y1="13.283" x2="10.314" transform="translate(168.762 303.063)" fill="none" stroke="#fff" stroke-linecap="round" stroke-width="3"/>
                <line id="Line_6" data-name="Line 6" x1="10.314" y1="13.283" transform="translate(168.762 303.063)" fill="none" stroke="#fff" stroke-linecap="round" stroke-width="3"/>
                <rect id="Rectangle_21" data-name="Rectangle 21" width="50.559" height="4.21" rx="2.105" transform="translate(163.526 330.324)" fill="#fff"/>
                <line id="Line_7" data-name="Line 7" x1="10.314" y1="13.283" transform="translate(203.762 303.063)" fill="none" stroke="#fff" stroke-linecap="round" stroke-width="3"/>
                <path id="Path_5" data-name="Path 5" d="M0,13.283,10.314,0" transform="translate(203.762 303.063)" fill="none" stroke="#fff" stroke-linecap="round" stroke-width="3"/>
                <rect id="Rectangle_22" data-name="Rectangle 22" width="30" height="4.21" rx="2.105" transform="translate(179.43 319.618)" fill="#fff"/>
                <rect id="Rectangle_23" data-name="Rectangle 23" width="20" height="4.21" rx="2.105" transform="translate(177.847 292.164) rotate(45)" fill="#fff"/>
                <rect id="Rectangle_24" data-name="Rectangle 24" width="20" height="4.21" rx="2.105" transform="translate(203.43 298.618)" fill="#fff"/>
                <g id="uranus" transform="translate(124 239.877)">
                  <g id="Group_1" data-name="Group 1" transform="translate(102.4 4.883)" opacity="0.3">
                    <path id="Path_6" data-name="Path 6" d="M413.7,27.73a7.592,7.592,0,0,1,6.665-7.521,7.622,7.622,0,1,0,0,15.042A7.592,7.592,0,0,1,413.7,27.73Z" transform="translate(-411.799 -20.113)" fill="#fff"/>
                  </g>
                  <path id="Path_8" data-name="Path 8" d="M455.587,429.985a1.9,1.9,0,1,1-1.9-1.9A1.907,1.907,0,0,1,455.587,429.985Z" transform="translate(-339.858 -321.712)" fill="#8854d0"/>
                  <path id="Path_9" data-name="Path 9" d="M128.522,143.719h-7.9a3.989,3.989,0,0,0,0-7.978h-7.9a3.989,3.989,0,0,0,0-7.978H100.868a3.989,3.989,0,0,0,0-7.978H122.6a3.989,3.989,0,0,0,0-7.977H112.72a3.989,3.989,0,0,0,0-7.978h-3.95a3.989,3.989,0,0,0,0-7.978h19.752a3.989,3.989,0,0,0,0-7.978h-7.9a3.989,3.989,0,0,0,0-7.978h-7.9a3.989,3.989,0,0,0,0-7.978h-5.926a3.989,3.989,0,0,0,0-7.978H47.534a3.989,3.989,0,0,0,0,7.978H33.707a3.989,3.989,0,0,0,0,7.978H29.756a3.989,3.989,0,0,0,0,7.978H41.608a3.989,3.989,0,0,0,0,7.978H19.88a3.989,3.989,0,0,0,0,7.978h9.876a3.989,3.989,0,0,0,0,7.978H19.88a3.989,3.989,0,0,0,0,7.977H15.929a3.989,3.989,0,0,0,0,7.978h9.876a3.989,3.989,0,0,0,0,7.978h-3.95a3.989,3.989,0,0,0,0,7.978H41.608a3.989,3.989,0,0,0,0,7.978h-7.9a3.989,3.989,0,0,0,0,7.978h67.161a3.989,3.989,0,0,0,0-7.978h27.653a3.989,3.989,0,0,0,0-7.978Z" transform="translate(-9.126 -48.621)" fill="#e7d6ff"/>
                  <g id="Group_5" data-name="Group 5" transform="translate(0 0.123)">
                    <path id="Path_14" data-name="Path 14" d="M496.924,281.892a.96.96,0,0,1-.963-.952.943.943,0,0,1,.941-.952h.022a.952.952,0,1,1,0,1.9Z" transform="translate(-373.519 -210.934)" fill="#3a3847"/>
                    <path id="Path_15" data-name="Path 15" d="M113.111,2.027a.959.959,0,0,1-.961-.952.943.943,0,0,1,.941-.952h.02a.952.952,0,1,1,0,1.9Z" transform="translate(-84.478 -0.123)" fill="#3a3847"/>
                    <path id="Path_16" data-name="Path 16" d="M209.065,42.008a.959.959,0,0,1-.961-.952.943.943,0,0,1,.941-.952h.02a.952.952,0,0,1,0,1.9Z" transform="translate(-156.757 -30.583)" fill="#3a3847"/>
                    <path id="Path_17" data-name="Path 17" d="M89.122,105.977a.959.959,0,0,1-.961-.952.943.943,0,0,1,.941-.952h.02a.952.952,0,0,1,0,1.9Z" transform="translate(-67.166 -78.424)" fill="#3a3847"/>
                    <path id="Path_18" data-name="Path 18" d="M504.92,137.962a.96.96,0,0,1-.963-.952.943.943,0,0,1,.941-.952h.022a.952.952,0,0,1,0,1.9Z" transform="translate(-379.611 -102.518)" fill="#3a3847"/>
                    <path id="Path_19" data-name="Path 19" d="M424.959,161.95A.96.96,0,0,1,424,161a.943.943,0,0,1,.941-.952h.022a.952.952,0,1,1,0,1.9Z" transform="translate(-318.692 -120.587)" fill="#3a3847"/>
                    <path id="Path_20" data-name="Path 20" d="M424.959,361.854A.96.96,0,0,1,424,360.9a.943.943,0,0,1,.941-.952h.022a.952.952,0,1,1,0,1.9Z" transform="translate(-318.692 -271.167)" fill="#3a3847"/>
                    <path id="Path_21" data-name="Path 21" d="M105.114,409.831a.959.959,0,0,1-.961-.952.943.943,0,0,1,.941-.952h.02a.952.952,0,0,1,0,1.9Z" transform="translate(-78.454 -307.306)" fill="#3a3847"/>
                    <path id="Path_22" data-name="Path 22" d="M1.164,353.858a.959.959,0,0,1-.961-.952.943.943,0,0,1,.941-.952h.02a.952.952,0,1,1,0,1.9Z" transform="translate(-0.155 -265.144)" fill="#3a3847"/>
                    <path id="Path_23" data-name="Path 23" d="M33.149,249.908a.959.959,0,0,1-.961-.952.943.943,0,0,1,.941-.952h.02a.952.952,0,1,1,0,1.9Z" transform="translate(-24.523 -186.842)" fill="#3a3847"/>
                    <path id="Path_24" data-name="Path 24" d="M321.009,449.812a.96.96,0,0,1-.963-.952.943.943,0,0,1,.941-.952h.022a.952.952,0,0,1,0,1.9Z" transform="translate(-241.078 -336.941)" fill="#3a3847"/>
                    <path id="Path_25" data-name="Path 25" d="M8.948,105.6A.952.952,0,0,1,8,104.647V97.03a.952.952,0,0,1,1.9,0v7.617A.952.952,0,0,1,8.948,105.6Z" transform="translate(-6.092 -72.346)" fill="#3a3847"/>
                    <path id="Path_26" data-name="Path 26" d="M4.761,113.973H.952a.952.952,0,1,1,0-1.9H4.761a.952.952,0,1,1,0,1.9Z" transform="translate(0 -84.448)" fill="#3a3847"/>
                    <path id="Path_27" data-name="Path 27" d="M56.926,481.418a.951.951,0,0,1-.952-.952v-7.617a.952.952,0,0,1,1.9,0v7.617A.952.952,0,0,1,56.926,481.418Z" transform="translate(-42.644 -355.217)" fill="#3a3847"/>
                    <path id="Path_28" data-name="Path 28" d="M52.738,489.793H48.93a.952.952,0,1,1,0-1.9h3.808a.952.952,0,1,1,0,1.9Z" transform="translate(-36.553 -367.401)" fill="#3a3847"/>
                    <path id="Path_32" data-name="Path 32" d="M450.641,429.791a3.026,3.026,0,0,1-.461-.037,2.855,2.855,0,1,1,.461.037Zm.115-3.8a.977.977,0,0,0-1.06.79.951.951,0,0,0,.788,1.09l.156.015a.953.953,0,0,0,.149-1.893A.2.2,0,0,0,450.756,425.992Z" transform="translate(-336.812 -318.783)" fill="#3a3847"/>
                    <path id="Path_33" data-name="Path 33" d="M401.678,447.609a.952.952,0,0,1-.234-1.874c8.621-2.2,11.064-7.54,11.09-7.6a.951.951,0,0,1,1.744.757c-.108.255-2.778,6.243-12.366,8.684A.937.937,0,0,1,401.678,447.609Z" transform="translate(-300.963 -329.064)" fill="#3a3847"/>
                  </g>
                </g>
                <text id="_" data-name="?" transform="matrix(0.927, -0.375, 0.375, 0.927, 211.555, 250.226)" fill="#8854d0" font-size="30" font-family="Poppins-SemiBold, Poppins" font-weight="600"><tspan x="0" y="0">?</tspan></text>
                <text id="_2" data-name="?" transform="translate(202.748 262.34) rotate(-19)" fill="#8854d0" font-size="20" font-family="Poppins-SemiBold, Poppins" font-weight="600"><tspan x="0" y="0">?</tspan></text>
                <text id="_3" data-name="?" transform="translate(214.929 269.075) rotate(-19)" fill="#8854d0" font-size="20" font-family="Poppins-SemiBold, Poppins" font-weight="600"><tspan x="0" y="0">?</tspan></text>
              </g>
            </g>
          </g>
        </g>
      </g>
    </g>
    <g id="whiteboard" transform="translate(154.052 263.999)">
      <rect id="Rectangle_36" data-name="Rectangle 36" width="61.499" height="49.983" transform="translate(3.921 16.665)" fill="#efefef"/>
      <rect id="Rectangle_37" data-name="Rectangle 37" width="4.072" height="49.983" transform="translate(3.921 16.665)" fill="#e6e6e6"/>
      <g id="Group_20" data-name="Group 20" transform="translate(0.94 14.833)">
        <path id="Path_125" data-name="Path 125" d="M74.388,111.1a1.833,1.833,0,0,0-1.833-1.833H8.759a1.833,1.833,0,0,0,0,3.665h63.8A1.833,1.833,0,0,0,74.388,111.1Z" transform="translate(-6.926 -109.263)" fill="#8854d0"/>
        <path id="Path_126" data-name="Path 126" d="M74.388,479.315a1.832,1.832,0,0,0-1.833-1.832H8.759a1.833,1.833,0,1,0,0,3.665h63.8A1.832,1.832,0,0,0,74.388,479.315Z" transform="translate(-6.926 -427.5)" fill="#8854d0"/>
      </g>
      <g id="Group_21" data-name="Group 21" transform="translate(0.94 14.833)">
        <path id="Path_127" data-name="Path 127" d="M12.42,111.1a1.833,1.833,0,0,1,1.833-1.833H8.759a1.833,1.833,0,0,0,0,3.665h5.494A1.833,1.833,0,0,1,12.42,111.1Z" transform="translate(-6.926 -109.263)" fill="#8854d0"/>
        <path id="Path_128" data-name="Path 128" d="M12.42,479.315a1.832,1.832,0,0,1,1.833-1.832H8.759a1.833,1.833,0,1,0,0,3.665h5.494A1.832,1.832,0,0,1,12.42,479.315Z" transform="translate(-6.926 -427.5)" fill="#8854d0"/>
      </g>
      <circle id="Ellipse_10" data-name="Ellipse 10" cx="2.623" cy="2.623" r="2.623" transform="translate(32.048 1.019)" fill="#e6e6e6"/>
      <path id="Path_129" data-name="Path 129" d="M238.715,10.135a2.62,2.62,0,0,1,0-2.621,2.623,2.623,0,1,0,2.269,3.93A2.62,2.62,0,0,1,238.715,10.135Z" transform="translate(-204.044 -6.493)" fill="#ccc"/>
      <path id="Path_130" data-name="Path 130" d="M95.873,274.811a.509.509,0,0,1,.56,0l1.285.847a.9.9,0,0,0,.987,0l1.285-.847a.509.509,0,0,1,.56,0l1.357.895a.765.765,0,0,0,.842,0l1.357-.895a.509.509,0,0,1,.56,0l1.348.889a.781.781,0,0,0,.86,0l1.348-.889a.509.509,0,0,1,.56,0l1.138.75a.387.387,0,0,0,.6-.323V257.554a.817.817,0,0,0-.814-.814H94.951a.817.817,0,0,0-.814.814v17.664a.4.4,0,0,0,.615.331Z" transform="translate(-81.359 -221.888)" fill="#f9f6ed"/>
      <path id="Path_131" data-name="Path 131" d="M98.209,275.49V257.554a.817.817,0,0,1,.814-.814H94.951a.817.817,0,0,0-.814.814v17.664a.4.4,0,0,0,.615.331l1.121-.739a.509.509,0,0,1,.56,0l1.285.847a.9.9,0,0,0,.634.136A.39.39,0,0,1,98.209,275.49Z" transform="translate(-81.359 -221.888)" fill="#efece4"/>
      <path id="SVGCleanerId_0" d="M94.137,257.554v2.851h16.387v-2.851a.817.817,0,0,0-.814-.814H94.951A.817.817,0,0,0,94.137,257.554Z" transform="translate(-81.359 -221.888)" fill="#fc7777"/>
      <g id="Group_22" data-name="Group 22" transform="translate(12.778 34.852)">
        <path id="SVGCleanerId_0_1_" d="M94.137,257.554v2.851h16.387v-2.851a.817.817,0,0,0-.814-.814H94.951A.817.817,0,0,0,94.137,257.554Z" transform="translate(-94.137 -256.74)" fill="#8854d0"/>
      </g>
      <path id="Path_132" data-name="Path 132" d="M98.209,257.826v-.272a.817.817,0,0,1,.814-.814H94.951a.81.81,0,0,0-.455.14.823.823,0,0,0-.22.22.81.81,0,0,0-.14.455v2.851h4.072Z" transform="translate(-81.359 -221.888)" fill="#8854d0"/>
      <path id="Path_133" data-name="Path 133" d="M272.665,250.837a.509.509,0,0,1,.525-.2l1.5.345a.9.9,0,0,0,.924-.345l.908-1.243a.509.509,0,0,1,.525-.2l1.585.364a.765.765,0,0,0,.789-.295l.958-1.313a.509.509,0,0,1,.525-.2l1.574.362a.781.781,0,0,0,.806-.3l.952-1.3a.509.509,0,0,1,.525-.2l1.328.305a.387.387,0,0,0,.45-.513l-6.182-16.567a.817.817,0,0,0-1.048-.478l-13.826,5.159a.817.817,0,0,0-.478,1.048l6.175,16.549a.4.4,0,0,0,.692.1Z" transform="translate(-228.989 -197.93)" fill="#f9f6ed"/>
      <path id="Path_134" data-name="Path 134" d="M275.125,276.3l-6.414-17.188a.839.839,0,0,1-.027-.5l-3.2,1.193a.817.817,0,0,0-.478,1.048l6.175,16.549a.4.4,0,0,0,.692.1l.792-1.084a.509.509,0,0,1,.525-.2l1.5.345a.894.894,0,0,0,.588-.068A.4.4,0,0,1,275.125,276.3Z" transform="translate(-228.991 -223.506)" fill="#efece4"/>
      <path id="Path_135" data-name="Path 135" d="M265.008,235.276l1,2.671,15.353-5.729-1-2.671a.817.817,0,0,0-1.048-.478l-13.826,5.159A.817.817,0,0,0,265.008,235.276Z" transform="translate(-228.991 -197.929)" fill="#8854d0"/>
      <path id="Path_136" data-name="Path 136" d="M268.712,259.112a.839.839,0,0,1-.027-.5l-3.2,1.193-.043.019a.816.816,0,0,0-.435,1.029l1,2.671,3.821-1.426Z" transform="translate(-228.991 -223.506)" fill="#8854d0"/>
      <path id="Path_139" data-name="Path 139" d="M96.424,232.734a1.018,1.018,0,0,0-1.018,1.018v1.222H89.046a1.835,1.835,0,0,0-1.833,1.833v17.664a1.415,1.415,0,0,0,2.193,1.181l.841-.554,1,.663a1.912,1.912,0,0,0,2.108,0l1.005-.663,1.077.71a1.782,1.782,0,0,0,1.963,0l1.077-.71,1.068.7a1.8,1.8,0,0,0,1.981,0l1.068-.7.857.565a1.405,1.405,0,0,0,2.179-1.173V236.807a1.835,1.835,0,0,0-1.833-1.833H97.442v-1.222A1.018,1.018,0,0,0,96.424,232.734Zm7.175,20.584-.16-.105a1.525,1.525,0,0,0-1.681,0l-1.218.8-1.218-.8a1.525,1.525,0,0,0-1.681,0l-1.218.8-1.218-.8a1.526,1.526,0,0,0-1.681,0l-1.218.8-1.218-.8a1.526,1.526,0,0,0-1.681,0h0l-.157.1V240.676H103.6v12.642Zm0-16.308v1.629H89.249v-1.629h6.157v.09a1.018,1.018,0,1,0,2.036,0v-.09Z" transform="translate(-75.374 -201.141)"/>
      <path id="Path_140" data-name="Path 140" d="M258.145,229.149l1,2.671h0L264.32,245.7a1.413,1.413,0,0,0,1.132.907c1.23.169,1.641-1.166,1.929-1.381l1.173.269a1.912,1.912,0,0,0,1.974-.737l.71-.972,1.258.289a1.781,1.781,0,0,0,1.839-.687l.761-1.042,1.247.287a1.8,1.8,0,0,0,1.856-.693l.755-1.033c.551.048,1.594.674,2.372-.214a1.4,1.4,0,0,0,.26-1.418L275.4,222.709a1.835,1.835,0,0,0-2.358-1.076l-5.959,2.224-.427-1.145a1.018,1.018,0,1,0-1.907.712l.427,1.145-5.959,2.224A1.835,1.835,0,0,0,258.145,229.149Zm21.125,9.74a1.573,1.573,0,0,0-1.762.545l-.86,1.178-1.422-.327a1.525,1.525,0,0,0-1.575.588l-.86,1.178-1.422-.327a1.525,1.525,0,0,0-1.575.588l-.86,1.178-1.423-.327a1.535,1.535,0,0,0-1.575.588l-.111.152-4.419-11.843,13.445-5.017Zm-13.378-12.414a1.041,1.041,0,0,0,.985.747,1.019,1.019,0,0,0,.954-1.374l-.031-.084,5.769-2.153.569,1.526-13.445,5.017-.569-1.526Z" transform="translate(-223.004 -191.447)"/>
      <path id="Path_141" data-name="Path 141" d="M121.7,314.059H129a1.018,1.018,0,0,0,0-2.036h-7.3a1.018,1.018,0,1,0,0,2.036Z" transform="translate(-104.299 -269.667)"/>
      <path id="Path_142" data-name="Path 142" d="M121.7,345.1H129a1.018,1.018,0,0,0,0-2.036h-7.3a1.018,1.018,0,1,0,0,2.036Z" transform="translate(-104.299 -296.496)"/>
      <path id="Path_143" data-name="Path 143" d="M328.093,304.345C333.4,302.219,326.888,304.829,328.093,304.345ZM331,300.986l-3.233,1.3Z" transform="translate(-281.483 -255.866)"/>
      <path id="Path_144" data-name="Path 144" d="M66.649,63.8h-.133V30.074a1.018,1.018,0,0,0-2.036,0V63.8H5.017V19.516h5.654a1.018,1.018,0,1,0,0-2.036H2.851a.814.814,0,1,1,0-1.629h63.8a.814.814,0,0,1,0,1.629H15.423a1.018,1.018,0,1,0,0,2.036H64.48v5.807a1.018,1.018,0,1,0,2.036,0V19.516h.131a2.851,2.851,0,0,0,0-5.7H60.661L37.623,1.41a3.635,3.635,0,0,0-5.747,0L8.837,13.815H2.851a2.851,2.851,0,0,0,0,5.7h.131V63.8H2.853a2.851,2.851,0,1,0,0,5.7H52.746a1.018,1.018,0,0,0,0-2.036H2.853a.814.814,0,0,1,0-1.629h63.8a.814.814,0,0,1,0,1.629H57.5a1.018,1.018,0,0,0,0,2.036H66.65a2.851,2.851,0,1,0,0-5.7ZM34.749,2.037a1.6,1.6,0,1,1-1.6,1.6A1.611,1.611,0,0,1,34.749,2.037ZM31.14,4.118a3.64,3.64,0,0,0,7.218,0l18.008,9.7H13.132Z" transform="translate(0 0)"/>
      <path id="Path_145" data-name="Path 145" d="M121.7,314.059H129a1.018,1.018,0,0,0,0-2.036h-7.3a1.018,1.018,0,1,0,0,2.036Z" transform="translate(-104.298 -269.667)"/>
      <path id="Path_146" data-name="Path 146" d="M121.7,314.059H129a1.018,1.018,0,0,0,0-2.036h-7.3a1.018,1.018,0,1,0,0,2.036Z" transform="translate(-177.805 -207.917) rotate(-20)"/>
      <path id="Path_147" data-name="Path 147" d="M121.7,314.059H129a1.018,1.018,0,0,0,0-2.036h-7.3a1.018,1.018,0,1,0,0,2.036Z" transform="translate(298.341 -181.481) rotate(70)"/>
    </g>
  </g>
</svg>
