<?xml version="1.0" encoding="utf-8"?>
<!-- Generator: Adobe Illustrator 27.0.0, SVG Export Plug-In . SVG Version: 6.00 Build 0)  -->
<svg version="1.1" id="Layer_1" xmlns="http://www.w3.org/2000/svg" xmlns:xlink="http://www.w3.org/1999/xlink" x="0px" y="0px"
	 viewBox="0 0 1491 231" style="enable-background:new 0 0 1491 231;" xml:space="preserve">
<style type="text/css">
	.st0{fill:#2F3542;}
	.st1{fill:#FEFEFE;}
</style>
<path class="st0" d="M0.1,71.2c3.3-9.1,10.1-15,18.8-18.5c27.4-11.2,55.2-11.8,82.5-0.4c23.1,9.7,33.9,28.8,36.5,52.8
	c1.2,11.2,0.7,22.5-2.1,33.5c-6.2,25.3-25.4,42.4-51.6,46c-12.3,1.7-24.5,1.7-37.3-2.3v8.5c0,10.9-0.1,21.9,0.1,32.8
	c0.1,3.3-0.9,4.6-4.3,5c-2.9,0.4-6,0.1-8.7,1.7H17c-2.9-1.1-6.1-0.4-9-1.8c-5.6-2.7-7.1-7.7-8-13.1L0.1,71.2L0.1,71.2z"/>
<path class="st0" d="M639,230.3c-0.3-1.3-1.5-1.1-2.3-1.4c-7.6-2.5-11-8.1-11.7-15.7c-0.2-2.8-0.3-5.6-0.3-8.5
	c0-41.3,0.4-82.6-0.2-123.8c-0.2-14.1,6.1-22.7,18.1-27.8c28.5-12.1,57.3-12.4,85.7,0.1c16.5,7.2,26.6,20.7,31.5,37.8
	c5.1,17.6,4.7,35.5-1,52.9c-7.9,24-25.5,36.8-50,40.7c-11.5,1.8-22.9,1.9-34.1-1.5c-3.5-1.1-3.1,0.9-3.1,3c0,11.8-0.4,23.6,0.2,35.3
	c0.2,5.5-1.7,7.3-6.7,7.7c-1.6,0.1-3.7-0.5-5,1.3L639,230.3L639,230.3z"/>
<path class="st0" d="M1490.9,181.6c-8.5,1.6-17.1,2.4-25.8,2c-14.7-0.6-21.1-7.1-21.1-21.8c-0.1-21.2,0-42.4,0-63.7
	c0-11.4-5.5-17-17.1-17.3c-5.7-0.1-11.2,0.7-16.6,2.9c-3.2,1.3-4.5,3-4.5,6.6c0.2,28.7-0.1,57.4,0.2,86c0.1,4.6-1.8,5.5-5.5,6.1
	c-7.3,1.1-14.6,1.4-21.9,1c-13-0.7-19.5-7.2-19.6-20.2c-0.2-15.1,0-30.2,0-45.2c0-12.6,0.1-25.2-0.1-37.8c-0.1-8.1,3-14.4,9.4-19.3
	c11.2-8.5,24.1-13.1,38-15.2c17.5-2.7,34.9-2.7,51.8,3.4c17.4,6.2,28.8,17.9,32,36.6c0.1,0.4,0.5,0.8,0.8,1.2L1490.9,181.6
	L1490.9,181.6z"/>
<path class="st0" d="M397.2,47.3c0-13.4,0.1-26.5-0.1-39.5c0-3.4,0.7-4.9,4.4-5.5c8.8-1.3,17.5-2.5,26.3-1.1
	C438.7,3,443.7,8.6,444,19.7c0.2,9.4,0.1,18.9,0.1,28.3c0,33.8-0.2,67.6,0.1,101.4c0.1,11.9-5.1,19.8-15.2,25.2
	c-19.5,10.5-40.3,13.1-61.9,10.3c-19.4-2.5-36.2-9.9-48.1-26c-12.5-16.9-14.5-36.2-12.1-56.3c2.3-19.5,10.4-36,27.6-46.6
	c18.5-11.4,38.7-14.2,60-9.3C395.2,46.8,396,47,397.2,47.3L397.2,47.3z"/>
<path class="st0" d="M1102.4,92.3c15-14.1,30.1-28.2,44.9-42.5c2.8-2.8,5.4-3.6,9.2-3c6.7,1,12.9,2.7,18.3,7.1
	c8.1,6.5,9.8,17,4.3,25.8c-4.7,7.5-11.7,12.6-18.2,18.3c-4.8,4.3-9.7,8.6-14.8,12.6c-2.9,2.2-3.2,3.5-0.4,6.3
	c12.8,12.4,25.2,25.1,37.9,37.5c2.2,2.2,3,4.1,2.5,7.3c-3.6,20.7-24.7,29.5-42.2,17.3c-5.7-3.9-10-9.2-14.3-14.5
	c-8.6-10.7-17.2-21.4-26.6-33.1c0,15.3-0.3,29.3,0.2,43.3c0.2,5.4-1.4,7.4-6.7,7.9c-8.6,0.8-17.2,2-25.8,0.2
	c-8.2-1.7-12.8-6.6-13.9-14.8c-0.4-3.1-0.6-6.3-0.6-9.4c0-50,0-100.1-0.1-150.1c0-4.1,0.9-5.7,5.2-6.3c8.1-1.2,16.2-2.4,24.3-1.1
	c12.3,1.8,17.4,7.7,17.4,20.1c0.1,22.5,0,45.1,0,67.6v4.8C1102.8,93.1,1102.6,92.7,1102.4,92.3L1102.4,92.3z"/>
<path class="st0" d="M888.3,112.8c0.6-24,9.5-46,33.8-59.4c31.6-17.5,75.4-9.9,96.3,16.7c14.4,18.3,16.7,39.5,12.9,61.7
	c-3.1,18.2-12.1,32.7-27.7,42.9c-28.1,18.3-74.6,14-96.7-9.2C893.4,151.5,888.5,134.1,888.3,112.8L888.3,112.8z"/>
<path class="st0" d="M1330.4,123.4c0,10.3-0.2,20.6,0.1,30.8c0.2,7.4-2.7,13.1-8.5,17.6c-9.1,7-19.5,10.6-30.7,12.2
	c-20.1,3-40.1,3.4-59.7-3.3c-29-9.9-33.7-35.7-25.9-56.8c4.4-11.8,14.2-17.5,25.7-20.9c13.7-4.1,27.9-4.1,41.9-6
	c2.5-0.3,5-0.9,7.4-0.8c4.8,0.3,4.6-2.6,3.8-5.7c-1.1-4.6-4.4-7.2-8.8-8.7c-13.1-4.5-26.3-3.1-39.4-0.3c-4.7,1-9.4,2.4-13.8,4.1
	c-2.9,1.1-4.6,0.4-6.4-1.7c-9.4-10.6-6.6-26.4,6.1-32.6c10.4-5.1,21.7-6,33-6.7c15.1-1,29.9,0,44.2,5.4c20,7.5,30.5,22.3,30.8,43.5
	C1330.5,103.4,1330.4,113.4,1330.4,123.4L1330.4,123.4z"/>
<path class="st0" d="M283.1,122.9c0,10.8-0.1,21.6,0,32.3c0.1,6.1-2,10.9-6.5,14.9c-9.3,8.3-20.5,12-32.5,13.9
	c-19.2,3-38.5,3.4-57.4-2.4c-27-8.4-39-33.9-27.9-58.5c4.5-10,12.6-15.5,22.5-19c11.6-4.2,23.8-4.5,35.8-5.9
	c6-0.7,11.9-1.5,17.9-1.9c2.7-0.2,2.9-1.5,2.7-3.5c-0.6-5.1-3.4-8.5-8.1-10.4c-9.2-3.7-18.9-3.5-28.6-2.6
	c-8.6,0.8-17.1,2.7-25.1,5.9c-3.6,1.4-5.5,0.4-7.6-2.3c-9.4-12.3-5.2-27.8,9.5-33.1c16.6-5.9,33.9-6.7,51.3-5.2
	c12,1,23.6,3.7,33.9,10.4c13.2,8.5,19.6,20.9,20,36.2C283.3,102,283.1,112.4,283.1,122.9z"/>
<path class="st0" d="M514.3,133.1c2.3,6.8,6.7,11.3,12.9,13.9c17.2,7,34.2,4.6,51-1.5c2.9-1.1,5.6-4.9,8.8-2.8c4.9,3.1,8,8,8.9,13.8
	c1.4,9.6-2.3,16.8-11,21.4c-14.7,7.7-30.6,8.4-46.7,7.9c-19.2-0.7-36.7-6.2-50.8-19.9c-13.1-12.7-18.8-28.5-19.7-46.4
	c-0.9-17.1,1.3-33.3,11.5-47.8c12.3-17.5,30-25.3,50.6-27c21.8-1.8,41.7,3.5,57.4,19.8c10.9,11.4,15.5,25.3,14.6,40.9
	c-0.5,8.6-5.9,14.7-15.8,16.7c-12,2.4-24.3,4-36.4,5.8C538,129.6,526.4,131.3,514.3,133.1L514.3,133.1z"/>
<path class="st0" d="M812.4,183.9c-3.7-0.3-7.3-0.3-10.9-0.9c-9.8-1.7-15.2-7.4-15.3-17.3c-0.3-29.7-0.2-59.3,0-89
	c0.1-8.1,5.1-13.9,11.8-18c13.1-8.1,27.7-11.8,42.9-13.5c8.2-0.9,16.3-1.2,24.2,1.2c13.7,4.1,19.5,19.9,12.1,32.2
	c-1.4,2.4-3.4,1.9-5.2,1.9c-11.5,0.4-22.8,2.5-33.9,5.4c-3.7,1-5.3,2.4-5.2,6.7c0.2,27.8,0,55.7,0.3,83.5c0,4.7-1.7,6-5.7,6.4
	C822.3,183,817.4,184,812.4,183.9L812.4,183.9z"/>
<path class="st1" d="M46.8,114.8c0-8.8,0.1-17.6-0.1-26.3c-0.1-3.1,1.1-4.4,3.8-5.3c5.9-2.1,12-2.8,18.2-1.9
	c8,1.1,14.2,5.2,17.5,12.5c6.1,13.8,6.3,28,0.3,41.9c-6.8,15.8-27.9,15.4-38.2,10.3c-2.1-1-1.4-2.8-1.4-4.3
	C46.7,132.7,46.8,123.7,46.8,114.8L46.8,114.8z"/>
<path class="st1" d="M671.2,114.5c0-8.6,0.2-17.2-0.1-25.9c-0.1-3.1,1.1-4.5,3.8-5.5c16.3-5.6,36-2.5,39.5,22
	c1.2,8.4,1.3,16.8-1.2,25.1c-4.9,16.5-25.1,24.2-40.1,15.6c-2.2-1.3-1.8-2.9-1.9-4.6C671.1,132.4,671.1,123.5,671.2,114.5
	L671.2,114.5z"/>
<path class="st1" d="M397.5,114.5c0,8.6-0.2,17.2,0.1,25.8c0.1,3.6-1.4,5.3-4.5,6.7c-14.7,6.8-32.3-0.5-37.3-15.8
	c-3.4-10.5-3.5-21.2-0.1-31.7c4.8-15.3,24.4-23.6,39.1-16.9c2.3,1,2.7,2.5,2.7,4.6C397.4,96.3,397.5,105.4,397.5,114.5L397.5,114.5z
	"/>
<path class="st1" d="M984.9,116.1c-0.1,6.3-0.9,13.5-4,20.2c-4,8.6-10.7,13.4-20.4,13.2c-9.6-0.2-16.8-4.6-20.3-13.5
	c-5.4-13.6-5.5-27.5-0.2-41.2c3.5-9,10.3-13.9,20.3-14.1c10.2-0.1,17,4.8,21,13.9C984.1,101.2,984.9,108.1,984.9,116.1L984.9,116.1z
	"/>
<path class="st1" d="M1285.2,137.8c0,0.3,0,0.7,0,1c0,11.3-0.2,11.7-11.6,12.7c-5.6,0.5-11.3,0.9-16.9-0.7
	c-5.7-1.6-8.7-5.2-8.9-10.5c-0.2-5,2.2-8.4,7.7-10.2c9-2.9,18.4-2.4,27.7-3.4c2.1-0.2,1.9,1.3,1.9,2.6
	C1285.2,132.2,1285.2,135,1285.2,137.8L1285.2,137.8z"/>
<path class="st1" d="M238,138.2c0,0.3,0,0.7,0,1c0,10.8-0.4,11.4-11.4,12.3c-5.9,0.5-11.9,0.9-17.8-0.8c-5.1-1.5-8.2-5.4-8.3-10.5
	c-0.2-5.2,2.8-8.3,7.4-9.9c9.1-3.1,18.7-2.6,28-3.5c2-0.2,2,1.1,2,2.5C238,132.3,238,135.2,238,138.2z"/>
<path class="st1" d="M536.3,78.3c10.2,0,17.7,4.8,20.8,13.1c0.8,2.2,1.2,3.4-2,3.8c-13.6,2.1-27.2,4.4-40.7,6.7
	c-3,0.5-3.7-0.5-3.2-3.4C513.4,86.4,523.3,78.3,536.3,78.3z"/>
</svg>
