<?xml version="1.0" encoding="UTF-8"?>
<svg id="Layer_1" data-name="Layer 1" xmlns="http://www.w3.org/2000/svg" viewBox="0 0 118.1 118.04">
  <path d="M94.12,60.65c-1.07,.65-2.14,1.3-3.21,1.95-1.66-1.3-1.54-3.19-1.51-4.96,.09-5.39-.47-10.81,.36-16.18,.59-1.7,2-2.58,3.51-3.32,3.21-1.57,4.77-4.09,4.14-7.66-.63-3.6-3.19-5.19-6.56-5.83-6.59-1.25-13.25-.31-19.87-.68-3.41-.19-7,.94-10.17-1.22,6.91-7.33,12.89-15.66,22.27-20.27,14.87-7.32,32.5,2.32,34.75,18.72,1.24,9-1.97,16.12-7.73,22.53-4.32,4.8-9.61,8.69-13.31,14.08,.1,1.87-.87,2.75-2.67,2.84Z" fill="#ece4f7"/>
  <path d="M18.98,61.57c3.23,1.51,3.57-2.51,5.75-3,1.59,1.35,1.48,3.25,1.51,5.04,.07,5.29,0,10.59,.03,15.89,.02,3.46-1.11,6.18-4.42,7.61-3.15,1.37-4.66,3.91-4.27,7.1,.46,3.71,3.14,5.66,6.74,6.3,6.41,1.14,12.88,.31,19.32,.59,2.43,.11,5.01-.48,7.14,1.32-6.15,7.22-12.46,13.79-22.72,15.39-11.47,1.79-25.16-7.27-27.24-19.11-1.84-10.46,1.92-18.71,9.21-25.75,1.76-1.7,3.03-2.98-.2-4.26,3.75-1.47,7.47-2.98,9.15-7.11Z" fill="#ece4f7"/>
  <path d="M50.78,102.42c-7.78-.08-15.56-.17-23.34-.23-2.67-.02-5.31-.19-7.63-1.7-2.75-1.79-4.01-4.45-3.77-7.62,.26-3.38,1.99-6.28,5.31-7.1,3.23-.8,3.6-2.57,3.54-5.33-.17-7.29-.11-14.58-.15-21.87,3.08-2.3,3.15-.14,3.15,2.13,0,6.97,.05,13.93-.03,20.9-.02,2.1,.28,3.43,2.89,3.4,19.06-.19,38.12-.27,57.17-.39,1.21-1.8,.82-3.84,.83-5.8,.04-11.1-.04-22.21,.07-33.31,.02-1.73-1.03-4.16,1.88-4.9,.07,7.33,.14,14.67,.2,22-.05,4.49-.15,8.98-.15,13.46,0,4.42-1.25,9.03,5.01,11.17,3.07,1.05,3.66,5.02,2.84,8.32-.83,3.3-2.97,5.49-6.47,6.15-4.46,.85-8.96,.36-13.44,.43-9.31,.15-18.61,.2-27.92,.29Z" fill="#45667c"/>
  <path d="M90.71,40.6c-1.55,1.51-.91,3.44-.91,5.19-.06,11.44,0,22.88-.06,34.31,0,1.66,.84,3.83-1.81,4.5-.07-13.27-.29-26.54-.11-39.81,.05-3.77-1-4.78-4.72-4.69-10.61,.25-21.24,.07-31.86,.1-2.57,0-4.7-.12-2.44-3.45,1.83-1.89,4.24-1.66,6.53-1.67,9.61-.05,19.21-.02,28.82-.02,1.49,0,2.99,.08,4.47-.07,2.29-.23,5.08-.15,5-3.45-.08-3.12-2.59-3.42-5.04-3.43-10.93-.05-21.86,.09-32.79,.03-2.45-.01-5.03,.3-7.05-1.64-1.65-2.35-1.23-3.5,1.83-3.48,3.42,.02,6.84-.16,10.26-.25,8.45,.08,16.9,.14,25.35,.27,2.15,.03,4.33,.1,6.42,.52,4.11,.81,6.33,3.71,6.6,7.68,.25,3.76-1.58,6.71-5.2,8.25-1.06,.45-2.18,.75-3.28,1.12Z" fill="#43637b"/>
  <path d="M48.73,26.49c13.43,0,26.85,.03,40.28-.02,3.64-.01,6.81,.48,6.83,5.12,.02,4.62-3.07,5.18-6.76,5.16-13.43-.06-26.85-.01-40.28,0-.02-3.42-.05-6.84-.07-10.26Z" fill="#8855cf"/>
  <path d="M22.99,54.59C10.47,54.69,0,44.4,0,31.97,0,19.56,10.47,9.11,22.87,9.16c12.21,.05,22.48,10.17,22.78,22.44,.3,12.28-10.17,22.9-22.66,23Z" fill="#3f6178"/>
  <path d="M58.64,62.4c.04-5.87,2.29-8.84,6.56-8.67,3.99,.16,6.57,3.82,6.43,9.13-.14,5.47-2.81,8.83-6.86,8.67-4.21-.17-6.17-3.09-6.12-9.13Z" fill="#8a58d0"/>
  <path d="M50.07,71.58c-1.36,.06-2.66-.09-3.77-.98-1.16-.94-2.75-2.11-1.8-3.56,.83-1.26,2.3-.46,3.36,.63,1.39,1.41,3.14,1.59,4.23-.14,1.27-1.99-.31-3.06-1.99-3.65-2.6-.91-2.53-2.11-.21-3.04,1.78-.71,2.63-1.67,1.67-3.3-.86-1.44-2.29-1.11-3.38-.03-1.07,1.07-2.65,1.77-3.4,.55-.87-1.42,.53-2.74,1.89-3.49,2.37-1.31,4.82-1.41,7.03,.29,1.95,1.51,2.55,3.54,1.06,5.69-.9,1.3-.63,2.11,.06,3.48,2.19,4.39,.11,7.53-4.74,7.56Z" fill="#8b59d1"/>
  <path d="M94.12,60.65c.89-.95,1.78-1.89,2.67-2.84,5.19-1.24,8.63,.15,9.57,4.13,.9,3.8-.7,6.54-4.41,7.73-5.16,1.65-8.61-2.38-7.83-9.01Z" fill="#8b59d1"/>
  <path d="M18.98,61.57c-.81,6.22-2.44,7.49-9.15,7.11-2.8-1.92-4.61-4.36-3.56-7.93,.76-2.58,2.58-4.35,5.36-4.42,3.65-.1,6.4,1.39,7.36,5.24Z" fill="#44667b"/>
  <path d="M103.97,75.99c1.7,.38,2.78,1.33,2.61,3.1-.17,1.79-1.4,2.6-3.12,2.4-1.53-.18-2.36-1.29-2.33-2.74,.04-1.73,1.12-2.66,2.83-2.76Z" fill="#9465d4"/>
  <path d="M96.64,12.86c-.07,1.68-.87,2.69-2.68,2.75-1.59,.05-2.5-.78-2.6-2.29-.09-1.42,.42-2.59,2.09-2.75,1.69-.16,2.86,.44,3.19,2.3Z" fill="#8b59d1"/>
  <path d="M57.58,88.23c10.31,0,20.62,.04,30.93-.02,3.62-.02,6.98,.47,7.18,4.93,.21,4.64-2.98,5.76-6.95,5.75-20.78-.02-41.57-.03-62.35,0-3.94,0-7.3-1.07-7.24-5.57,.06-4.67,3.68-5.16,7.51-5.13,10.31,.09,20.62,.03,30.93,.03Z" fill="#d4deea"/>
  <path d="M90.29,30.3c-4.38,.99-8.75,1.5-13.08-.02,4.35-1.37,8.73-.92,13.08,.02Z" fill="#fefdfe"/>
  <path d="M67.88,30.62c2.93-1.7,4.69-1.35,6.93-.78-1.89,2.2-3.77,1.47-6.93,.78Z" fill="#fefdfe"/>
  <path d="M22.78,12.51c10.3-.49,19.78,7.47,19.69,19.31-.09,12.25-9.29,19.96-19.88,19.79-10.68-.17-19.89-9.34-19.65-19.75,.26-10.94,8.87-19.34,19.84-19.35Z" fill="#8754cf"/>
  <path d="M67.93,62.86c-.13,2.23,.44,5.3-2.79,5.36-3.41,.06-3.3-3.04-3.32-5.52-.02-2.48-.14-5.69,3.18-5.62,3.38,.08,2.86,3.36,2.93,5.79Z" fill="#fbf9fd"/>
  <path d="M103.66,63.49c-.38,2.34-1.61,3.61-3.74,3.41-2.07-.19-3.33-1.5-3.11-3.72,.19-1.97,1.61-2.99,3.4-2.97,2.07,.03,3.25,1.39,3.45,3.28Z" fill="#f6f3fb"/>
  <path d="M15.85,62.07c0,2.57-1.25,3.83-3.33,3.86-2.1,.03-3.42-1.33-3.45-3.45-.02-1.93,1.22-3.12,3.1-3.23,2.1-.12,3.4,.99,3.67,2.82Z" fill="#f2f4f5"/>
  <path d="M34.13,24.56c-.5,.78-1.07,1.79-1.76,2.71-2.67,3.58-5.66,6.96-8,10.75-2.3,3.73-4.62,3.74-7.43,.99-1.75-1.71-6.25-2.58-4.65-5.2,1.35-2.22,4.05,1.23,5.86,2.49,2.14,1.48,3.15,.69,4.37-.99,2.73-3.75,5.53-7.44,8.33-11.12,.58-.76,1.15-1.72,2.38-1.4,.75,.2,.95,.81,.89,1.78Z" fill="#f9f7fc"/>
</svg>